<?xml version="1.0" encoding="utf-8"?>
<!-- Generator: Adobe Illustrator 25.3.0, SVG Export Plug-In . SVG Version: 6.00 Build 0)  -->
<svg version="1.1" id="Layer_1" xmlns="http://www.w3.org/2000/svg" xmlns:xlink="http://www.w3.org/1999/xlink" x="0px" y="0px"
	 width="512px" height="512px" viewBox="0 0 512 512" style="enable-background:new 0 0 512 512;" xml:space="preserve">
<style type="text/css">
	.st0{fill:#EBF5F7;}
	.st1{fill:#E4186D;}
	.st2{fill:#27276C;}
</style>
<path class="st0" d="M497.3,341.8V169.3c0-28.3-15.3-54.3-39.9-68.1L299.2,12.8c-23.6-13.2-52.5-13.2-76.1,0L64.9,101.2
	C40.2,115,24.9,141,24.9,169.3v172.5c0,28.3,15.3,54.3,39.9,68.1l158.2,88.4c23.6,13.2,52.5,13.2,76.1,0l158.2-88.4
	C482,396.1,497.3,370,497.3,341.8z"/>
<g>
	<g>
		<path class="st1" d="M166.9,382.3L166.9,382.3c-2.8-5.4-2.8-11.9,0.1-17.2L249,211.9c22.4-34.8,67.2-47.3,104.3-28.9l24.9,12.3
			c9.4,4.6,13.2,16,8.6,25.4l0,0c-4.6,9.4-16,13.2-25.4,8.6L336.5,217c-19.8-9.8-43.6-3.2-55.5,15.4l-81.6,150.2
			C192.4,395.6,173.7,395.4,166.9,382.3z"/>
	</g>
	<path class="st2" d="M308.2,106.8c11.9,0,21.4,9.7,21.4,21.4c0,11.9-9.4,21.4-21.4,21.4s-21.1-9.4-21.1-21.4
		C287.1,116.6,296.2,106.8,308.2,106.8z"/>
	<g>
		<path class="st1" d="M154,359l-51.4-85.6c-5.5-9.2-2.3-21.1,7-26.3l0,0c8.9-5,20.2-2,25.5,6.8l40.7,67.7L154,359z"/>
	</g>
</g>
</svg>
