<?xml version="1.0" encoding="utf-8"?>
<!-- Generator: Adobe Illustrator 25.3.0, SVG Export Plug-In . SVG Version: 6.00 Build 0)  -->
<svg version="1.1" id="Layer_1" xmlns="http://www.w3.org/2000/svg" xmlns:xlink="http://www.w3.org/1999/xlink" x="0px" y="0px"
	 width="32px" height="32px" viewBox="0 0 32 32" style="enable-background:new 0 0 32 32;" xml:space="preserve">
<style type="text/css">
	.st0{fill:#999999;}
</style>
<path class="st0" d="M26.4,3.2h-6.5V3.2c0-1.2-1-2.2-2.2-2.2h-4.4C12,1,11,2,11,3.2v0.1H4.5c-0.7,0-1.2,0.5-1.2,1.2v1.2
	c0,0.7,0.6,1.2,1.2,1.2h21.9c0.7,0,1.2-0.5,1.2-1.2V4.5C27.6,3.8,27,3.2,26.4,3.2z"/>
<path class="st0" d="M24.7,8.6H6.1c-0.4,0-0.6,0.3-0.6,0.6l0.9,18.5c0.1,2,1.8,3.7,3.9,3.7h10.1c2.1,0,3.8-1.6,3.9-3.7l0.9-18.5
	C25.4,8.9,25.1,8.6,24.7,8.6z M13.4,26.5c0,0.6-0.5,1-1,1c-0.6,0-1-0.4-1-1V13.6c0-0.6,0.5-1,1-1c0.6,0,1,0.4,1,1V26.5z M19.5,26.5
	c0,0.6-0.5,1-1,1s-1-0.4-1-1V13.6c0-0.6,0.5-1,1-1s1,0.4,1,1V26.5z"/>
</svg>
