<svg width="21" height="21" viewBox="0 0 21 21" fill="none" xmlns="http://www.w3.org/2000/svg">
<path d="M0.871582 6.71997C7.29758 6.71997 13.7026 6.71997 20.1391 6.71997C20.1391 6.82497 20.1391 6.90897 20.1391 7.00347C20.1391 10.479 20.1391 13.965 20.1391 17.4405C20.1391 18.585 19.3096 19.446 18.1546 19.488C18.0706 19.488 17.9971 19.488 17.9131 19.488C12.8416 19.488 7.78058 19.4775 2.70908 19.4985C1.41758 19.509 0.871582 18.6375 0.871582 17.6505C0.871582 14.7105 0.871582 11.7705 0.871582 8.81997C0.871582 8.13747 0.871582 7.44447 0.871582 6.71997ZM15.0571 8.93547C14.8366 8.93547 14.6056 8.93547 14.3851 8.93547C14.3746 8.93547 14.3536 8.93547 14.3431 8.93547C14.0281 8.94597 13.8391 9.11397 13.8391 9.42897C13.8286 9.92247 13.8286 10.4055 13.8391 10.899C13.8496 11.2035 14.0176 11.382 14.3221 11.3925C14.8261 11.403 15.3301 11.403 15.8341 11.3925C16.1491 11.382 16.2961 11.214 16.2961 10.9095C16.2961 10.416 16.2961 9.93297 16.2961 9.43947C16.2961 9.13497 16.1071 8.94597 15.8026 8.94597C15.5506 8.93547 15.2986 8.93547 15.0571 8.93547ZM10.2691 16.8C10.5106 16.8 10.7416 16.8 10.9831 16.8C11.3191 16.8 11.4766 16.653 11.4871 16.317C11.4976 15.8235 11.4976 15.3405 11.4871 14.847C11.4766 14.532 11.2981 14.3535 10.9936 14.343C10.5001 14.3325 10.0171 14.3325 9.52358 14.343C9.20858 14.3535 9.04058 14.5425 9.04058 14.8575C9.04058 15.33 9.04058 15.813 9.04058 16.2855C9.04058 16.6215 9.22958 16.8 9.56558 16.8C9.79658 16.8 10.0381 16.8 10.2691 16.8ZM16.2961 15.5925C16.2961 15.3405 16.2961 15.0885 16.2961 14.8365C16.2961 14.5425 16.1281 14.3535 15.8341 14.343C15.3196 14.3325 14.8156 14.3325 14.3011 14.343C14.0281 14.3535 13.8496 14.5215 13.8391 14.7945C13.8286 15.309 13.8286 15.8235 13.8391 16.3485C13.8496 16.632 14.0386 16.8 14.3221 16.8C14.8261 16.8105 15.3301 16.8105 15.8341 16.8C16.1281 16.8 16.2856 16.632 16.2961 16.338C16.2961 16.086 16.2961 15.834 16.2961 15.5925ZM10.2691 8.93547C10.0276 8.93547 9.77558 8.93547 9.53408 8.93547C9.22958 8.94597 9.04058 9.12447 9.04058 9.42897C9.04058 9.91197 9.04058 10.395 9.04058 10.878C9.04058 11.172 9.19808 11.3715 9.49208 11.382C10.0171 11.403 10.5421 11.3925 11.0671 11.382C11.3401 11.3715 11.4871 11.2245 11.4976 10.9515C11.5081 10.4265 11.5186 9.90147 11.4976 9.37647C11.4871 9.09297 11.2981 8.93547 11.0146 8.92497C10.7626 8.93547 10.5106 8.93547 10.2691 8.93547ZM5.50208 16.8C5.73308 16.8 5.96408 16.8 6.19508 16.8C6.51008 16.7895 6.73058 16.6005 6.74108 16.2855C6.75158 15.792 6.75158 15.309 6.74108 14.8155C6.73058 14.5215 6.55208 14.3535 6.25808 14.343C5.76458 14.3325 5.26058 14.3325 4.76708 14.343C4.46258 14.3535 4.29458 14.5425 4.29458 14.847C4.29458 15.33 4.29458 15.813 4.29458 16.296C4.29458 16.611 4.48358 16.7895 4.78808 16.8C5.02958 16.8 5.27108 16.8 5.50208 16.8ZM5.53358 8.93547C5.29208 8.93547 5.04008 8.93547 4.79858 8.93547C4.48358 8.93547 4.30508 9.12447 4.29458 9.42897C4.29458 9.91197 4.29458 10.395 4.29458 10.878C4.29458 11.1825 4.46258 11.3715 4.76708 11.382C5.26058 11.3925 5.74358 11.3925 6.23708 11.382C6.53108 11.3715 6.73058 11.193 6.74108 10.899C6.76208 10.3845 6.75158 9.88047 6.74108 9.36597C6.73058 9.09297 6.54158 8.93547 6.26858 8.93547C6.02708 8.93547 5.77508 8.93547 5.53358 8.93547Z" fill="#27276C"/>
<path d="M4.23134 1.50149C4.23134 1.77449 4.23134 2.03699 4.23134 2.28899C4.23134 2.61449 4.22084 2.93999 4.23134 3.26549C4.24184 3.63299 4.49384 3.89549 4.84034 3.88499C5.17634 3.88499 5.42834 3.63299 5.42834 3.26549C5.43884 2.76149 5.42834 2.25749 5.42834 1.75349C5.42834 1.66949 5.42834 1.59599 5.42834 1.50149C8.63084 1.50149 11.8123 1.50149 15.0148 1.50149C15.0148 1.57499 15.0253 1.64849 15.0253 1.72199C15.0253 2.23649 15.0253 2.76149 15.0253 3.27599C15.0253 3.56999 15.2038 3.80099 15.4663 3.87449C15.7078 3.93749 15.9808 3.85349 16.1068 3.63299C16.1803 3.50699 16.2118 3.34949 16.2223 3.20249C16.2328 2.64599 16.2223 2.08949 16.2223 1.54349C16.2433 1.52249 16.2538 1.51199 16.2643 1.51199C16.9573 1.52249 17.6608 1.48049 18.3538 1.55399C19.1833 1.62749 19.9078 2.33099 20.0443 3.08699C20.0548 3.12899 20.0653 3.16049 20.0653 3.20249C20.0653 3.91649 20.0653 4.64099 20.0653 5.35499C20.0653 5.38649 20.0548 5.41799 20.0548 5.45999C13.6603 5.45999 7.27634 5.45999 0.87134 5.45999C0.87134 5.40749 0.86084 5.36549 0.86084 5.32349C0.86084 4.64099 0.86084 3.96899 0.86084 3.28649C0.86084 2.88749 0.95534 2.50949 1.18634 2.17349C1.45934 1.77449 1.82684 1.53299 2.30984 1.51199C2.93984 1.48049 3.56984 1.50149 4.23134 1.50149Z" fill="#2B2A6B"/>
</svg>
