<svg width="26" height="26" viewBox="0 0 26 26" fill="none" xmlns="http://www.w3.org/2000/svg">
<path d="M13.3249 1.26099C13.5719 1.40399 13.6499 1.62499 13.6239 1.89799C13.6109 2.11899 13.5459 2.39199 13.6499 2.54799C13.7539 2.70399 14.0269 2.72999 14.2349 2.82099C14.6639 3.00299 14.6639 3.00299 14.9889 2.67799C15.0929 2.57399 15.1839 2.46999 15.2879 2.37899C15.4829 2.20999 15.7299 2.19699 15.9119 2.37899C16.3409 2.79499 16.7569 3.21099 17.1729 3.63999C17.3679 3.83499 17.3549 4.06899 17.1599 4.27699C16.9649 4.48499 16.7439 4.67999 16.5359 4.87499C16.6919 5.23899 16.8219 5.57699 16.9779 5.94099C17.2509 5.94099 17.5369 5.94099 17.8229 5.94099C18.0829 5.94099 18.2779 6.08399 18.2909 6.33099C18.3169 6.83799 18.2909 7.34499 18.2909 7.85199C17.1599 7.85199 16.0289 7.85199 14.8849 7.85199C15.0539 6.87699 14.8069 6.03199 14.1049 5.34299C13.5459 4.79699 12.8569 4.56299 12.0899 4.60199C10.6209 4.69299 9.30787 6.03199 9.61987 7.85199C8.48887 7.85199 7.37087 7.85199 6.21387 7.85199C6.21387 7.65699 6.21387 7.46199 6.21387 7.26699C6.21387 6.98099 6.21387 6.69499 6.21387 6.42199C6.22687 6.12299 6.39587 5.95399 6.69487 5.95399C6.83787 5.95399 6.98087 5.95399 7.12387 5.95399C7.26687 5.95399 7.40987 5.95399 7.53987 5.95399C7.68287 5.62899 7.82587 5.31699 7.95587 5.00499C7.96887 4.96599 7.94287 4.87499 7.90387 4.83599C7.73487 4.65399 7.55287 4.48499 7.38387 4.31599C7.17587 4.09499 7.16287 3.86099 7.38387 3.63999C7.78687 3.22399 8.20287 2.80799 8.61887 2.40499C8.82687 2.20999 9.07387 2.20999 9.28187 2.40499C9.45087 2.57399 9.61987 2.74299 9.78887 2.91199C9.86687 2.98999 9.93187 3.01599 10.0359 2.96399C10.2829 2.84699 10.5429 2.75599 10.7899 2.63899C10.8549 2.61299 10.9199 2.52199 10.9199 2.45699C10.9329 2.24899 10.9329 2.04099 10.9199 1.83299C10.9069 1.55999 10.9979 1.36499 11.2449 1.26099C11.9599 1.26099 12.6359 1.26099 13.3249 1.26099Z" fill="#2B2A6B"/>
<path d="M4.35501 9.24292C4.44601 9.24292 4.52401 9.24292 4.61501 9.24292C9.78901 9.24292 14.963 9.24292 20.124 9.24292C20.319 9.24292 20.423 9.28192 20.462 9.48992C20.579 10.1139 20.709 10.7249 20.852 11.3489C20.878 11.4919 20.917 11.6349 20.995 11.7519C21.801 12.9739 22.62 14.1829 23.426 15.4049C23.517 15.5479 23.595 15.7169 23.608 15.8729C23.634 16.2499 23.322 16.5489 22.932 16.5489C22.347 16.5489 21.749 16.5489 21.164 16.5489C21.086 16.5489 20.995 16.5489 20.891 16.5489C20.891 16.6399 20.878 16.7179 20.878 16.7959C20.878 17.6279 20.878 18.4469 20.878 19.2789C20.878 19.8379 20.631 20.0849 20.072 20.0849C19.474 20.0849 18.863 20.0849 18.226 20.0849C18.226 20.1889 18.226 20.2799 18.226 20.3579C18.226 21.3589 18.226 22.3729 18.226 23.3739C18.226 23.9459 17.979 24.1929 17.42 24.1929C14.963 24.1929 12.506 24.1929 10.049 24.1929C9.46401 24.1929 9.23001 23.9459 9.23001 23.3609C9.23001 22.1909 9.23001 21.0209 9.23001 19.8509C9.23001 19.6689 9.17801 19.6039 9.00901 19.5259C6.20101 18.3689 4.51101 16.2889 3.96501 13.3119C3.71801 11.8949 3.87401 10.4389 4.35501 9.24292Z" fill="#27276C"/>
<path d="M12.2718 7.89109C11.9208 7.89109 11.5698 7.89109 11.2188 7.89109C11.0888 7.89109 11.0368 7.83909 10.9978 7.73509C10.8158 7.20209 11.0108 6.57809 11.4658 6.24009C11.9338 5.88909 12.5838 5.87609 13.0518 6.21409C13.5328 6.56509 13.7278 7.17609 13.5458 7.72209C13.5068 7.85209 13.4548 7.90409 13.3118 7.89109C12.9738 7.89109 12.6228 7.89109 12.2718 7.89109Z" fill="#2B2A6B"/>
</svg>
