<?xml version="1.0" encoding="utf-8"?>
<!-- Generator: Adobe Illustrator 26.3.1, SVG Export Plug-In . SVG Version: 6.00 Build 0)  -->
<svg version="1.1" id="Layer_1" xmlns="http://www.w3.org/2000/svg" xmlns:xlink="http://www.w3.org/1999/xlink" x="0px" y="0px"
	 viewBox="0 0 384 384" style="enable-background:new 0 0 384 384;" xml:space="preserve">
<style type="text/css">
	.st0{fill:#FFFFFF;}
</style>
<path class="st0" d="M383.7,341.7c-2.2,8.2-5.7,15.6-12.8,20.8c-5.2,3.8-10.9,6-17.3,6.2c-1.4,0.1-2.7,0.1-4.1,0.1
	c-104.9,0-209.8,0-314.7,0c-7.3,0-14.2-1.3-20.2-5.5C5,356.7,0.4,347.5,0.4,336c0-68.6,0-137.2,0-205.8c0-2.2,0.2-4.5,0.6-6.7
	c2.7-14.7,15-25.7,30-25.9c25.3-0.3,50.6-0.1,76-0.1c1.5,0,3,0,5.1,0c0-2.8-0.1-5.4,0-7.9c0.3-5.5,0.1-11.1,1.3-16.3
	c3.2-13.6,15.3-23.4,29.3-23.5c32.8-0.2,65.6-0.3,98.4,0c17.5,0.2,30.5,14.3,30.8,32.5c0.1,4.9,0,9.9,0,15.2c2,0,3.4,0,4.9,0
	c23.9,0,47.9,0,71.8,0c18.9,0,29.6,8.3,34.6,26.6c0.1,0.2,0.3,0.4,0.4,0.6C383.7,197,383.7,269.3,383.7,341.7z M16.3,220.7
	c0,2.2,0,3.4,0,4.7c0,36.3,0,72.6,0,108.9c0,12.5,6.2,18.7,18.6,18.7c104.8,0,209.5,0,314.3,0c12.4,0,18.6-6.2,18.6-18.6
	c0-36.3,0-72.6,0-108.9c0-1.3,0-2.6,0-4.7c-9.4,5.7-19.1,4.4-28.6,4.4c-36.8,0.1-73.6,0-110.4,0c-1.5,0-2.9,0-4.8,0
	c0,7.9,0.1,15.4,0,22.8c-0.1,6.1-3.2,9.1-9.3,9.2c-15.2,0-30.4,0-45.6,0c-5.7,0-8.8-3.1-9-8.7c-0.1-6.4,0-12.7-0.1-19.1
	c0-1.3-0.1-2.6-0.2-4.2c-1.9,0-3.4,0-4.9,0c-37.2,0-74.3,0-111.5,0C34.4,225.1,25.2,226.1,16.3,220.7z M224,209.2c1.7,0,2.9,0,4.1,0
	c40.5,0,81.1,0,121.6,0c11.6,0,18-6.4,18-18.1c0-19.8,0-39.7,0-59.5c0-11.9-6.4-18.2-18.3-18.2c-104.9,0-209.8,0-314.7,0
	c-12.2,0-18.5,6.2-18.5,18.4c0,19.7,0,39.4,0,59.1c0,12,6.3,18.3,18.2,18.3c40.4,0,80.8,0,121.2,0c1.3,0,2.7,0,4.3,0
	c0-2.6-0.1-4.9,0-7.1c0.2-5.8,3.1-8.8,8.9-8.8c15.5-0.1,30.9-0.1,46.4,0c5.5,0,8.5,3,8.7,8.6C224.1,204.1,224,206.4,224,209.2z
	 M128.4,97.2c42.6,0,84.8,0,127.4,0c0-5.8,0.2-11.4,0-16.9c-0.3-8-6.9-14.7-15.1-14.8c-32.4-0.1-64.8-0.1-97.2,0
	c-7.5,0-14.3,6-15,13.2C128,84.8,128.4,90.9,128.4,97.2z M176.3,241c10.7,0,21,0,31.5,0c0-10.6,0-21,0-31.5c-10.6,0-20.9,0-31.5,0
	C176.3,220,176.3,230.3,176.3,241z"/>
</svg>
