<svg width="22" height="22" viewBox="0 0 22 22" fill="none" xmlns="http://www.w3.org/2000/svg">
<path d="M11.4509 0.968018C11.6269 0.968018 11.7919 0.990018 11.9569 1.04502C11.9679 1.04502 11.9789 1.05602 11.9899 1.05602C13.2659 1.43002 14.1789 2.72802 14.0799 4.01502C13.9699 5.46702 12.9359 6.60002 11.5499 6.78702C11.5389 6.78702 11.5279 6.79802 11.4509 6.82002C11.6159 6.85302 11.7259 6.87502 11.8469 6.89702C13.5519 7.18302 14.9379 8.58002 15.1909 10.285C15.2349 10.571 15.2569 10.857 15.2569 11.143C15.2679 12.056 15.2569 12.958 15.2569 13.882H7.02889C7.02889 13.849 7.01789 13.827 7.01789 13.794C7.01789 12.804 7.00689 11.814 7.02889 10.835C7.07289 8.83302 8.60189 7.13902 10.5819 6.87502C10.6479 6.86402 10.7029 6.85302 10.7579 6.83102C10.0209 6.71002 9.41589 6.38002 8.92089 5.83002C7.49089 4.22402 8.28289 1.61702 10.3619 1.06702C10.5159 1.02302 10.6809 1.00102 10.8459 1.00102C11.0439 0.968018 11.2529 0.968018 11.4509 0.968018Z" fill="#2B2A6B"/>
<path d="M8.19519 17.578C7.83219 17.919 7.49119 18.238 7.16119 18.568C7.11719 18.612 7.08419 18.722 7.09519 18.788C7.21619 19.492 7.34819 20.207 7.46919 20.911C7.46919 20.933 7.48019 20.955 7.48019 21.01C7.40319 20.977 7.34819 20.955 7.29319 20.933C6.66619 20.625 6.03919 20.328 5.41219 20.009C5.30219 19.954 5.21419 19.954 5.10419 20.009C4.42219 20.35 3.74019 20.669 3.04719 21.01C3.04719 20.966 3.03619 20.933 3.03619 20.911C3.15719 20.229 3.27819 19.547 3.41019 18.865C3.44319 18.7 3.41019 18.601 3.28919 18.491C2.73919 17.974 2.20019 17.457 1.61719 16.907C2.01319 16.852 2.36519 16.797 2.71719 16.742C3.13519 16.687 3.55319 16.621 3.98219 16.566C4.10319 16.555 4.15819 16.5 4.21319 16.401C4.52119 15.785 4.84019 15.158 5.14819 14.542C5.18119 14.487 5.21419 14.432 5.24719 14.355C5.29119 14.432 5.32419 14.487 5.34619 14.542C5.66519 15.169 5.97319 15.796 6.30319 16.412C6.33619 16.478 6.42419 16.544 6.50119 16.555C7.02919 16.643 7.55719 16.753 8.09619 16.775C8.49219 16.797 8.88819 16.698 9.28419 16.654C9.39419 16.643 9.50419 16.599 9.61419 16.61C9.95519 16.632 10.1092 16.434 10.2412 16.148C10.5162 15.554 10.8352 14.971 11.1432 14.355C11.1872 14.421 11.2092 14.465 11.2422 14.52C11.5612 15.147 11.8802 15.785 12.1992 16.412C12.2322 16.478 12.3312 16.555 12.4082 16.566C12.9362 16.654 13.4532 16.753 13.9812 16.786C14.3772 16.808 14.7732 16.709 15.1692 16.665C15.3672 16.643 15.5652 16.599 15.7742 16.577C15.8952 16.566 15.9502 16.511 16.0052 16.401C16.3132 15.785 16.6212 15.18 16.9292 14.564C16.9622 14.498 16.9952 14.443 17.0392 14.355C17.0942 14.454 17.1382 14.542 17.1712 14.619C17.4682 15.213 17.7762 15.807 18.0732 16.401C18.1282 16.511 18.1832 16.555 18.3042 16.566C18.9972 16.665 19.6902 16.764 20.3832 16.863C20.4712 16.874 20.5482 16.885 20.6362 16.907C20.6582 16.929 20.6692 16.951 20.6912 16.973C20.6252 17.006 20.5592 17.028 20.5042 17.083C19.9982 17.567 19.4922 18.051 18.9752 18.524C18.8872 18.612 18.8432 18.689 18.8652 18.821C19.0082 19.536 19.1292 20.262 19.2612 21.021C19.1732 20.988 19.1182 20.955 19.0632 20.933C18.4362 20.625 17.8092 20.328 17.1822 20.009C17.0722 19.954 16.9842 19.954 16.8742 20.009C16.2472 20.317 15.6202 20.625 14.9932 20.933C14.9382 20.955 14.8832 20.988 14.7952 21.021C14.8832 20.504 14.9712 20.031 15.0592 19.547C15.1032 19.305 15.1582 19.063 15.1912 18.81C15.2022 18.722 15.1582 18.601 15.1032 18.546C14.7732 18.216 14.4322 17.908 14.0912 17.578C13.7282 17.919 13.3762 18.249 13.0352 18.59C12.9912 18.634 12.9802 18.722 12.9912 18.777C13.1012 19.437 13.2332 20.097 13.3432 20.768C13.3542 20.845 13.3652 20.922 13.3762 21.021C13.2882 20.977 13.2222 20.955 13.1562 20.922C12.5402 20.625 11.9242 20.328 11.3082 20.02C11.1872 19.965 11.0992 19.965 10.9782 20.02C10.3622 20.328 9.73519 20.625 9.10819 20.933C9.05319 20.966 8.98719 20.988 8.89919 21.032C8.96519 20.669 9.02019 20.328 9.08619 19.987C9.15219 19.602 9.21819 19.217 9.29519 18.832C9.31719 18.711 9.29519 18.623 9.19619 18.535C8.86619 18.227 8.53619 17.908 8.19519 17.578Z" fill="#27276C"/>
</svg>
