<svg width="24" height="24" viewBox="0 0 24 24" fill="none" xmlns="http://www.w3.org/2000/svg">
<g clip-path="url(#clip0_1372_4312)">
<path d="M23.4422 8.9281C23.3473 9.3721 23.2049 9.7921 22.932 10.1641C22.3982 10.8841 21.6745 11.2441 20.7729 11.2921C20.7729 11.7241 20.7729 12.1561 20.7729 12.6121C19.5391 12.6121 18.329 12.6121 17.0952 12.6121C17.2019 12.9361 17.3206 13.2361 17.4155 13.5361C17.6884 14.3881 17.0714 15.2641 16.1935 15.2761C15.28 15.2881 14.6394 14.4121 14.9241 13.5241C15.019 13.2361 15.1258 12.9361 15.2326 12.6241C13.9988 12.6241 12.7887 12.6241 11.5786 12.6241C11.5786 11.9521 11.5786 11.2921 11.5786 10.6441C13.2751 10.3561 14.2005 9.3841 14.2005 7.9441C14.1886 6.5161 13.2395 5.5561 11.5786 5.2801C11.5786 4.6321 11.5786 3.9841 11.5786 3.3121C12.0057 3.3121 12.4328 3.3121 12.8717 3.3121C12.9192 2.4481 13.2276 1.7401 13.8801 1.2001C14.3784 0.792101 14.9479 0.600101 15.5885 0.612101C16.9528 0.636101 17.9019 1.6201 18.1748 3.3121C19.0289 3.3121 19.895 3.3121 20.7729 3.3121C20.7729 4.2001 20.7729 5.0761 20.7729 5.9281C21.0932 6.0001 21.3898 6.0361 21.6626 6.1321C22.6117 6.4801 23.2049 7.1641 23.4185 8.1721C23.4303 8.2201 23.4422 8.2681 23.454 8.3161C23.4422 8.5201 23.4422 8.7241 23.4422 8.9281Z" fill="#2B2A6B"/>
<path d="M0.972801 13.9319C2.19475 13.9319 3.42856 13.9319 4.6861 13.9319C4.57933 13.6199 4.47255 13.3199 4.37765 13.0319C4.10478 12.1679 4.70983 11.2919 5.59959 11.2799C6.50122 11.2679 7.14186 12.1439 6.869 13.0199C6.77409 13.3199 6.66731 13.6199 6.54868 13.9319C7.78249 13.9319 8.98071 13.9319 10.2027 13.9319C10.2027 14.5919 10.2027 15.2519 10.2027 15.9239C9.33662 15.9719 8.60108 16.3199 8.07908 17.0519C7.69944 17.5679 7.53336 18.1679 7.59267 18.8039C7.68758 20.0519 8.66039 21.1919 10.2145 21.2639C10.2145 21.9359 10.2145 22.6199 10.2145 23.2919C10.1315 23.2919 10.0366 23.2919 9.95352 23.2919C9.91793 23.2799 9.88234 23.2559 9.85861 23.2559C8.64853 23.1359 7.50963 22.7999 6.43004 22.2359C3.73701 20.8079 1.9812 18.6119 1.22194 15.6239C1.1033 15.1679 1.04398 14.6879 0.960938 14.2199C0.972801 14.1119 0.972801 14.0279 0.972801 13.9319Z" fill="#27276C"/>
<path d="M11.5434 23.2801C11.5434 22.0441 11.5434 20.7961 11.5434 19.5241C11.2349 19.6321 10.9383 19.7401 10.6417 19.8361C9.82313 20.1001 8.93337 19.4761 8.90964 18.6241C8.88591 17.7361 9.78754 17.0641 10.6299 17.3281C10.9264 17.4241 11.223 17.5321 11.5315 17.6401C11.5315 16.4041 11.5315 15.1801 11.5315 13.9561C12.1958 13.9561 12.8365 13.9561 13.5008 13.9561C13.5483 14.8321 13.8923 15.5521 14.6042 16.0801C15.1143 16.4641 15.6956 16.6321 16.3362 16.5841C17.5107 16.5001 18.7089 15.5881 18.792 13.9441C19.4208 13.9441 20.0495 13.9441 20.7376 13.9441C20.6664 14.4121 20.6308 14.8921 20.5241 15.3361C19.6936 18.8761 17.6056 21.3361 14.2601 22.6801C13.5127 22.9801 12.7297 23.1601 11.923 23.2321C11.8874 23.2321 11.8399 23.2561 11.8043 23.2681C11.7213 23.2801 11.6383 23.2801 11.5434 23.2801Z" fill="#27276C"/>
<path d="M0.972656 12.3359C1.0557 11.8799 1.11502 11.3999 1.23365 10.9559C2.04038 7.81194 3.92668 5.57994 6.8214 4.19994C7.80607 3.73194 8.85007 3.46794 9.94151 3.35994C10.0246 3.34794 10.1195 3.34794 10.2262 3.33594C10.2262 4.54794 10.2262 5.75994 10.2262 7.00794C10.5228 6.89994 10.7838 6.81594 11.0448 6.70794C11.4601 6.55194 11.8634 6.58794 12.243 6.82794C12.8125 7.19994 13.0142 7.85994 12.7532 8.44794C12.4803 9.05994 11.7804 9.39594 11.1516 9.19194C10.855 9.09594 10.5584 8.98794 10.2381 8.86794C10.2381 10.1159 10.2381 11.3399 10.2381 12.5639C9.57374 12.5639 8.93311 12.5639 8.28061 12.5639C8.23316 11.6639 7.87725 10.9199 7.12985 10.3919C6.61971 10.0319 6.0384 9.86394 5.40963 9.92394C4.17582 10.0439 3.06064 11.0279 2.98946 12.5759C2.3251 12.5759 1.64888 12.5759 0.98452 12.5759C0.972656 12.5159 0.972656 12.4319 0.972656 12.3359Z" fill="#27276C"/>
</g>
<defs>
<clipPath id="clip0_1372_4312">
<rect width="24" height="24" fill="white"/>
</clipPath>
</defs>
</svg>
