<svg width="194" height="168" viewBox="0 0 194 168" fill="none" xmlns="http://www.w3.org/2000/svg">
<g clip-path="url(#clip0_2140_5233)">
<path d="M181.772 51.9766C181.401 23.1697 166.722 0 148.666 0C137.816 0 128.184 8.36763 122.144 21.2976L129.245 39.1356L119.431 28.1407C116.956 35.5802 115.551 44.0739 115.551 53.0947C115.531 59.9324 116.372 66.7453 118.054 73.3724L137.085 70.3008L120.054 79.8354C125.602 95.0647 135.744 105.466 147.433 106.152L145.18 167.51L152.152 167.759L150.662 106.091C167.308 104.504 180.642 83.2046 181.71 56.5494L170.207 50.1098L181.772 51.9766Z" fill="#F0F0F0"/>
<path d="M41.1351 88.9314H39.4805V101.291H41.1351V88.9314Z" fill="#27276C"/>
<path d="M47.0758 94.4204L45.864 95.5503L40.3104 89.5673L34.7548 95.5503L33.543 94.4204L40.3104 87.135L47.0758 94.4204Z" fill="#27276C"/>
<path d="M39.8504 107.502C37.2324 107.502 34.6731 106.725 32.4963 105.269C30.3194 103.813 28.6228 101.743 27.6209 99.3216C26.619 96.9 26.3569 94.2354 26.8676 91.6647C27.3784 89.094 28.6391 86.7327 30.4904 84.8793C32.3416 83.026 34.7002 81.7638 37.268 81.2524C39.8357 80.7411 42.4973 81.0035 44.9161 82.0066C47.3348 83.0096 49.4022 84.7082 50.8567 86.8875C52.3112 89.0669 53.0876 91.6291 53.0876 94.2501C53.0836 97.7637 51.6877 101.132 49.2061 103.617C46.7245 106.101 43.3599 107.498 39.8504 107.502ZM39.8504 82.6543C37.5596 82.6543 35.3203 83.3344 33.4155 84.6086C31.5108 85.8828 30.0262 87.6938 29.1496 89.8126C28.2729 91.9315 28.0436 94.263 28.4905 96.5124C28.9374 98.7617 30.0405 100.828 31.6604 102.45C33.2802 104.071 35.344 105.176 37.5908 105.623C39.8376 106.071 42.1664 105.841 44.2829 104.963C46.3993 104.086 48.2082 102.599 49.4809 100.692C50.7536 98.7855 51.4329 96.5436 51.4329 94.2501C51.4295 91.1758 50.2081 88.2284 48.0367 86.0545C45.8653 83.8806 42.9212 82.6578 39.8504 82.6543Z" fill="#27276C"/>
<path d="M54.2385 63.72H53.3262V70.5342H54.2385V63.72Z" fill="#E4E4E4"/>
<path d="M57.512 66.7462L56.844 67.3693L53.7819 64.0702L50.719 67.3693L50.0508 66.7462L53.7819 62.7292L57.512 66.7462Z" fill="#E4E4E4"/>
<path d="M53.5288 73.9591C52.0853 73.9591 50.6743 73.5305 49.4741 72.7277C48.2739 71.9248 47.3384 70.7837 46.786 69.4485C46.2336 68.1134 46.0891 66.6443 46.3707 65.2269C46.6523 63.8096 47.3474 62.5076 48.3681 61.4858C49.3888 60.4639 50.6892 59.768 52.105 59.4861C53.5207 59.2042 54.9881 59.3489 56.3217 59.9019C57.6553 60.4549 58.7952 61.3914 59.5971 62.593C60.3991 63.7946 60.8271 65.2073 60.8271 66.6524C60.8249 68.5896 60.0553 70.4468 58.6871 71.8166C57.3188 73.1864 55.4637 73.9569 53.5288 73.9591ZM53.5288 60.2591C52.2657 60.2591 51.0311 60.634 49.9809 61.3365C48.9307 62.039 48.1122 63.0375 47.6289 64.2058C47.1455 65.374 47.0191 66.6595 47.2655 67.8997C47.5119 69.1399 48.1201 70.279 49.0132 71.1732C49.9063 72.0673 51.0442 72.6762 52.2829 72.9229C53.5217 73.1696 54.8057 73.043 55.9726 72.5591C57.1395 72.0752 58.1368 71.2557 58.8386 70.2044C59.5403 69.153 59.9148 67.9169 59.9148 66.6524C59.9129 64.9574 59.2395 63.3323 58.0423 62.1337C56.8451 60.9352 55.2219 60.261 53.5288 60.2591Z" fill="#E4E4E4"/>
<path d="M25.8576 46.8589H24.9453V53.6731H25.8576V46.8589Z" fill="#E4E4E4"/>
<path d="M29.1314 49.8853L28.4632 50.5084L25.401 47.2096L22.3381 50.5084L21.6699 49.8853L25.401 45.8687L29.1314 49.8853Z" fill="#E4E4E4"/>
<path d="M25.1479 57.0982C23.7045 57.0982 22.2934 56.6697 21.0932 55.8668C19.893 55.064 18.9576 53.9228 18.4052 52.5877C17.8528 51.2526 17.7082 49.7834 17.9898 48.3661C18.2715 46.9487 18.9665 45.6468 19.9872 44.6249C21.0079 43.6031 22.3084 42.9072 23.7241 42.6253C25.1398 42.3433 26.6073 42.488 27.9409 43.0411C29.2745 43.5941 30.4143 44.5306 31.2163 45.7322C32.0182 46.9338 32.4462 48.3464 32.4462 49.7915C32.4441 51.7287 31.6744 53.5859 30.3062 54.9557C28.938 56.3255 27.0829 57.096 25.1479 57.0982ZM25.1479 43.3982C23.8849 43.3982 22.6502 43.7732 21.6 44.4757C20.5499 45.1782 19.7314 46.1767 19.248 47.3449C18.7647 48.5132 18.6382 49.7987 18.8846 51.0388C19.131 52.279 19.7392 53.4182 20.6323 54.3123C21.5254 55.2065 22.6633 55.8154 23.9021 56.0621C25.1408 56.3087 26.4249 56.1821 27.5917 55.6982C28.7586 55.2143 29.756 54.3949 30.4577 53.3435C31.1594 52.2921 31.5339 51.056 31.5339 49.7916C31.532 48.0965 30.8586 46.4715 29.6614 45.2729C28.4642 44.0743 26.841 43.4001 25.1479 43.3982Z" fill="#E4E4E4"/>
<path d="M76.6303 130.653C76.4266 130.443 76.2698 130.192 76.1705 129.917C76.0712 129.641 76.0316 129.348 76.0543 129.056C76.077 128.764 76.1615 128.48 76.3022 128.223C76.443 127.966 76.6367 127.743 76.8705 127.566C76.9701 127.488 77.0758 127.418 77.1865 127.357L75.4336 119.795L79.5104 121.261L80.5499 128.217C80.7943 128.652 80.8727 129.161 80.7706 129.65C80.6685 130.138 80.3929 130.573 79.9948 130.874C79.5043 131.256 78.8909 131.444 78.2708 131.403C77.6507 131.363 77.0671 131.096 76.6303 130.653Z" fill="#FFB8B8"/>
<path d="M76.1667 124.753L76.1448 124.679C73.941 117.2 71.6628 109.469 68.8815 101.051L68.8633 100.995L68.9246 100.963C70.4749 100.133 72.8049 100.188 74.3445 101.091C75.7689 101.927 76.489 103.543 76.0996 105.026L78.1282 114.731C78.9529 117.903 79.8064 121.187 80.6222 124.424L80.6453 124.516L80.519 124.523C79.0337 124.61 77.4992 124.7 76.2697 124.749L76.1667 124.753Z" fill="#CCCCCC"/>
<path d="M57.4384 165.006H54.5477L53.1719 154.776H57.4384V165.006Z" fill="#FFB8B8"/>
<path d="M58.1745 167.577H48.8535V167.469C48.8535 165.634 50.4811 164.14 52.4816 164.14H58.1745V167.577Z" fill="#2F2E41"/>
<path d="M84.6768 162.819L81.9224 163.624L77.2266 154.26L81.2915 153.071L84.6768 162.819Z" fill="#FFB8B8"/>
<path d="M77.3499 167.659L77.3142 167.556C76.7068 165.807 77.7634 163.931 79.6695 163.374L85.0936 161.788L86.2309 165.063L77.3499 167.659Z" fill="#2F2E41"/>
<path d="M70.0471 94.1969C73.2455 94.1969 75.8383 91.8179 75.8383 88.8833C75.8383 85.9488 73.2455 83.5698 70.0471 83.5698C66.8487 83.5698 64.2559 85.9488 64.2559 88.8833C64.2559 91.8179 66.8487 94.1969 70.0471 94.1969Z" fill="#FFB8B8"/>
<path d="M72.6458 87.8985C72.6787 85.7554 71.7011 83.6329 70.1897 82.5658C69.459 82.0458 68.5814 81.7731 67.6851 81.7877C66.7887 81.8022 65.9204 82.1031 65.2069 82.6466C63.7188 83.7623 62.7871 85.9158 62.866 88.0571C66.2002 88.0658 69.5344 88.0745 72.6458 87.8985Z" fill="#2F2E41"/>
<path d="M59.0883 161.713L58.9724 161.703C56.4575 161.476 53.857 161.243 51.3993 161.216L51.2656 161.214L51.2839 161.093C51.8662 157.223 52.113 153.201 52.3517 149.31C52.5875 145.469 52.8311 141.497 53.3988 137.725C53.639 136.715 53.8731 135.716 54.1063 134.722C56.0364 126.492 57.8594 118.718 61.6225 111.023L61.6581 110.95L61.7443 110.959C65.2751 111.351 68.6678 112.533 71.2974 114.287L71.3483 114.321L71.3458 114.379C71.2734 115.563 71.2649 116.751 71.3203 117.936C72.5036 119.411 73.2957 121.162 73.6236 123.026C73.9514 124.889 73.8042 126.806 73.1958 128.597C74.2312 131.772 75.3016 135.054 76.3938 138.292C79.0461 144.963 81.7906 151.867 84.6039 158.866L84.6501 158.98L84.5203 159.008C82.4961 159.444 80.408 159.894 78.3481 160.068L78.2703 160.075L78.2334 160.012C73.0092 151.106 68.7345 141.676 65.4798 131.876C64.7768 133.843 63.7641 135.618 62.783 137.338C61.8487 138.894 61.0229 140.514 60.3115 142.184C59.8772 145.456 59.762 149 59.6508 152.427C59.5455 155.668 59.4461 158.729 59.1011 161.607L59.0883 161.713Z" fill="#2F2E41"/>
<path d="M68.0691 82.664C70.5793 82.1677 73.356 82.6398 75.3274 84.1938C77.2987 85.7477 78.2998 88.436 77.4899 90.7415C76.6801 93.0471 73.9305 94.6692 71.4444 94.0739C72.1565 92.2323 71.3551 89.9713 69.6141 88.9105C67.5496 87.6526 66.9812 84.6493 68.0691 82.664Z" fill="#2F2E41"/>
<path d="M71.117 114.519L71.0252 114.48C67.8229 113.14 64.6828 112.111 61.7408 111.173L61.6506 111.155L61.6504 110.915L61.7089 110.934C61.7213 110.909 61.7351 110.88 61.7491 110.852C61.7892 110.771 61.8166 110.715 61.84 110.678L61.8393 110.678C62.0846 110.219 62.2796 109.776 62.4681 109.348C62.6627 108.905 62.8635 108.449 63.123 107.966C62.5024 107.417 62.0707 106.685 61.8896 105.876C61.7086 105.067 61.7873 104.221 62.1147 103.46C62.7646 102.046 64.4217 100.946 66.1629 100.763C66.8009 99.1515 68.2224 95.7655 68.2224 95.7655C68.2224 95.7655 71.2118 95.6901 72.414 95.5502L72.4342 95.5479L72.4541 95.5519C75.0786 96.0795 77.2698 98.3582 77.7825 101.093C78.2152 103.401 77.5581 106.042 75.9321 108.528C75.0927 109.75 74.1702 110.913 73.1711 112.008C72.4388 112.849 71.7471 113.642 71.1726 114.441L71.117 114.519Z" fill="#CCCCCC"/>
<path d="M76.9135 85.8128C75.1562 85.5722 73.7765 83.9241 73.9763 82.3043C74.176 80.6845 75.9222 79.3609 77.6936 79.4865C79.465 79.6122 80.9687 81.1663 80.8947 82.795C80.8207 84.4237 79.157 86.1201 76.9135 85.8128Z" fill="#2F2E41"/>
<path d="M76.6384 84.7625C74.8812 84.5218 73.5015 82.8737 73.7012 81.2539C73.8379 80.1459 74.6985 79.1771 75.7955 78.7153C74.3784 78.9999 73.1588 80.1329 72.9939 81.4703C72.7941 83.0901 74.1738 84.7382 75.931 84.9788C76.5838 85.0734 77.25 84.9879 77.8578 84.7316C77.4558 84.8089 77.0438 84.8193 76.6384 84.7625Z" fill="#2F2E41"/>
<path d="M42.5539 113.314C42.8988 112.799 43.422 112.43 44.0226 112.279C44.6232 112.127 45.2586 112.204 45.8062 112.494C45.9182 112.553 46.0254 112.621 46.1268 112.697L53.3134 108.661L53.1657 112.676L46.3638 115.893C45.9797 116.255 45.4929 116.488 44.9706 116.561C44.4483 116.633 43.9164 116.542 43.4485 116.299C43.1829 116.173 42.9466 115.994 42.7549 115.771C42.5633 115.548 42.4207 115.288 42.3363 115.006C42.2519 114.725 42.2277 114.429 42.2652 114.137C42.3027 113.846 42.401 113.565 42.5539 113.314Z" fill="#FFB8B8"/>
<path d="M48.4629 110.948L48.5319 110.905C55.4833 106.506 62.6693 101.959 70.3932 96.7485L70.4438 96.7144L70.498 96.7565C71.8674 97.821 72.587 99.8552 72.1718 101.488C71.7877 102.999 70.3666 104.16 68.7124 104.318L59.4157 109.306C56.4307 111.076 53.3409 112.909 50.2856 114.693L50.199 114.744L50.1493 114.637C49.5654 113.381 48.962 112.083 48.5015 111.036L48.4629 110.948Z" fill="#CCCCCC"/>
<path d="M193.749 168H0.250646C0.184171 168 0.120418 167.973 0.0734123 167.926C0.0264071 167.879 0 167.816 0 167.749C0 167.682 0.0264071 167.619 0.0734123 167.572C0.120418 167.524 0.184171 167.498 0.250646 167.498H193.749C193.816 167.498 193.88 167.524 193.927 167.572C193.974 167.619 194 167.682 194 167.749C194 167.816 193.974 167.879 193.927 167.926C193.88 167.973 193.816 168 193.749 168Z" fill="#CACACA"/>
</g>
<defs>
<clipPath id="clip0_2140_5233">
<rect width="194" height="168" fill="white"/>
</clipPath>
</defs>
</svg>
