<svg width="170" height="149" viewBox="0 0 170 149" fill="none" xmlns="http://www.w3.org/2000/svg">
<g clip-path="url(#clip0_2065_5573)">
<path d="M168.646 146.869C168.349 147.283 168.049 147.694 167.752 148.102C166.899 148.689 165.886 149.002 164.849 149H5.15232C4.1619 149.001 3.19247 148.715 2.36142 148.178C2.08561 147.815 1.81292 147.45 1.53711 147.084L1.81291 146.933L82.6584 102.239C83.3757 101.843 84.1818 101.635 85.0016 101.634C85.8213 101.633 86.628 101.839 87.3463 102.233L168.373 146.718L168.646 146.869Z" fill="#E3186D"/>
<path d="M164.848 52.8905L94.7823 12.5335C91.8354 10.836 88.4926 9.94162 85.0894 9.93994C81.6863 9.93827 78.3427 10.8294 75.394 12.5239L5.15152 52.8905C3.78584 52.8924 2.47666 53.4344 1.51098 54.3975C0.545303 55.3606 0.00193194 56.6664 0 58.0284V143.862C0.00159116 145.224 0.54485 146.53 1.5106 147.493C2.47635 148.457 3.78574 148.998 5.15152 149H164.848C166.214 148.998 167.523 148.456 168.489 147.493C169.454 146.53 169.998 145.224 170 143.862V58.0284C169.998 56.6664 169.455 55.3606 168.489 54.3975C167.523 53.4344 166.214 52.8924 164.848 52.8905ZM169.394 143.862C169.391 145.064 168.911 146.215 168.059 147.065C167.208 147.914 166.053 148.393 164.848 148.396H5.15152C3.94665 148.393 2.79176 147.915 1.93979 147.065C1.08782 146.216 0.608228 145.064 0.606061 143.862V58.0284C0.607527 56.8265 1.08689 55.6743 1.93901 54.8244C2.79113 53.9745 3.94644 53.4964 5.15152 53.495L75.394 13.1284C78.3427 11.4339 81.6863 10.5427 85.0894 10.5444C88.4926 10.5461 91.8354 11.4405 94.7823 13.1379L164.848 53.495C166.054 53.4964 167.209 53.9745 168.061 54.8244C168.913 55.6743 169.392 56.8265 169.394 58.0284V143.862Z" fill="#3F3D56"/>
<path d="M85.0899 101.453C84.5621 101.455 84.0379 101.367 83.5396 101.194L83.4479 101.161L83.4294 100.958C83.3722 100.986 83.3146 101.013 83.2569 101.038L83.196 101.065L83.1349 101.038C83.0072 100.982 82.8804 100.919 82.7581 100.85L26.9688 69.5834V5.7424C26.9704 4.26001 27.5616 2.83882 28.6126 1.79061C29.6635 0.742401 31.0885 0.152787 32.5748 0.151123H137.423C138.91 0.152787 140.335 0.742401 141.386 1.79061C142.437 2.83882 143.028 4.26001 143.029 5.7424V69.665L142.952 69.7084L87.4218 100.85C86.7089 101.247 85.9061 101.454 85.0899 101.453Z" fill="white"/>
<path d="M85.091 101.604C84.5461 101.606 84.0049 101.515 83.4904 101.336L83.307 101.272L83.2991 101.185L83.197 101.23L83.0751 101.177C82.9428 101.119 82.8116 101.053 82.6848 100.982L26.8184 69.672V5.74239C26.8201 4.21994 27.4272 2.76035 28.5066 1.68381C29.586 0.607279 31.0495 0.00172305 32.5759 0H137.424C138.951 0.00172943 140.414 0.607285 141.494 1.68382C142.573 2.76035 143.18 4.21995 143.182 5.74239V69.7534L87.4971 100.982C86.7616 101.391 85.9332 101.605 85.091 101.604ZM83.8748 100.825C84.9889 101.144 86.1843 101.011 87.2004 100.455L142.576 69.3998V5.74239C142.574 4.3802 142.031 3.07424 141.065 2.11102C140.1 1.1478 138.79 0.605996 137.424 0.604463H32.5759C31.2101 0.60599 29.9007 1.1478 28.935 2.11102C27.9692 3.07423 27.426 4.3802 27.4244 5.74239V69.3181L31.0576 71.3531L82.982 100.455C83.0527 100.495 83.1244 100.532 83.1972 100.567C83.27 100.532 83.3416 100.495 83.4121 100.455L83.8202 100.226L83.8748 100.825Z" fill="#3F3D56"/>
<path d="M168.658 55.1209L146.667 67.4519L142.879 69.5766L87.349 100.718C86.6588 101.102 85.8815 101.303 85.0913 101.302C84.5807 101.303 84.0736 101.218 83.5914 101.051C83.4573 101.008 83.3257 100.958 83.1974 100.9C83.0732 100.845 82.9521 100.785 82.8338 100.718L30.9096 71.6167L27.1217 69.495L1.38837 55.0725C1.31839 55.0325 1.26707 54.9666 1.24552 54.8891C1.22397 54.8116 1.23393 54.7287 1.27325 54.6585C1.31268 54.5888 1.37822 54.5376 1.45548 54.516C1.53274 54.4945 1.6154 54.5044 1.68533 54.5436L27.1217 68.7999L30.9096 70.9215L83.1308 100.19C83.304 100.287 83.4843 100.37 83.6701 100.44C83.749 100.471 83.8308 100.498 83.9126 100.522C84.4313 100.681 84.9769 100.733 85.5164 100.676C86.0559 100.619 86.5783 100.453 87.052 100.19L142.879 68.8845L146.667 66.7598L168.361 54.595C168.396 54.5755 168.434 54.5631 168.473 54.5583C168.513 54.5536 168.553 54.5566 168.591 54.5673C168.629 54.578 168.665 54.596 168.696 54.6205C168.728 54.6449 168.754 54.6753 168.773 54.7098C168.793 54.7444 168.805 54.7824 168.81 54.8217C168.815 54.8611 168.812 54.901 168.801 54.9391C168.79 54.9773 168.772 55.013 168.748 55.0442C168.723 55.0754 168.693 55.1014 168.658 55.1209Z" fill="#3F3D56"/>
<path d="M49.7196 19.9473H41.2348C40.5918 19.9473 39.9752 19.6925 39.5206 19.2391C39.066 18.7857 38.8105 18.1707 38.8105 17.5294C38.8105 16.8882 39.066 16.2732 39.5206 15.8197C39.9752 15.3663 40.5918 15.1116 41.2348 15.1116H49.7196C50.3626 15.1116 50.9792 15.3663 51.4338 15.8197C51.8885 16.2732 52.1439 16.8882 52.1439 17.5294C52.1439 18.1707 51.8885 18.7857 51.4338 19.2391C50.9792 19.6925 50.3626 19.9473 49.7196 19.9473Z" fill="#E4186D"/>
<path d="M59.7196 28.1076H41.2348C40.5918 28.1076 39.9752 27.8528 39.5206 27.3994C39.066 26.9459 38.8105 26.331 38.8105 25.6897C38.8105 25.0484 39.066 24.4335 39.5206 23.98C39.9752 23.5266 40.5918 23.2719 41.2348 23.2719H59.7196C60.3626 23.2719 60.9792 23.5266 61.4338 23.98C61.8885 24.4335 62.1439 25.0484 62.1439 25.6897C62.1439 26.331 61.8885 26.9459 61.4338 27.3994C60.9792 27.8528 60.3626 28.1076 59.7196 28.1076Z" fill="#E6E6E6"/>
<path d="M111.364 49.8682H58.9399C58.2969 49.8682 57.6803 49.6134 57.2257 49.16C56.771 48.7066 56.5156 48.0916 56.5156 47.4503C56.5156 46.8091 56.771 46.1941 57.2257 45.7406C57.6803 45.2872 58.2969 45.0325 58.9399 45.0325H111.364C112.007 45.0325 112.624 45.2872 113.078 45.7406C113.533 46.1941 113.788 46.8091 113.788 47.4503C113.788 48.0916 113.533 48.7066 113.078 49.16C112.624 49.6134 112.007 49.8682 111.364 49.8682Z" fill="#E4186D"/>
<path d="M116.212 59.2373H53.7875C53.1446 59.2373 52.528 58.9826 52.0733 58.5291C51.6187 58.0757 51.3633 57.4607 51.3633 56.8195C51.3633 56.1782 51.6187 55.5632 52.0733 55.1098C52.528 54.6563 53.1446 54.4016 53.7875 54.4016H116.212C116.855 54.4016 117.471 54.6563 117.926 55.1098C118.381 55.5632 118.636 56.1782 118.636 56.8195C118.636 57.4607 118.381 58.0757 117.926 58.5291C117.471 58.9826 116.855 59.2373 116.212 59.2373Z" fill="#E6E6E6"/>
<path d="M116.212 68.3042H53.7875C53.1446 68.3042 52.528 68.0495 52.0733 67.596C51.6187 67.1426 51.3633 66.5276 51.3633 65.8864C51.3633 65.2451 51.6187 64.6301 52.0733 64.1767C52.528 63.7232 53.1446 63.4685 53.7875 63.4685H116.212C116.855 63.4685 117.471 63.7232 117.926 64.1767C118.381 64.6301 118.636 65.2451 118.636 65.8864C118.636 66.5276 118.381 67.1426 117.926 67.596C117.471 68.0495 116.855 68.3042 116.212 68.3042Z" fill="#E6E6E6"/>
</g>
<defs>
<clipPath id="clip0_2065_5573">
<rect width="170" height="149" fill="white"/>
</clipPath>
</defs>
</svg>
