<svg width="63" height="42" viewBox="0 0 63 42" fill="none" xmlns="http://www.w3.org/2000/svg">
<path d="M54.2196 13.1709H50.9191C49.9213 13.1709 49.1538 13.4779 48.6933 14.4757L42.3994 28.8288H46.8512C46.8512 28.8288 47.6187 26.9099 47.7722 26.4494C48.2327 26.4494 52.6077 26.4494 53.2218 26.4494C53.3753 26.9867 53.7591 28.752 53.7591 28.752H57.7503L54.2196 13.1709ZM49.0003 23.2257C49.3841 22.3047 50.6889 18.8507 50.6889 18.8507C50.6889 18.9275 51.0727 17.9297 51.2262 17.3924L51.5332 18.774C51.5332 18.774 52.3775 22.5349 52.531 23.3025H49.0003V23.2257Z" fill="#3362AB"/>
<path d="M42.7059 23.6863C42.7059 26.91 39.7892 29.0591 35.2607 29.0591C33.3419 29.0591 31.4998 28.6753 30.502 28.2148L31.116 24.6841L31.6533 24.9144C33.0348 25.5284 33.9559 25.7587 35.6445 25.7587C36.8726 25.7587 38.1774 25.2981 38.1774 24.2236C38.1774 23.5328 37.6401 23.0723 35.9515 22.3047C34.3397 21.5372 32.1905 20.3091 32.1905 18.0832C32.1905 15.013 35.184 12.9407 39.4055 12.9407C41.0173 12.9407 42.3989 13.2477 43.2432 13.6315L42.6291 17.0087L42.3221 16.7016C41.5546 16.3946 40.5568 16.0876 39.0984 16.0876C37.4866 16.1644 36.7191 16.8551 36.7191 17.4692C36.7191 18.16 37.6401 18.6973 39.0984 19.388C41.5546 20.5394 42.7059 21.8442 42.7059 23.6863Z" fill="#3362AB"/>
<path d="M5.25 13.3246L5.32675 13.0176H11.9276C12.8487 13.0176 13.5395 13.3246 13.7697 14.3224L15.2281 21.2303C13.7697 17.5461 10.3925 14.5527 5.25 13.3246Z" fill="#F9B50B"/>
<path d="M24.5155 13.171L17.8379 28.7521H13.3094L9.47168 15.7039C12.2348 17.4692 14.5375 20.2324 15.3818 22.1513L15.8423 23.7631L19.987 13.0942H24.5155V13.171Z" fill="#3362AB"/>
<path d="M26.2811 13.0942H30.5026L27.8162 28.7521H23.5947L26.2811 13.0942Z" fill="#3362AB"/>
</svg>
