<svg width="20" height="20" viewBox="0 0 20 20" fill="none" xmlns="http://www.w3.org/2000/svg">
<path d="M19.8196 18.1803C19.7377 18.5492 19.6065 18.8852 19.3114 19.1393C18.6311 19.7295 17.7541 19.6885 17.0901 19.0246C15.7131 17.6475 14.336 16.2705 12.959 14.8934C12.9098 14.8443 12.8688 14.7705 12.8524 14.7377C12.336 15.0082 11.8852 15.2869 11.4098 15.4836C9.30324 16.3607 7.19669 16.3443 5.11472 15.4016C3.55734 14.6967 2.37702 13.5738 1.54915 12.0902C0.803246 10.7459 0.49177 9.30328 0.614721 7.77049C0.762262 5.86885 1.50816 4.2377 2.83603 2.89344C4.09833 1.60656 5.64751 0.844263 7.44259 0.639345C9.05734 0.45082 10.5819 0.737705 12.0164 1.5C13.2049 2.13934 14.1721 3.03279 14.9016 4.17213C15.6557 5.35246 16.0655 6.64754 16.1147 8.04098C16.1721 9.54918 15.8196 10.9672 15.0491 12.2705C14.959 12.418 14.9672 12.5 15.0901 12.6311C16.4262 13.959 17.7541 15.2951 19.0901 16.6229C19.4262 16.959 19.7213 17.3115 19.8114 17.7951C19.8196 17.9262 19.8196 18.0492 19.8196 18.1803ZM13.6147 8.35246C13.6229 5.46721 11.2459 3.09016 8.36062 3.09836C5.46718 3.10656 3.12292 5.44262 3.10652 8.33606C3.09013 11.2213 5.45079 13.5902 8.35243 13.5984C11.2377 13.6066 13.6065 11.2459 13.6147 8.35246Z" fill="#999999"/>
</svg>
