<svg width="21" height="21" viewBox="0 0 21 21" fill="none" xmlns="http://www.w3.org/2000/svg">
<path d="M0.682805 18.1528C0.798756 17.5601 1.18526 17.1478 1.59753 16.7356C3.63311 14.7129 5.65581 12.6902 7.67851 10.6675C7.73004 10.6159 7.80734 10.5773 7.87176 10.5386C7.78158 10.4356 7.73004 10.3969 7.67851 10.3454C5.56563 8.21963 3.43986 6.09386 1.32698 3.98098C0.644155 3.29815 0.592621 2.21595 1.21103 1.48159C1.82943 0.747233 2.91164 0.605516 3.69753 1.1595C3.8006 1.22392 3.89078 1.3141 3.96808 1.39141C6.06808 3.47852 8.16808 5.56564 10.2681 7.65276C10.3325 7.71717 10.384 7.78159 10.4613 7.87177C10.5257 7.80736 10.5902 7.75582 10.6417 7.70429C12.7288 5.61717 14.8159 3.53006 16.903 1.44294C17.9337 0.412264 19.6215 0.81165 20.0208 2.17729C20.227 2.86012 20.0724 3.49141 19.557 4.00674C17.4699 6.10674 15.3699 8.19386 13.2828 10.281C13.2313 10.3325 13.1669 10.384 13.0896 10.4485C13.1669 10.5258 13.2313 10.5902 13.2957 10.6546C15.4215 12.7675 17.5343 14.8675 19.6601 16.9804C20.0595 17.3798 20.2785 17.8436 20.2656 18.4104C20.2527 19.3767 19.4669 20.1497 18.5006 20.1626C17.8435 20.1755 17.3024 19.9564 16.8386 19.4926C14.7773 17.4055 12.6902 15.3442 10.6159 13.2699C10.5644 13.2184 10.5257 13.154 10.4227 13.0251C10.3583 13.1282 10.3196 13.2055 10.2681 13.2571C8.1552 15.3699 6.04231 17.4828 3.94231 19.5957C3.29814 20.2399 2.19017 20.3558 1.41716 19.8663C1.01777 19.6086 0.81164 19.235 0.708572 18.7969C0.695689 18.7583 0.682805 18.7196 0.669922 18.6681C0.682805 18.5135 0.682805 18.3331 0.682805 18.1528Z" fill="#434343"/>
</svg>
