<svg width="33" height="34" viewBox="0 0 33 34" fill="none" xmlns="http://www.w3.org/2000/svg">
<path d="M1.06567 26.4651C1.26333 26.0224 1.59849 25.8542 2.06255 25.8896C2.45786 25.9161 2.86177 25.8984 3.30005 25.8984C3.30005 25.7568 3.30005 25.6417 3.30005 25.5266C3.30005 23.8797 3.30005 22.2417 3.30005 20.5948C3.30005 19.9573 3.58364 19.6651 4.21099 19.6651C5.50005 19.6651 6.7977 19.6651 8.08677 19.6651C8.7227 19.6651 9.0063 19.9573 9.0063 20.6213C9.0063 22.2505 9.0063 23.8885 9.0063 25.5177C9.0063 25.6328 9.0063 25.7391 9.0063 25.8896C9.47896 25.8896 9.91724 25.8984 10.3555 25.8896C10.7079 25.8807 10.9915 25.987 11.1547 26.3323C11.3266 26.6865 11.2149 26.9875 10.9829 27.2797C9.59067 29.0328 8.21567 30.8036 6.82349 32.5568C6.69458 32.7161 6.49692 32.8224 6.33364 32.9552C6.21333 32.9552 6.09302 32.9552 5.9727 32.9552C5.79224 32.7958 5.57739 32.663 5.4313 32.4859C4.77817 31.6802 4.14224 30.8656 3.49771 30.0422C2.6813 28.9974 1.88208 27.9526 1.06567 26.9078C1.06567 26.7573 1.06567 26.6068 1.06567 26.4651Z" fill="black"/>
<path d="M12.564 1.0094C12.7015 1.0094 12.796 1.0094 12.8991 1.0094C17.1702 1.0094 21.4327 1.0094 25.7038 1.0094C26.4515 1.0094 26.7952 1.36357 26.7952 2.13388C26.7952 4.15263 26.7952 6.17138 26.7952 8.18127C26.7952 8.28752 26.7952 8.38492 26.7952 8.52659C26.6405 8.52659 26.5116 8.52659 26.3827 8.52659C23.0398 8.52659 19.7054 8.52659 16.3624 8.52659C14.5147 8.52659 13.0108 9.79273 12.6585 11.6433C12.6069 11.9 12.5897 12.1568 12.5897 12.4224C12.5812 15.1495 12.5812 17.8677 12.5897 20.5948C12.5983 22.525 13.8272 24.0657 15.6405 24.4287C15.9155 24.4818 16.1991 24.4907 16.4827 24.4907C19.7827 24.4907 23.0827 24.4907 26.3827 24.4907C26.503 24.4907 26.6233 24.4907 26.7952 24.4907C26.7952 24.6235 26.7952 24.7297 26.7952 24.836C26.7952 26.5448 26.7952 28.2448 26.7952 29.9537C26.7952 30.7063 26.4515 31.0693 25.7296 31.0693C20.7108 31.0693 15.7007 31.0693 10.6819 31.0693C10.5874 31.0693 10.4929 31.0693 10.3296 31.0693C10.7249 30.5646 11.0772 30.1219 11.4296 29.6703C11.7733 29.2365 12.1171 28.8026 12.4608 28.3599C13.6897 26.7573 12.9421 24.5526 11.0171 24.0657C10.9569 24.0479 10.9054 24.0302 10.8194 24.0037C10.8194 22.8969 10.8194 21.7813 10.8194 20.6745C10.8194 20.4443 10.8194 20.2141 10.7765 19.9927C10.5444 18.7 9.52178 17.8058 8.2499 17.788C7.27881 17.7792 6.31631 17.788 5.34521 17.788C5.2335 17.788 5.12178 17.788 4.96709 17.788C4.96709 17.6552 4.96709 17.549 4.96709 17.4427C4.96709 14.6891 4.97568 11.9354 4.9585 9.17294C4.9585 8.88075 5.03584 8.80992 5.31084 8.80992C7.37334 8.81877 9.42725 8.81877 11.4897 8.81877C12.2202 8.81877 12.564 8.46461 12.564 7.72086C12.564 5.62242 12.564 3.52398 12.564 1.41669C12.564 1.30159 12.564 1.17763 12.564 1.0094Z" fill="black"/>
<path d="M23.2289 10.4037C25.4718 10.4037 27.7062 10.4037 29.9492 10.4037C31.307 10.4037 32.0632 11.1828 32.0632 12.5818C32.0632 15.2203 32.0632 17.8677 32.0632 20.5063C32.0632 21.8167 31.2812 22.6313 30.0093 22.6313C25.489 22.6313 20.9687 22.6313 16.4484 22.6313C15.1937 22.6313 14.4031 21.8167 14.4031 20.524C14.4031 17.85 14.4031 15.1761 14.4031 12.5109C14.4031 11.2094 15.1851 10.4125 16.4484 10.4037C18.7085 10.3948 20.9687 10.4037 23.2289 10.4037ZM21.3726 16.4865C21.3726 17.2745 21.364 18.0625 21.3726 18.8594C21.3812 19.4261 21.6132 19.6474 22.1632 19.6385C22.5671 19.6297 22.971 19.6297 23.375 19.6208C24.3718 19.6031 25.0765 19.0984 25.5234 18.2042C25.996 17.2568 26.0218 16.2651 25.721 15.2646C25.3687 14.0604 24.5179 13.4229 23.2976 13.3964C22.9023 13.3875 22.507 13.3964 22.1203 13.3964C21.5789 13.4052 21.3726 13.6177 21.3726 14.1755C21.3726 14.9458 21.3726 15.7162 21.3726 16.4865ZM17.7375 17.4604C18.0039 17.4604 18.2445 17.4693 18.4851 17.4604C19.6195 17.4162 20.4875 16.5396 20.4875 15.424C20.4875 14.3172 19.6281 13.4318 18.4851 13.3964C18.0984 13.3875 17.7203 13.3875 17.3335 13.3964C16.7148 13.3964 16.5257 13.6 16.5171 14.2375C16.5171 15.7516 16.5171 17.2745 16.5171 18.7885C16.5171 18.9214 16.5171 19.063 16.5515 19.187C16.6632 19.612 17.196 19.7802 17.4968 19.4792C17.6257 19.3464 17.7031 19.125 17.7117 18.9302C17.7546 18.4609 17.7375 17.9828 17.7375 17.4604ZM28.007 14.6448C28.1445 14.6448 28.2562 14.6448 28.3765 14.6448C28.7203 14.6448 29.064 14.6537 29.3992 14.6271C29.7343 14.6005 29.9492 14.3172 29.9406 13.9896C29.932 13.6708 29.7085 13.4141 29.382 13.4052C28.6945 13.3875 28.0156 13.3875 27.3281 13.4052C27.0273 13.4141 26.7953 13.6266 26.7867 13.9276C26.7781 15.6542 26.7781 17.3719 26.7867 19.0984C26.7867 19.3906 27.0445 19.6031 27.3367 19.6208C27.6375 19.6385 27.8867 19.4438 27.9554 19.1427C27.9812 19.0099 27.9812 18.8771 27.9812 18.7443C27.9812 18.2042 27.9812 17.6729 27.9812 17.1505C28.0328 17.124 28.05 17.1063 28.0671 17.1063C28.4109 17.1063 28.7546 17.1063 29.0984 17.0974C29.5195 17.0886 29.7773 16.8495 29.7773 16.4688C29.7773 16.088 29.5281 15.8578 29.0984 15.849C28.7375 15.849 28.3765 15.849 27.9984 15.849C28.007 15.4328 28.007 15.0609 28.007 14.6448Z" fill="black"/>
<path d="M10.7335 1.69116C10.7335 3.40002 10.7335 5.162 10.7335 6.94168C9.01474 6.94168 7.30459 6.94168 5.646 6.94168C7.33037 5.19741 9.03193 3.43543 10.7335 1.69116Z" fill="black"/>
<path d="M22.6101 18.3724C22.6101 17.124 22.6101 15.9109 22.6101 14.6979C23.7531 14.4854 24.389 14.7688 24.6296 15.849C24.75 16.3891 24.7328 16.9203 24.5437 17.4427C24.3203 18.0625 23.925 18.3458 23.2804 18.3635C23.0742 18.3724 22.8593 18.3724 22.6101 18.3724Z" fill="black"/>
<path d="M17.7632 16.212C17.7632 15.6896 17.7632 15.1849 17.7632 14.6714C18.0726 14.6714 18.3733 14.6448 18.6655 14.6802C19.0007 14.7245 19.2499 15.061 19.2671 15.4063C19.2843 15.7516 19.0265 16.088 18.6827 16.1766C18.6054 16.1943 18.528 16.212 18.4421 16.212C18.2272 16.2208 18.0124 16.212 17.7632 16.212Z" fill="black"/>
</svg>
