<svg width="29" height="29" viewBox="0 0 29 29" fill="none" xmlns="http://www.w3.org/2000/svg">
<path d="M16.3275 7.57471C18.0116 9.28903 19.6957 10.9958 21.395 12.7177C21.3194 12.8007 21.2515 12.8763 21.1835 12.9442C17.9361 16.1992 14.6812 19.4617 11.4338 22.7166C11.2676 22.8828 11.0864 23.0414 10.8749 23.1396C8.67726 24.2422 6.4796 25.3297 4.2744 26.4172C3.51164 26.7948 2.68846 26.4398 2.52987 25.6393C2.477 25.3825 2.51476 25.0578 2.62804 24.8237C3.72309 22.5656 4.83325 20.3226 5.95096 18.0797C6.02648 17.9211 6.13976 17.7776 6.26815 17.6492C9.57596 14.3263 12.8838 11.0109 16.1991 7.69554C16.2293 7.66533 16.2747 7.62757 16.3275 7.57471Z" fill="#1F58A4"/>
<path d="M17.9966 5.76971C18.8273 4.96919 19.6354 4.16867 20.4661 3.38325C21.8481 2.0843 24.0005 2.09185 25.3901 3.38325C26.7872 4.68221 26.9987 6.84966 25.7601 8.29211C24.9521 9.22857 23.9778 10.0291 23.0942 10.8749C21.463 9.24367 19.7638 7.54445 17.9966 5.76971Z" fill="#1F58A4"/>
<path d="M19.9525 26.5759C18.1627 26.5759 16.3729 26.5834 14.583 26.5759C13.7976 26.5759 13.2765 26.017 13.3294 25.2618C13.3671 24.703 13.8278 24.2272 14.3791 24.1819C14.4848 24.1743 14.583 24.1743 14.6887 24.1743C18.1929 24.1743 21.6971 24.1743 25.2012 24.1743C25.3674 24.1743 25.5411 24.1743 25.7072 24.2196C26.3038 24.3782 26.6512 24.9446 26.5606 25.5715C26.4851 26.1379 25.9866 26.5759 25.3749 26.5759C23.57 26.5834 21.765 26.5759 19.9525 26.5759Z" fill="#1F58A4"/>
</svg>
