<svg width="38" height="35" viewBox="0 0 38 35" fill="none" xmlns="http://www.w3.org/2000/svg">
<g clip-path="url(#clip0_1800_4593)">
<path d="M38 33.059C37.437 32.3138 36.9384 31.6534 36.4388 30.994C35.2315 29.3979 34.0271 27.8018 32.8099 26.2206C32.6493 26.0121 32.6384 25.8605 32.7603 25.6281C33.8447 23.5485 34.502 21.2705 34.693 18.9299C34.884 16.5893 34.6048 14.2339 33.872 12.0042C33.1392 9.77443 31.9679 7.716 30.4278 5.95157C28.8877 4.18713 27.0104 2.75282 24.9078 1.73411C15.0688 -3.0383 3.31865 2.45935 0.558064 13.1284C-1.89326 22.6054 3.97386 32.3667 13.462 34.5295C18.4181 35.6587 23.0264 34.7519 27.2461 31.8899C27.3389 31.8225 27.4441 31.7745 27.5556 31.7487C27.6671 31.7228 27.7826 31.7196 27.8953 31.7392C30.8631 32.1333 33.8249 32.5124 36.7907 32.8944C37.1565 32.9423 37.5232 32.9942 38 33.059ZM20.4472 22.4628C20.4472 23.209 20.4472 23.9591 20.4472 24.7023C20.4413 25.9343 20.4809 27.1683 20.4135 28.3934C20.3213 30.0643 18.6531 31.3731 17.0165 31.1287C15.4167 30.8883 14.3343 29.6543 14.3253 28.0263C14.3144 26.073 14.3253 24.1187 14.3253 22.1655C14.3253 20.3489 14.3045 18.5313 14.3382 16.7157C14.3709 14.9789 15.9906 13.6033 17.6975 13.8088C19.3271 14.0083 20.4333 15.2623 20.4462 16.9711C20.4551 18.8047 20.4472 20.6332 20.4472 22.4628ZM13.4174 7.83529C13.4182 7.04348 13.6526 6.26974 14.091 5.61222C14.5294 4.9547 15.1519 4.44302 15.8797 4.14208C16.6074 3.84114 17.4076 3.7645 18.1787 3.92187C18.9497 4.07924 19.657 4.46355 20.2108 5.02603C20.7645 5.58852 21.1398 6.30385 21.289 7.08129C21.4382 7.85874 21.3547 8.66327 21.0489 9.39285C20.7432 10.1224 20.229 10.7442 19.5716 11.1792C18.9142 11.6143 18.1433 11.8431 17.3565 11.8366C16.3084 11.8268 15.3066 11.401 14.5689 10.6517C13.8312 9.90232 13.4173 8.89013 13.4174 7.83529Z" fill="#27276C"/>
</g>
<defs>
<clipPath id="clip0_1800_4593">
<rect width="38" height="35" fill="white" transform="matrix(-1 0 0 1 38 0)"/>
</clipPath>
</defs>
</svg>
