<svg width="179" height="66" viewBox="0 0 179 66" fill="none" xmlns="http://www.w3.org/2000/svg">
<path d="M13.4403 46.3342C13.0043 45.5204 13.0043 44.4895 13.4403 43.6757L26.2487 19.9118C29.7369 14.4863 36.7134 12.5874 42.4908 15.4086L46.3606 17.3076C47.8322 18.0129 48.4318 19.8033 47.7232 21.2682C47.0147 22.7331 45.216 23.3299 43.7444 22.6246L39.8747 20.7257C36.7679 19.2065 33.0617 20.2374 31.2085 23.1129L18.5092 46.4427C17.4191 48.3959 14.5304 48.3959 13.4403 46.3342Z" fill="#E3186D"/>
<path d="M35.4597 3.58081C37.3128 3.58081 38.7844 5.09996 38.7844 6.89039C38.7844 8.73507 37.3128 10.2 35.4597 10.2C33.6066 10.2 32.1895 8.73507 32.1895 6.89039C32.1895 5.09996 33.6066 3.58081 35.4597 3.58081ZM32.68 44.9234V28.3755C32.68 26.8021 33.9336 25.5542 35.5142 25.5542C37.0948 25.5542 38.3484 26.8021 38.3484 28.3755V44.9234C38.3484 46.4968 37.0948 47.7447 35.5142 47.7447C33.9336 47.7447 32.68 46.4968 32.68 44.9234Z" fill="#27276C"/>
<path d="M61.8398 41.2883C63.5294 42.3191 63.6384 44.7064 62.0578 45.9C60.1502 47.4191 57.6975 48.233 54.8633 48.233C47.9958 48.233 42.9814 43.2957 42.9814 36.6223C42.9814 30.0032 47.9413 25.0659 54.8633 25.0659C57.6975 25.0659 60.0956 25.934 62.0578 27.3989C63.6384 28.5925 63.4749 30.9798 61.8398 32.0106C60.8042 32.6617 59.4961 32.5532 58.5695 31.7936C57.643 30.9798 56.3894 30.5457 54.9178 30.5457C51.3205 30.5457 48.7589 33.2585 48.7589 36.6223C48.7589 40.0404 51.3205 42.7532 54.9178 42.7532C56.4439 42.7532 57.643 42.3191 58.5695 41.5053C59.4961 40.6915 60.8042 40.6372 61.8398 41.2883Z" fill="#27276C"/>
<path d="M79.2805 25.0659C85.9844 25.0659 91.1623 30.0032 91.1623 36.6223C91.1623 43.2415 85.9844 48.233 79.2805 48.233C72.5765 48.233 67.4531 43.2957 67.4531 36.6223C67.4531 30.0574 72.5765 25.0659 79.2805 25.0659ZM85.4939 36.6223C85.4939 33.2585 82.8777 30.5457 79.2805 30.5457C75.7377 30.5457 73.176 33.2585 73.176 36.6223C73.176 40.0404 75.7377 42.7532 79.2805 42.7532C82.8232 42.7532 85.4939 40.0404 85.4939 36.6223Z" fill="#27276C"/>
<path d="M149.59 38.7383H135.692C136.509 41.5596 138.962 43.0787 141.742 43.0787C143.322 43.0787 144.576 42.8074 145.829 42.1564C146.865 41.6138 148.119 41.8308 148.882 42.6989C149.972 43.8925 149.645 45.7372 148.282 46.551C146.265 47.6904 144.085 48.233 141.578 48.233C134.765 48.233 129.696 43.2957 129.696 36.6223C129.696 30.0032 134.82 25.0659 141.578 25.0659C148.446 25.0659 152.424 30.0574 152.424 35.917C152.424 35.917 152.424 35.917 152.424 35.9712C152.424 37.4904 151.116 38.7383 149.59 38.7383ZM146.865 34.5606C146.538 32.0649 144.848 29.9489 141.578 29.9489C138.744 29.9489 136.455 31.7393 135.692 34.5606H146.865Z" fill="#27276C"/>
<path d="M163.598 39.715V30.8172H166.813C168.285 30.8172 169.429 29.6235 169.429 28.2129C169.429 26.748 168.23 25.6086 166.813 25.6086H163.598H156.894C155.422 25.6086 154.277 26.8023 154.277 28.2129C154.277 29.6778 155.476 30.8172 156.894 30.8172H157.875V40.2033C157.875 45.5746 161.145 48.1789 165.56 48.1789C166.268 48.1789 166.868 48.1789 167.413 48.1246C168.83 48.0161 169.865 46.8225 169.865 45.4119C169.865 43.8927 168.612 42.6991 167.086 42.6991C166.922 42.6991 166.759 42.6991 166.541 42.6991C164.851 42.6991 163.598 41.9395 163.598 39.715Z" fill="#27276C"/>
<path d="M121.794 48.2331C120.322 48.2331 119.177 47.0395 119.177 45.6288V35.7001C119.177 33.4214 117.433 31.4682 115.144 31.3597C112.691 31.2512 110.675 33.2044 110.675 35.5916V45.6288C110.675 47.0937 109.476 48.2331 108.059 48.2331C106.587 48.2331 105.442 47.0395 105.442 45.6288V35.7544C105.442 30.4373 109.803 25.9884 115.144 26.0969C120.322 26.2054 124.519 30.3831 124.519 35.5916V45.6288C124.464 47.0395 123.265 48.2331 121.794 48.2331Z" fill="#27276C"/>
<path d="M11.4236 42.699L3.41151 29.4607C2.53945 28.0501 3.02998 26.2054 4.50158 25.3915C5.91868 24.632 7.66281 25.066 8.48036 26.4224L14.8573 36.8937L11.4236 42.699Z" fill="#E3186D"/>
<path d="M44.1803 59.9523L42.3271 55.3406H43.3082L44.6708 58.7587L46.0334 55.3406H47.0145L45.1613 59.9523H44.1803Z" fill="#27276C"/>
<path d="M48.3222 53.2246C48.6492 53.2246 48.9217 53.4959 48.9217 53.8214C48.9217 54.147 48.6492 54.4182 48.3222 54.4182C47.9952 54.4182 47.7227 54.147 47.7227 53.8214C47.7227 53.4959 47.9952 53.2246 48.3222 53.2246ZM47.8862 59.9523V55.3406H48.8127V59.9523H47.8862Z" fill="#27276C"/>
<path d="M50.3936 59.9521V55.3404H51.2111V56.2628C51.4291 55.7745 51.8652 55.2319 53.0097 55.2319V56.2085C51.7016 56.2085 51.2656 56.9681 51.2656 57.8362V59.9521H50.3936Z" fill="#27276C"/>
<path d="M54.2629 56.1543H53.4453V55.3405H53.8813C54.1539 55.3405 54.3174 55.1777 54.3174 54.9065L54.3719 53.9841H55.1894V55.2863H56.552V56.1001H55.1894V58.3246C55.1894 58.8671 55.462 59.0841 55.8435 59.0841C56.1705 59.0841 56.334 59.0841 56.6065 58.9756V59.8437C56.334 59.898 56.0615 59.9522 55.789 59.9522C54.8624 59.9522 54.2629 59.4097 54.2629 58.3788V56.1543Z" fill="#27276C"/>
<path d="M57.6426 57.9448V55.3406H58.5691V57.8363C58.5691 58.8129 59.0052 59.1927 59.6592 59.1927C60.3133 59.1927 60.7493 58.8129 60.7493 57.8363V55.3406H61.6759V57.9448C61.6759 59.464 60.6403 60.0608 59.6592 60.0608C58.6781 60.0608 57.6426 59.4097 57.6426 57.9448Z" fill="#27276C"/>
<path d="M65.0003 56.0458C64.3462 56.0458 63.9647 56.3714 63.7467 56.6969L62.9836 56.2628C63.3107 55.7203 63.8557 55.1777 65.0003 55.1777C66.1449 55.1777 66.8534 55.8831 66.8534 56.8054V59.9522H65.9813V59.2469C65.7088 59.7352 65.1638 60.0607 64.3462 60.0607C63.4197 60.0607 62.7656 59.5182 62.7656 58.7043C62.7656 57.8362 63.3652 57.4565 64.1282 57.3479L65.5453 57.1309C65.8178 57.0767 65.9268 56.9682 65.9268 56.8054C65.9268 56.4799 65.6543 56.0458 65.0003 56.0458ZM65.9268 57.782L64.4552 57.999C63.9647 58.0533 63.6922 58.2703 63.6922 58.6501C63.6922 59.0841 64.0192 59.1926 64.5097 59.1926C65.3818 59.1926 65.9268 58.7586 65.9268 57.9448V57.782V57.782Z" fill="#27276C"/>
<path d="M68.3799 59.9522V53.333H69.3064V59.9522H68.3799Z" fill="#27276C"/>
<path d="M76.7732 58.9756C76.3372 59.6267 75.6286 60.0607 74.8111 60.0607C73.394 60.0607 72.3584 58.9756 72.3584 57.6192C72.3584 56.2628 73.394 55.1777 74.8111 55.1777C75.6831 55.1777 76.3917 55.5575 76.7732 56.2628L76.0102 56.7511C75.7376 56.3171 75.3561 56.0458 74.8111 56.0458C73.939 56.0458 73.285 56.7511 73.285 57.565C73.285 58.4331 73.939 59.0841 74.8111 59.0841C75.3561 59.0841 75.7376 58.8128 76.0102 58.4331L76.7732 58.9756Z" fill="#27276C"/>
<path d="M79.9341 55.1777C81.2967 55.1777 82.3868 56.2628 82.3868 57.6192C82.3868 58.9756 81.2967 60.0607 79.9341 60.0607C78.517 60.0607 77.4814 58.9756 77.4814 57.6192C77.4814 56.2628 78.5715 55.1777 79.9341 55.1777ZM81.4602 57.6192C81.4602 56.8054 80.8062 56.1001 79.9341 56.1001C79.0621 56.1001 78.408 56.8054 78.408 57.6192C78.408 58.4873 79.0621 59.1384 79.9341 59.1384C80.8062 59.1384 81.4602 58.4873 81.4602 57.6192Z" fill="#27276C"/>
<path d="M83.5859 59.9522V53.333H84.5125V59.9522H83.5859Z" fill="#27276C"/>
<path d="M86.0938 59.9522V53.333H87.0203V59.9522H86.0938Z" fill="#27276C"/>
<path d="M90.5081 56.0458C89.8541 56.0458 89.4725 56.3714 89.2545 56.6969L88.4914 56.2628C88.8185 55.7203 89.3635 55.1777 90.5081 55.1777C91.6527 55.1777 92.3612 55.8831 92.3612 56.8054V59.9522H91.4892V59.2469C91.2166 59.7352 90.6716 60.0607 89.854 60.0607C88.9275 60.0607 88.2734 59.5182 88.2734 58.7043C88.2734 57.8362 88.873 57.4565 89.636 57.3479L91.0531 57.1309C91.3257 57.0767 91.4347 56.9682 91.4347 56.8054C91.4347 56.4799 91.1621 56.0458 90.5081 56.0458ZM91.4347 57.782L89.9631 57.999C89.4725 58.0533 89.2 58.2703 89.2 58.6501C89.2 59.0841 89.527 59.1926 90.0176 59.1926C90.8896 59.1926 91.4347 58.7586 91.4347 57.9448V57.782Z" fill="#27276C"/>
<path d="M93.8877 59.9522V53.333H94.8143V55.9915C95.1413 55.6117 95.6318 55.2319 96.4494 55.2319C97.7575 55.2319 98.793 56.3171 98.793 57.6734C98.793 59.0298 97.703 60.1149 96.4494 60.1149C95.5228 60.1149 95.0323 59.6809 94.7053 59.3011V60.0064H93.8877V59.9522ZM94.8143 57.6192C94.8143 58.4873 95.4683 59.1383 96.3404 59.1383C97.2124 59.1383 97.8665 58.433 97.8665 57.6192C97.8665 56.8054 97.2124 56.1 96.3404 56.1C95.4683 56.1 94.8143 56.8054 94.8143 57.6192Z" fill="#27276C"/>
<path d="M102.008 55.1777C103.371 55.1777 104.461 56.2628 104.461 57.6192C104.461 58.9756 103.371 60.0607 102.008 60.0607C100.591 60.0607 99.5557 58.9756 99.5557 57.6192C99.5557 56.2628 100.646 55.1777 102.008 55.1777ZM103.534 57.6192C103.534 56.8054 102.88 56.1001 102.008 56.1001C101.136 56.1001 100.482 56.8054 100.482 57.6192C100.482 58.4873 101.136 59.1384 102.008 59.1384C102.88 59.1384 103.534 58.4873 103.534 57.6192Z" fill="#27276C"/>
<path d="M105.66 59.9521V55.3404H106.478V56.2628C106.696 55.7745 107.132 55.2319 108.276 55.2319V56.2085C106.968 56.2085 106.532 56.9681 106.532 57.8362V59.9521H105.66Z" fill="#27276C"/>
<path d="M111.165 56.0458C110.511 56.0458 110.13 56.3714 109.912 56.6969L109.149 56.2628C109.476 55.7203 110.021 55.1777 111.165 55.1777C112.31 55.1777 113.018 55.8831 113.018 56.8054V59.9522H112.146V59.2469C111.874 59.7352 111.329 60.0607 110.511 60.0607C109.585 60.0607 108.931 59.5182 108.931 58.7043C108.931 57.8362 109.53 57.4565 110.293 57.3479L111.71 57.1309C111.983 57.0767 112.092 56.9682 112.092 56.8054C112.092 56.4799 111.819 56.0458 111.165 56.0458ZM112.092 57.782L110.62 57.999C110.13 58.0533 109.857 58.2703 109.857 58.6501C109.857 59.0841 110.184 59.1926 110.675 59.1926C111.547 59.1926 112.092 58.7586 112.092 57.9448V57.782Z" fill="#27276C"/>
<path d="M114.653 56.1543H113.836V55.3405H114.272C114.544 55.3405 114.708 55.1777 114.708 54.9065L114.763 53.9841H115.58V55.2863H116.943V56.1001H115.58V58.3246C115.58 58.8671 115.853 59.0841 116.234 59.0841C116.561 59.0841 116.725 59.0841 116.997 58.9756V59.8437C116.725 59.898 116.452 59.9522 116.18 59.9522C115.253 59.9522 114.653 59.4097 114.653 58.3788V56.1543Z" fill="#27276C"/>
<path d="M118.578 53.2246C118.905 53.2246 119.178 53.4959 119.178 53.8214C119.178 54.147 118.905 54.4182 118.578 54.4182C118.251 54.4182 117.979 54.147 117.979 53.8214C117.979 53.4959 118.251 53.2246 118.578 53.2246ZM118.088 59.9523V55.3406H119.014V59.9523H118.088Z" fill="#27276C"/>
<path d="M122.666 55.1777C124.028 55.1777 125.118 56.2628 125.118 57.6192C125.118 58.9756 124.028 60.0607 122.666 60.0607C121.248 60.0607 120.213 58.9756 120.213 57.6192C120.213 56.2628 121.303 55.1777 122.666 55.1777ZM124.192 57.6192C124.192 56.8054 123.538 56.1001 122.666 56.1001C121.794 56.1001 121.139 56.8054 121.139 57.6192C121.139 58.4873 121.794 59.1384 122.666 59.1384C123.538 59.1384 124.192 58.4873 124.192 57.6192Z" fill="#27276C"/>
<path d="M126.317 59.9521V55.3404H127.189V56.1543C127.353 55.7202 127.843 55.2319 128.716 55.2319C129.697 55.2319 130.46 55.8287 130.46 57.2936V59.9521H129.533V57.4564C129.533 56.4798 129.097 56.1 128.443 56.1C127.734 56.1 127.244 56.7511 127.244 57.5649V59.9521H126.317V59.9521Z" fill="#27276C"/>
<path d="M134.384 59.898V55.2862H135.256V56.1001C135.419 55.666 135.91 55.1777 136.782 55.1777C137.763 55.1777 138.526 55.7745 138.526 57.2394V59.898H137.6V57.4022C137.6 56.4256 137.163 56.0458 136.509 56.0458C135.801 56.0458 135.31 56.6969 135.31 57.5107V59.898H134.384V59.898Z" fill="#27276C"/>
<path d="M144.249 57.9446H140.597C140.761 58.6499 141.36 59.1382 142.069 59.1382C142.614 59.1382 142.886 59.0297 143.377 58.6499L143.922 59.2468C143.377 59.7351 142.777 59.9521 142.069 59.9521C140.652 59.9521 139.616 58.867 139.616 57.5106C139.616 56.1542 140.706 55.0691 142.069 55.0691C143.486 55.0691 144.304 56.0457 144.304 57.3478C144.304 57.5648 144.249 57.8361 144.249 57.9446ZM143.377 57.1308C143.268 56.4797 142.886 55.9914 142.069 55.9914C141.36 55.9914 140.761 56.4797 140.597 57.1308H143.377Z" fill="#27276C"/>
<path d="M145.612 56.1001H144.794V55.2863H145.23C145.502 55.2863 145.666 55.1235 145.666 54.8523L145.72 53.9299H146.538V55.2321H147.901V56.0459H146.538V58.2704C146.538 58.8129 146.811 59.0299 147.192 59.0299C147.519 59.0299 147.683 59.0299 147.955 58.9214V59.7895C147.683 59.8438 147.41 59.898 147.138 59.898C146.211 59.898 145.612 59.3555 145.612 58.3246V56.1001Z" fill="#27276C"/>
<path d="M149.808 59.8978L148.282 55.2861H149.209L150.244 58.5415L151.389 55.2861H152.316L153.46 58.5415L154.496 55.2861H155.477L153.951 59.8978H153.024L151.879 56.534L150.735 59.8978H149.808Z" fill="#27276C"/>
<path d="M158.42 55.1777C159.783 55.1777 160.873 56.2628 160.873 57.6192C160.873 58.9756 159.783 60.0607 158.42 60.0607C157.003 60.0607 155.968 58.9756 155.968 57.6192C155.968 56.2086 157.058 55.1777 158.42 55.1777ZM159.947 57.565C159.947 56.7511 159.293 56.0458 158.42 56.0458C157.548 56.0458 156.894 56.7511 156.894 57.565C156.894 58.4331 157.548 59.0841 158.42 59.0841C159.293 59.1384 159.947 58.4331 159.947 57.565Z" fill="#27276C"/>
<path d="M162.072 59.898V55.2862H162.89V56.2086C163.108 55.7203 163.544 55.1777 164.688 55.1777V56.1543C163.38 56.1543 162.944 56.9139 162.944 57.782V59.898H162.072Z" fill="#27276C"/>
<path d="M166.76 57.7278V59.898H165.833V53.2788H166.76V57.2937L168.613 55.232H169.757L167.741 57.5107L169.866 59.898H168.722L166.76 57.7278Z" fill="#27276C"/>
<path d="M97.594 41.7224C99.4471 41.7224 100.919 43.2416 100.919 45.032C100.919 46.8767 99.4471 48.3416 97.594 48.3416C95.7408 48.3416 94.3237 46.8767 94.3237 45.032C94.2692 43.2416 95.7408 41.7224 97.594 41.7224Z" fill="#E3186D"/>
<path d="M172.537 25.8798V23.1128H171.61V22.6787H173.954V23.1128H173.027V25.8798H172.537Z" fill="#27276C"/>
<path d="M174.444 25.8798V22.6245H174.935L176.079 24.4692L177.224 22.6245H177.715V25.8798H177.224V23.5469L176.134 25.3373H176.025L174.935 23.5469V25.8798H174.444Z" fill="#27276C"/>
</svg>
