<svg width="19" height="19" viewBox="0 0 19 19" fill="none" xmlns="http://www.w3.org/2000/svg">
<path d="M7.91683 3.16668C6.16793 3.16668 4.75016 4.58444 4.75016 6.33334C4.75016 8.08224 6.16793 9.50001 7.91683 9.50001C9.66573 9.50001 11.0835 8.08224 11.0835 6.33334C11.0835 4.58444 9.66573 3.16668 7.91683 3.16668ZM3.16683 6.33334C3.16683 3.70999 5.29348 1.58334 7.91683 1.58334C10.5402 1.58334 12.6668 3.70999 12.6668 6.33334C12.6668 8.9567 10.5402 11.0833 7.91683 11.0833C5.29348 11.0833 3.16683 8.9567 3.16683 6.33334ZM15.0418 8.70834C15.4791 8.70834 15.8335 9.06278 15.8335 9.50001V10.2917H16.6252C17.0624 10.2917 17.4168 10.6461 17.4168 11.0833C17.4168 11.5206 17.0624 11.875 16.6252 11.875H15.8335V12.6667C15.8335 13.1039 15.4791 13.4583 15.0418 13.4583C14.6046 13.4583 14.2502 13.1039 14.2502 12.6667V11.875H13.4585C13.0213 11.875 12.6668 11.5206 12.6668 11.0833C12.6668 10.6461 13.0213 10.2917 13.4585 10.2917H14.2502V9.50001C14.2502 9.06278 14.6046 8.70834 15.0418 8.70834ZM5.146 14.25C4.14892 14.25 3.16683 15.2107 3.16683 16.625C3.16683 17.0622 2.81239 17.4167 2.37516 17.4167C1.93794 17.4167 1.5835 17.0622 1.5835 16.625C1.5835 14.5415 3.08249 12.6667 5.146 12.6667H10.6877C12.7512 12.6667 14.2502 14.5415 14.2502 16.625C14.2502 17.0622 13.8957 17.4167 13.4585 17.4167C13.0213 17.4167 12.6668 17.0622 12.6668 16.625C12.6668 15.2107 11.6847 14.25 10.6877 14.25H5.146Z" fill="#979797"/>
</svg>
