<svg width="170" height="63" viewBox="0 0 170 63" fill="none" xmlns="http://www.w3.org/2000/svg">
<path d="M12.5615 44.4645C12.1462 43.6835 12.1462 42.6942 12.5615 41.9132L24.7599 19.1083C28.0821 13.9017 34.7263 12.0793 40.2286 14.7868L43.9141 16.6091C45.3156 17.286 45.8866 19.0041 45.2118 20.4099C44.537 21.8157 42.824 22.3884 41.4225 21.7116L37.737 19.8893C34.7782 18.4314 31.2485 19.4207 29.4836 22.1802L17.3889 44.5686C16.3508 46.443 13.5996 46.443 12.5615 44.4645Z" fill="#E3186D"/>
<path d="M33.5325 3.43637C35.2974 3.43637 36.6989 4.89422 36.6989 6.6124C36.6989 8.38265 35.2974 9.78844 33.5325 9.78844C31.7676 9.78844 30.418 8.38265 30.418 6.6124C30.418 4.89422 31.7676 3.43637 33.5325 3.43637ZM30.8851 43.1108V27.2306C30.8851 25.7207 32.079 24.5231 33.5844 24.5231C35.0897 24.5231 36.2836 25.7207 36.2836 27.2306V43.1108C36.2836 44.6207 35.0897 45.8182 33.5844 45.8182C32.079 45.8182 30.8851 44.6207 30.8851 43.1108Z" fill="white"/>
<path d="M58.6556 39.6223C60.2648 40.6116 60.3686 42.9025 58.8633 44.0479C57.0465 45.5058 54.7106 46.2868 52.0113 46.2868C45.4709 46.2868 40.6953 41.5488 40.6953 35.1446C40.6953 28.7926 45.419 24.0546 52.0113 24.0546C54.7106 24.0546 56.9946 24.8876 58.8633 26.2934C60.3686 27.4388 60.2129 29.7298 58.6556 30.719C57.6694 31.3438 56.4236 31.2397 55.5411 30.5107C54.6587 29.7298 53.4648 29.3132 52.0633 29.3132C48.6373 29.3132 46.1976 31.9165 46.1976 35.1446C46.1976 38.4248 48.6373 41.0281 52.0633 41.0281C53.5167 41.0281 54.6587 40.6116 55.5411 39.8306C56.4236 39.0496 57.6694 38.9975 58.6556 39.6223Z" fill="white"/>
<path d="M75.268 24.0546C81.6528 24.0546 86.5841 28.7926 86.5841 35.1446C86.5841 41.4967 81.6528 46.2868 75.268 46.2868C68.8833 46.2868 64.0039 41.5488 64.0039 35.1446C64.0039 28.8446 68.8833 24.0546 75.268 24.0546ZM81.1856 35.1446C81.1856 31.9165 78.694 29.3132 75.268 29.3132C71.894 29.3132 69.4543 31.9165 69.4543 35.1446C69.4543 38.4248 71.894 41.0281 75.268 41.0281C78.6421 41.0281 81.1856 38.4248 81.1856 35.1446Z" fill="white"/>
<path d="M142.23 37.1752H128.993C129.772 39.8826 132.108 41.3405 134.755 41.3405C136.26 41.3405 137.454 41.0802 138.648 40.4554C139.634 39.9347 140.828 40.143 141.555 40.976C142.593 42.1215 142.282 43.8917 140.984 44.6727C139.063 45.7661 136.987 46.2868 134.599 46.2868C128.111 46.2868 123.283 41.5488 123.283 35.1446C123.283 28.7926 128.163 24.0546 134.599 24.0546C141.14 24.0546 144.929 28.8446 144.929 34.4678C144.929 34.4678 144.929 34.4678 144.929 34.5198C144.929 35.9777 143.683 37.1752 142.23 37.1752ZM139.634 33.1661C139.323 30.7711 137.714 28.7405 134.599 28.7405C131.9 28.7405 129.72 30.4587 128.993 33.1661H139.634Z" fill="white"/>
<path d="M155.57 38.1124V29.5736H158.632C160.034 29.5736 161.124 28.4281 161.124 27.0744C161.124 25.6686 159.982 24.5752 158.632 24.5752H155.57H149.185C147.783 24.5752 146.693 25.7207 146.693 27.0744C146.693 28.4802 147.835 29.5736 149.185 29.5736H150.119V38.581C150.119 43.7355 153.234 46.2347 157.438 46.2347C158.113 46.2347 158.684 46.2347 159.203 46.1826C160.553 46.0785 161.539 44.9331 161.539 43.5793C161.539 42.1215 160.345 40.976 158.892 40.976C158.736 40.976 158.58 40.976 158.373 40.976C156.764 40.976 155.57 40.2471 155.57 38.1124Z" fill="white"/>
<path d="M115.756 46.2868C114.355 46.2868 113.265 45.1413 113.265 43.7876V34.2595C113.265 32.0727 111.603 30.1983 109.423 30.0942C107.087 29.9901 105.167 31.8645 105.167 34.1554V43.7876C105.167 45.1934 104.025 46.2868 102.675 46.2868C101.274 46.2868 100.184 45.1413 100.184 43.7876V34.3116C100.184 29.2091 104.336 24.9397 109.423 25.0438C114.355 25.1479 118.352 29.157 118.352 34.1554V43.7876C118.3 45.1413 117.158 46.2868 115.756 46.2868Z" fill="white"/>
<path d="M10.6416 40.976L3.01105 28.2719C2.18052 26.9182 2.64769 25.1479 4.04922 24.3669C5.39884 23.638 7.05991 24.0545 7.83853 25.3562L13.9118 35.405L10.6416 40.976Z" fill="#E3186D"/>
<path d="M41.8391 57.5331L40.0742 53.1074H41.0086L42.3063 56.3876L43.604 53.1074H44.5383L42.7735 57.5331H41.8391Z" fill="white"/>
<path d="M45.7839 51.0769C46.0953 51.0769 46.3549 51.3372 46.3549 51.6496C46.3549 51.962 46.0953 52.2223 45.7839 52.2223C45.4724 52.2223 45.2129 51.962 45.2129 51.6496C45.2129 51.3372 45.4724 51.0769 45.7839 51.0769ZM45.3686 57.5331V53.1074H46.2511V57.5331H45.3686Z" fill="white"/>
<path d="M47.7559 57.5331V53.1074H48.5345V53.9926C48.7421 53.524 49.1574 53.0033 50.2475 53.0033V53.9405C49.0017 53.9405 48.5864 54.6694 48.5864 55.5025V57.5331H47.7559Z" fill="white"/>
<path d="M51.4407 53.8884H50.6621V53.1074H51.0774C51.3369 53.1074 51.4926 52.9512 51.4926 52.6909L51.5446 51.8058H52.3232V53.0554H53.6209V53.8364H52.3232V55.9711C52.3232 56.4917 52.5827 56.7 52.9461 56.7C53.2575 56.7 53.4133 56.7 53.6728 56.5959V57.4289C53.4133 57.481 53.1537 57.5331 52.8942 57.5331C52.0117 57.5331 51.4407 57.0124 51.4407 56.0231V53.8884Z" fill="white"/>
<path d="M54.6602 55.6066V53.1074H55.5426V55.5025C55.5426 56.4397 55.9579 56.8041 56.5808 56.8041C57.2037 56.8041 57.6189 56.4397 57.6189 55.5025V53.1074H58.5014V55.6066C58.5014 57.0645 57.5151 57.6372 56.5808 57.6372C55.6464 57.6372 54.6602 57.0124 54.6602 55.6066Z" fill="white"/>
<path d="M61.6673 53.7843C61.0444 53.7843 60.681 54.0967 60.4734 54.4091L59.7467 53.9926C60.0581 53.4719 60.5772 52.9512 61.6673 52.9512C62.7574 52.9512 63.4322 53.6281 63.4322 54.5132V57.5331H62.6017V56.8562C62.3421 57.3248 61.823 57.6372 61.0444 57.6372C60.162 57.6372 59.5391 57.1165 59.5391 56.3355C59.5391 55.5025 60.1101 55.138 60.8368 55.0339L62.1864 54.8256C62.4459 54.7736 62.5498 54.6694 62.5498 54.5132C62.5498 54.2008 62.2902 53.7843 61.6673 53.7843ZM62.5498 55.4504L61.1482 55.6587C60.6811 55.7107 60.4215 55.919 60.4215 56.2835C60.4215 56.7 60.733 56.8041 61.2001 56.8041C62.0307 56.8041 62.5498 56.3876 62.5498 55.6066V55.4504Z" fill="white"/>
<path d="M64.8848 57.5331V51.181H65.7672V57.5331H64.8848Z" fill="white"/>
<path d="M72.8804 56.5959C72.4651 57.2207 71.7903 57.6372 71.0117 57.6372C69.662 57.6372 68.6758 56.5959 68.6758 55.2942C68.6758 53.9926 69.662 52.9512 71.0117 52.9512C71.8422 52.9512 72.517 53.3157 72.8804 53.9926L72.1536 54.4612C71.8941 54.0446 71.5307 53.7843 71.0117 53.7843C70.1811 53.7843 69.5582 54.4612 69.5582 55.2421C69.5582 56.0752 70.1811 56.7 71.0117 56.7C71.5307 56.7 71.8941 56.4397 72.1536 56.0752L72.8804 56.5959Z" fill="white"/>
<path d="M75.8906 52.9512C77.1883 52.9512 78.2264 53.9926 78.2264 55.2942C78.2264 56.5959 77.1883 57.6372 75.8906 57.6372C74.5409 57.6372 73.5547 56.5959 73.5547 55.2942C73.5547 53.9926 74.5929 52.9512 75.8906 52.9512ZM77.344 55.2942C77.344 54.5132 76.7211 53.8364 75.8906 53.8364C75.06 53.8364 74.4371 54.5132 74.4371 55.2942C74.4371 56.1273 75.06 56.7521 75.8906 56.7521C76.7211 56.7521 77.344 56.1273 77.344 55.2942Z" fill="white"/>
<path d="M79.3672 57.5331V51.181H80.2496V57.5331H79.3672Z" fill="white"/>
<path d="M81.7559 57.5331V51.181H82.6383V57.5331H81.7559Z" fill="white"/>
<path d="M85.9603 53.7843C85.3374 53.7843 84.974 54.0967 84.7664 54.4091L84.0397 53.9926C84.3511 53.4719 84.8702 52.9512 85.9603 52.9512C87.0504 52.9512 87.7252 53.6281 87.7252 54.5132V57.5331H86.8946V56.8562C86.6351 57.3248 86.116 57.6372 85.3374 57.6372C84.4549 57.6372 83.832 57.1165 83.832 56.3355C83.832 55.5025 84.403 55.138 85.1297 55.0339L86.4794 54.8256C86.7389 54.7736 86.8427 54.6694 86.8427 54.5132C86.8427 54.2008 86.5832 53.7843 85.9603 53.7843ZM86.8427 55.4504L85.4412 55.6587C84.974 55.7107 84.7145 55.919 84.7145 56.2835C84.7145 56.7 85.0259 56.8041 85.4931 56.8041C86.3236 56.8041 86.8427 56.3876 86.8427 55.6066V55.4504Z" fill="white"/>
<path d="M89.1777 57.5331V51.181H90.0602V53.7322C90.3716 53.3678 90.8388 53.0033 91.6174 53.0033C92.8632 53.0033 93.8495 54.0446 93.8495 55.3463C93.8495 56.6479 92.8113 57.6893 91.6174 57.6893C90.735 57.6893 90.2678 57.2727 89.9564 56.9083V57.5851H89.1777V57.5331ZM90.0602 55.2942C90.0602 56.1273 90.6831 56.7521 91.5136 56.7521C92.3441 56.7521 92.967 56.0752 92.967 55.2942C92.967 54.5132 92.3441 53.8364 91.5136 53.8364C90.6831 53.8364 90.0602 54.5132 90.0602 55.2942Z" fill="white"/>
<path d="M96.9121 52.9512C98.2098 52.9512 99.2479 53.9926 99.2479 55.2942C99.2479 56.5959 98.2098 57.6372 96.9121 57.6372C95.5624 57.6372 94.5762 56.5959 94.5762 55.2942C94.5762 53.9926 95.6143 52.9512 96.9121 52.9512ZM98.3655 55.2942C98.3655 54.5132 97.7426 53.8364 96.9121 53.8364C96.0815 53.8364 95.4586 54.5132 95.4586 55.2942C95.4586 56.1273 96.0815 56.7521 96.9121 56.7521C97.7426 56.7521 98.3655 56.1273 98.3655 55.2942Z" fill="white"/>
<path d="M100.391 57.5331V53.1074H101.169V53.9926C101.377 53.524 101.792 53.0033 102.882 53.0033V53.9405C101.636 53.9405 101.221 54.6694 101.221 55.5025V57.5331H100.391Z" fill="white"/>
<path d="M105.634 53.7843C105.011 53.7843 104.648 54.0967 104.44 54.4091L103.713 53.9926C104.025 53.4719 104.544 52.9512 105.634 52.9512C106.724 52.9512 107.399 53.6281 107.399 54.5132V57.5331H106.568V56.8562C106.309 57.3248 105.79 57.6372 105.011 57.6372C104.129 57.6372 103.506 57.1165 103.506 56.3355C103.506 55.5025 104.077 55.138 104.804 55.0339L106.153 54.8256C106.413 54.7736 106.517 54.6694 106.517 54.5132C106.517 54.2008 106.257 53.7843 105.634 53.7843ZM106.517 55.4504L105.115 55.6587C104.648 55.7107 104.388 55.919 104.388 56.2835C104.388 56.7 104.7 56.8041 105.167 56.8041C105.997 56.8041 106.517 56.3876 106.517 55.6066V55.4504Z" fill="white"/>
<path d="M108.956 53.8884H108.178V53.1074H108.593C108.853 53.1074 109.008 52.9512 109.008 52.6909L109.06 51.8058H109.839V53.0554H111.137V53.8364H109.839V55.9711C109.839 56.4917 110.098 56.7 110.462 56.7C110.773 56.7 110.929 56.7 111.188 56.5959V57.4289C110.929 57.481 110.669 57.5331 110.41 57.5331C109.527 57.5331 108.956 57.0124 108.956 56.0231V53.8884Z" fill="white"/>
<path d="M112.694 51.0769C113.005 51.0769 113.265 51.3372 113.265 51.6496C113.265 51.962 113.005 52.2223 112.694 52.2223C112.383 52.2223 112.123 51.962 112.123 51.6496C112.123 51.3372 112.383 51.0769 112.694 51.0769ZM112.227 57.5331V53.1074H113.109V57.5331H112.227Z" fill="white"/>
<path d="M116.586 52.9512C117.884 52.9512 118.922 53.9926 118.922 55.2942C118.922 56.5959 117.884 57.6372 116.586 57.6372C115.236 57.6372 114.25 56.5959 114.25 55.2942C114.25 53.9926 115.288 52.9512 116.586 52.9512ZM118.039 55.2942C118.039 54.5132 117.416 53.8364 116.586 53.8364C115.755 53.8364 115.132 54.5132 115.132 55.2942C115.132 56.1273 115.755 56.7521 116.586 56.7521C117.416 56.7521 118.039 56.1273 118.039 55.2942Z" fill="white"/>
<path d="M120.064 57.5331V53.1074H120.895V53.8884C121.051 53.4719 121.518 53.0033 122.348 53.0033C123.283 53.0033 124.009 53.576 124.009 54.9818V57.5331H123.127V55.138C123.127 54.2008 122.712 53.8364 122.089 53.8364C121.414 53.8364 120.947 54.4612 120.947 55.2422V57.5331H120.064Z" fill="white"/>
<path d="M127.746 57.481V53.0554H128.577V53.8364C128.732 53.4198 129.2 52.9512 130.03 52.9512C130.964 52.9512 131.691 53.524 131.691 54.9297V57.481H130.809V55.0859C130.809 54.1488 130.393 53.7843 129.771 53.7843C129.096 53.7843 128.629 54.4091 128.629 55.1901V57.481H127.746Z" fill="white"/>
<path d="M137.143 55.6066H133.665C133.821 56.2835 134.392 56.7521 135.066 56.7521C135.585 56.7521 135.845 56.6479 136.312 56.2835L136.831 56.8562C136.312 57.3248 135.741 57.5331 135.066 57.5331C133.717 57.5331 132.73 56.4917 132.73 55.1901C132.73 53.8884 133.769 52.8471 135.066 52.8471C136.416 52.8471 137.195 53.7843 137.195 55.0339C137.195 55.2421 137.143 55.5025 137.143 55.6066ZM136.312 54.8256C136.208 54.2008 135.845 53.7322 135.066 53.7322C134.392 53.7322 133.821 54.2008 133.665 54.8256H136.312Z" fill="white"/>
<path d="M138.439 53.8364H137.66V53.0554H138.075C138.335 53.0554 138.491 52.8992 138.491 52.6388L138.543 51.7537H139.321V53.0033H140.619V53.7843H139.321V55.919C139.321 56.4397 139.581 56.6479 139.944 56.6479C140.256 56.6479 140.411 56.6479 140.671 56.5438V57.3769C140.411 57.4289 140.152 57.481 139.892 57.481C139.01 57.481 138.439 56.9603 138.439 55.9711V53.8364Z" fill="white"/>
<path d="M142.436 57.481L140.982 53.0554H141.865L142.851 56.1793L143.941 53.0554H144.824L145.914 56.1793L146.9 53.0554H147.834L146.381 57.481H145.498L144.408 54.2529L143.318 57.481H142.436Z" fill="white"/>
<path d="M150.639 52.9512C151.936 52.9512 152.974 53.9926 152.974 55.2942C152.974 56.5959 151.936 57.6372 150.639 57.6372C149.289 57.6372 148.303 56.5959 148.303 55.2942C148.303 53.9405 149.341 52.9512 150.639 52.9512ZM152.092 55.2421C152.092 54.4612 151.469 53.7843 150.639 53.7843C149.808 53.7843 149.185 54.4612 149.185 55.2421C149.185 56.0752 149.808 56.7 150.639 56.7C151.469 56.7521 152.092 56.0752 152.092 55.2421Z" fill="white"/>
<path d="M154.115 57.481V53.0554H154.894V53.9405C155.101 53.4719 155.517 52.9512 156.607 52.9512V53.8884C155.361 53.8884 154.946 54.6174 154.946 55.4504V57.481H154.115Z" fill="white"/>
<path d="M158.58 55.3983V57.481H157.697V51.1289H158.58V54.9818L160.345 53.0033H161.435L159.514 55.1901L161.538 57.481H160.448L158.58 55.3983Z" fill="white"/>
<path d="M92.7077 40.0388C94.4726 40.0388 95.8741 41.4967 95.8741 43.2149C95.8741 44.9851 94.4726 46.3909 92.7077 46.3909C90.9428 46.3909 89.5932 44.9851 89.5932 43.2149C89.5413 41.4967 90.9428 40.0388 92.7077 40.0388Z" fill="#E3186D"/>
<path d="M164.082 24.8355V22.1802H163.199V21.7636H165.431V22.1802H164.549V24.8355H164.082Z" fill="white"/>
<path d="M165.898 24.8355V21.7116H166.366L167.456 23.4818L168.546 21.7116H169.013V24.8355H168.546V22.5967L167.508 24.3149H167.404L166.366 22.5967V24.8355H165.898Z" fill="white"/>
</svg>
