<svg width="17" height="20" viewBox="0 0 17 20" fill="none" xmlns="http://www.w3.org/2000/svg">
<path d="M14.5423 6.26219C14.5423 9.6984 11.6939 12.5242 8.25764 12.5016C4.82143 12.479 1.99559 9.65319 2.0182 6.21697C2.06341 2.78076 4.86664 -0.0224709 8.30286 0.000135781C11.7391 0.000135781 14.5649 2.82597 14.5423 6.26219Z" fill="#27276C"/>
<path d="M2.22122 12.5696C5.61222 15.8023 10.97 15.8249 14.3836 12.5696C15.2201 13.3382 15.8304 14.2877 16.2826 15.305C16.6895 16.2319 16.6895 16.2545 15.9435 16.9327C13.1855 19.4646 9.9527 20.4593 6.2452 19.8037C3.82629 19.3742 1.79169 18.1986 0.118794 16.4127C0.0283676 16.3223 -0.0168457 16.1414 0.00576095 16.0284C0.390075 14.8302 1.29434 13.406 2.22122 12.5696Z" fill="#2B2A6B"/>
</svg>
