<svg width="20" height="20" viewBox="0 0 20 20" fill="none" xmlns="http://www.w3.org/2000/svg">
<path d="M10.0082 0.363342C4.70681 0.363342 0.412842 4.65731 0.412842 9.95872C0.412842 15.2601 4.70681 19.5541 10.0082 19.5541C15.3096 19.5541 19.6036 15.2601 19.6036 9.95872C19.6036 4.65731 15.3096 0.363342 10.0082 0.363342ZM15.0619 11.0157C14.9298 11.0322 14.8142 11.0157 14.682 11.0157C13.5755 11.0157 12.469 11.0157 11.379 11.0157C11.3129 11.0157 11.2469 11.0157 11.1643 11.0157C11.1643 11.0983 11.1643 11.1643 11.1643 11.2304C11.1643 12.436 11.1643 13.6581 11.1643 14.8638C11.1643 15.3922 10.8835 15.8051 10.4376 15.9538C9.71094 16.2015 8.98427 15.706 8.96775 14.9298C8.95124 14.4344 8.96775 13.9389 8.96775 13.4434C8.96775 12.7003 8.96775 11.9736 8.96775 11.2304C8.96775 11.1643 8.96775 11.0983 8.96775 11.0157C8.88518 11.0157 8.81912 11.0157 8.75306 11.0157C7.54744 11.0157 6.32531 11.0157 5.1197 11.0157C4.60772 11.0157 4.19484 10.7349 4.02969 10.3055C3.76544 9.56235 4.27742 8.83568 5.10318 8.81916C6.02804 8.81916 6.95289 8.81916 7.87775 8.81916C8.22457 8.81916 8.5879 8.81916 8.96775 8.81916C8.96775 8.7531 8.96775 8.68704 8.96775 8.62098C8.96775 7.43188 8.96775 6.22626 8.96775 5.03717C8.96775 4.52519 9.24851 4.11231 9.67791 3.94716C10.4046 3.68291 11.1313 4.19489 11.1478 4.9711C11.1643 5.38399 11.1478 5.81338 11.1478 6.22627C11.1478 7.08506 11.1478 7.92734 11.1478 8.80265C11.2303 8.80265 11.2964 8.80265 11.3625 8.80265C12.5516 8.80265 13.7242 8.80265 14.9133 8.80265C15.4417 8.80265 15.8546 9.08341 16.0033 9.52932C16.251 10.256 15.7886 10.9661 15.0619 11.0157Z" fill="#434343"/>
</svg>
