<svg width="76" height="14" viewBox="0 0 76 14" fill="none" xmlns="http://www.w3.org/2000/svg">
<path d="M4.796 0.436C5.852 0.436 6.692 0.532 7.316 0.723999C7.94 0.903999 8.39 1.228 8.666 1.696C8.954 2.164 9.098 2.824 9.098 3.676C9.098 4.564 8.93 5.242 8.594 5.71C8.258 6.178 7.706 6.448 6.938 6.52V6.592C7.886 6.676 8.546 7 8.918 7.564C9.302 8.128 9.494 8.908 9.494 9.904C9.494 10.756 9.35 11.416 9.062 11.884C8.786 12.352 8.342 12.682 7.73 12.874C7.13 13.054 6.344 13.144 5.372 13.144C4.616 13.144 3.956 13.138 3.392 13.126C2.828 13.126 2.312 13.114 1.844 13.09C1.376 13.066 0.89 13.036 0.386 13L0.638 11.362C0.926 11.374 1.46 11.386 2.24 11.398C3.02 11.41 3.938 11.416 4.994 11.416C5.558 11.416 6.002 11.368 6.326 11.272C6.65 11.164 6.878 10.972 7.01 10.696C7.154 10.408 7.226 10.006 7.226 9.49C7.226 8.914 7.154 8.476 7.01 8.176C6.866 7.864 6.626 7.648 6.29 7.528C5.966 7.396 5.504 7.33 4.904 7.33H0.62V5.8H4.886C5.402 5.8 5.804 5.752 6.092 5.656C6.392 5.548 6.608 5.362 6.74 5.098C6.872 4.834 6.938 4.456 6.938 3.964C6.938 3.472 6.866 3.094 6.722 2.83C6.59 2.566 6.362 2.392 6.038 2.308C5.714 2.212 5.264 2.164 4.688 2.164C4.052 2.164 3.488 2.164 2.996 2.164C2.504 2.164 2.066 2.17 1.682 2.182C1.298 2.182 0.95 2.194 0.638 2.218L0.386 0.579999C0.842 0.532 1.274 0.502 1.682 0.489999C2.102 0.465999 2.558 0.454 3.05 0.454C3.554 0.442 4.136 0.436 4.796 0.436ZM2.582 0.579999V13H0.386V0.579999H2.582ZM16.043 3.946C16.751 3.946 17.345 4.042 17.825 4.234C18.317 4.414 18.689 4.726 18.941 5.17C19.193 5.614 19.319 6.226 19.319 7.006V13H17.591L17.285 11.092L17.123 10.84V6.988C17.123 6.52 17.015 6.184 16.799 5.98C16.583 5.764 16.169 5.656 15.557 5.656C15.101 5.656 14.525 5.674 13.829 5.71C13.145 5.746 12.455 5.794 11.759 5.854L11.561 4.36C11.981 4.276 12.455 4.204 12.983 4.144C13.511 4.084 14.045 4.036 14.585 4C15.125 3.964 15.611 3.946 16.043 3.946ZM18.383 7.564L18.365 8.914H14.315C13.955 8.926 13.697 9.022 13.541 9.202C13.385 9.382 13.307 9.628 13.307 9.94V10.426C13.307 10.786 13.403 11.062 13.595 11.254C13.787 11.434 14.087 11.524 14.495 11.524C14.819 11.524 15.179 11.458 15.575 11.326C15.971 11.194 16.361 11.002 16.745 10.75C17.141 10.498 17.495 10.198 17.807 9.85V10.984C17.687 11.164 17.513 11.38 17.285 11.632C17.057 11.872 16.775 12.112 16.439 12.352C16.115 12.592 15.737 12.79 15.305 12.946C14.885 13.102 14.417 13.18 13.901 13.18C13.373 13.18 12.899 13.09 12.479 12.91C12.059 12.718 11.729 12.442 11.489 12.082C11.249 11.71 11.129 11.254 11.129 10.714V9.778C11.129 9.082 11.357 8.542 11.813 8.158C12.281 7.762 12.917 7.564 13.721 7.564H18.383ZM27.5009 3.946C29.1449 3.946 29.9669 4.756 29.9669 6.376V13H27.7889V7.042C27.7889 6.562 27.7049 6.232 27.5369 6.052C27.3689 5.872 27.0869 5.782 26.6909 5.782C26.2469 5.782 25.7909 5.884 25.3229 6.088C24.8549 6.28 24.2909 6.562 23.6309 6.934L23.5409 5.62C24.1889 5.08 24.8489 4.666 25.5209 4.378C26.1929 4.09 26.8529 3.946 27.5009 3.946ZM23.4689 4.162L23.6849 5.89L23.8649 6.142V13H21.6869V4.162H23.4689ZM40.3488 4.162L37.8288 7.312C37.7328 7.456 37.6128 7.6 37.4688 7.744C37.3248 7.876 37.1988 7.978 37.0908 8.05V8.086C37.1988 8.158 37.3248 8.278 37.4688 8.446C37.6128 8.602 37.7328 8.764 37.8288 8.932L40.6368 13H38.1708L34.9488 7.996L37.8828 4.162H40.3488ZM34.5348 0.399999L34.5528 5.782C34.5528 6.178 34.5288 6.556 34.4808 6.916C34.4448 7.276 34.3908 7.642 34.3188 8.014C34.3788 8.362 34.4268 8.722 34.4628 9.094C34.5108 9.466 34.5348 9.814 34.5348 10.138V13H32.3568V0.399999H34.5348ZM35.8848 7.348V8.752H33.8328V7.348H35.8848ZM48.4668 0.543999C49.0908 0.543999 49.7268 0.543999 50.3748 0.543999C51.0348 0.543999 51.6828 0.555999 52.3188 0.579999C52.9548 0.603999 53.5548 0.64 54.1188 0.688L54.0108 2.362H49.1508C48.8148 2.362 48.5628 2.446 48.3948 2.614C48.2388 2.782 48.1608 3.046 48.1608 3.406V10.174C48.1608 10.534 48.2388 10.798 48.3948 10.966C48.5628 11.134 48.8148 11.218 49.1508 11.218H54.0108L54.1188 12.892C53.5548 12.94 52.9548 12.976 52.3188 13C51.6828 13.012 51.0348 13.018 50.3748 13.018C49.7268 13.03 49.0908 13.036 48.4668 13.036C47.6988 13.036 47.0808 12.826 46.6128 12.406C46.1568 11.974 45.9228 11.398 45.9108 10.678V2.902C45.9228 2.182 46.1568 1.612 46.6128 1.192C47.0808 0.76 47.6988 0.543999 48.4668 0.543999ZM46.2348 5.674H53.3268V7.33H46.2348V5.674ZM58.8044 0.543999C59.4164 0.543999 60.0344 0.549999 60.6584 0.561999C61.2944 0.561999 61.9184 0.573999 62.5304 0.598C63.1544 0.61 63.7304 0.646 64.2584 0.705999L64.1504 2.362H59.5784C59.2184 2.362 58.9484 2.446 58.7684 2.614C58.5884 2.782 58.4984 3.046 58.4984 3.406V13H56.2484V2.956C56.2484 2.2 56.4824 1.612 56.9504 1.192C57.4184 0.76 58.0364 0.543999 58.8044 0.543999ZM56.5544 5.872H63.4664V7.528H56.5544V5.872ZM71.2393 0.579999V13H68.9893V0.579999H71.2393ZM75.0913 0.579999V2.416H65.1373V0.579999H75.0913Z" fill="black"/>
</svg>
