<svg width="34" height="34" viewBox="0 0 34 34" fill="none" xmlns="http://www.w3.org/2000/svg">
<path d="M25.5177 14.9193C22.4542 14.6714 19.8245 15.5391 17.6907 17.6906C15.5657 19.8333 14.7068 22.463 14.9636 25.5C14.8308 25.5 14.7157 25.5 14.5917 25.5C11.5724 25.5 8.56201 25.5 5.54274 25.5C3.5417 25.5 2.18701 24.1453 2.18701 22.1531C2.18701 16.5839 2.18701 11.0146 2.18701 5.44532C2.18701 3.48855 3.55055 2.11615 5.49847 2.11615C11.0677 2.11615 16.637 2.11615 22.2063 2.11615C24.1542 2.11615 25.5177 3.48855 25.5266 5.43646C25.5266 8.49115 25.5266 11.5458 25.5266 14.6005C25.5177 14.6979 25.5177 14.8042 25.5177 14.9193ZM8.5443 13.8214C8.5443 15.1849 8.5443 16.5396 8.5443 17.9031C8.5443 18.0359 8.5443 18.1688 8.57087 18.3016C8.70368 18.9125 9.40316 19.3641 10.2354 18.9391C12.9448 17.5578 15.6719 16.2031 18.399 14.8484C18.8328 14.6271 19.1427 14.326 19.1427 13.8125C19.1427 13.299 18.8328 12.9979 18.399 12.7766C15.6631 11.413 12.936 10.0406 10.2089 8.67709C9.31461 8.22553 8.5443 8.7125 8.5443 9.71302C8.5443 11.0854 8.5443 12.449 8.5443 13.8214Z" fill="white"/>
<path d="M17.0266 24.4464C17.0178 20.3646 20.3381 17.0089 24.3933 17C28.5282 16.9912 31.8662 20.3115 31.8751 24.4464C31.8839 28.5016 28.5459 31.875 24.5173 31.875C20.3646 31.875 17.0355 28.5813 17.0266 24.4464ZM23.3928 24.5083C23.26 24.3844 23.1803 24.3136 23.1094 24.2427C22.649 23.8177 22.0115 23.8089 21.5954 24.2339C21.1792 24.6589 21.1792 25.2964 21.6308 25.7479C22.3126 26.4386 23.0032 27.1292 23.6938 27.811C24.1454 28.2537 24.7563 28.2714 25.2079 27.8375C25.9251 27.138 26.6422 26.4208 27.3417 25.7037C27.7667 25.2698 27.749 24.6235 27.3329 24.2073C26.9167 23.8 26.2881 23.8 25.8454 24.2073C25.7568 24.287 25.6683 24.3755 25.5355 24.4995C25.5355 23.5344 25.5443 22.649 25.5355 21.7636C25.5266 21.1615 25.0574 20.7099 24.4818 20.7099C23.8975 20.7099 23.4459 21.1615 23.4193 21.7636C23.4105 21.9761 23.4193 22.1886 23.4193 22.3922C23.3928 23.0828 23.3928 23.7646 23.3928 24.5083Z" fill="white"/>
<path d="M15.7162 13.8036C13.9897 14.6625 12.3517 15.4859 10.6782 16.3271C10.6782 14.6359 10.6782 12.9802 10.6782 11.2802C12.3517 12.1214 13.9985 12.9448 15.7162 13.8036Z" fill="white"/>
</svg>
