<?xml version="1.0" encoding="utf-8"?>
<!-- Generator: Adobe Illustrator 25.3.0, SVG Export Plug-In . SVG Version: 6.00 Build 0)  -->
<svg version="1.1" id="Layer_1" xmlns="http://www.w3.org/2000/svg" xmlns:xlink="http://www.w3.org/1999/xlink" x="0px" y="0px"
	 width="33px" height="33px" viewBox="0 0 33 33" style="enable-background:new 0 0 33 33;" xml:space="preserve">
<style type="text/css">
	.st0{fill:#999999;}
</style>
<path class="st0" d="M18.7,7.8c2.1,2.2,4.3,4.4,6.5,6.6c-0.1,0.1-0.2,0.2-0.3,0.3c-4.1,4.1-8.3,8.3-12.4,12.5
	c-0.2,0.2-0.4,0.4-0.7,0.5C9,29,6.1,30.4,3.3,31.8c-1,0.5-2,0-2.2-1c-0.1-0.3,0-0.7,0.1-1c1.4-2.9,2.8-5.7,4.2-8.6
	c0.1-0.2,0.2-0.4,0.4-0.5c4.2-4.2,8.4-8.5,12.7-12.7C18.6,7.9,18.6,7.9,18.7,7.8z"/>
<path class="st0" d="M20.8,5.5c1.1-1,2.1-2,3.1-3c1.8-1.7,4.5-1.6,6.3,0c1.8,1.7,2.1,4.4,0.5,6.3c-1,1.2-2.3,2.2-3.4,3.3
	C25.2,9.9,23.1,7.8,20.8,5.5z"/>
</svg>
