<?xml version="1.0" encoding="utf-8"?>
<!-- Generator: Adobe Illustrator 25.3.0, SVG Export Plug-In . SVG Version: 6.00 Build 0)  -->
<svg version="1.1" id="Layer_1" xmlns="http://www.w3.org/2000/svg" xmlns:xlink="http://www.w3.org/1999/xlink" x="0px" y="0px"
	 width="327.5px" height="121px" viewBox="0 0 327.5 121" style="enable-background:new 0 0 327.5 121;" xml:space="preserve">
<style type="text/css">
	.st0{fill:#E3186D;}
	.st1{fill:#FFFFFF;}
	.st2{fill:#231F20;}
</style>
<g>
	<path class="st0" d="M24.2,85.4L24.2,85.4c-0.8-1.5-0.8-3.4,0-4.9l23.5-43.8c6.4-10,19.2-13.5,29.8-8.3l7.1,3.5
		c2.7,1.3,3.8,4.6,2.5,7.3v0c-1.3,2.7-4.6,3.8-7.3,2.5l-7.1-3.5c-5.7-2.8-12.5-0.9-15.9,4.4l-23.3,43C31.5,89.2,26.2,89.2,24.2,85.4
		z"/>
</g>
<path class="st1" d="M64.6,6.6c3.4,0,6.1,2.8,6.1,6.1c0,3.4-2.7,6.1-6.1,6.1c-3.4,0-6-2.7-6-6.1C58.6,9.4,61.2,6.6,64.6,6.6z
	 M59.5,82.8V52.3c0-2.9,2.3-5.2,5.2-5.2h0c2.9,0,5.2,2.3,5.2,5.2v30.5c0,2.9-2.3,5.2-5.2,5.2h0C61.8,88,59.5,85.7,59.5,82.8z"/>
<path class="st1" d="M113,76.1c3.1,1.9,3.3,6.3,0.4,8.5c-3.5,2.8-8,4.3-13.2,4.3c-12.6,0-21.8-9.1-21.8-21.4
	c0-12.2,9.1-21.3,21.8-21.3c5.2,0,9.6,1.6,13.2,4.3c2.9,2.2,2.6,6.6-0.4,8.5l0,0c-1.9,1.2-4.3,1-6-0.4c-1.7-1.5-4-2.3-6.7-2.3
	c-6.6,0-11.3,5-11.3,11.2c0,6.3,4.7,11.3,11.3,11.3c2.8,0,5-0.8,6.7-2.3C108.7,75,111.1,74.9,113,76.1L113,76.1z"/>
<path class="st1" d="M145,46.2c12.3,0,21.8,9.1,21.8,21.3c0,12.2-9.5,21.4-21.8,21.4c-12.3,0-21.7-9.1-21.7-21.4
	C123.3,55.4,132.7,46.2,145,46.2z M156.4,67.5c0-6.2-4.8-11.2-11.4-11.2c-6.5,0-11.2,5-11.2,11.2c0,6.3,4.7,11.3,11.2,11.3
	C151.5,78.8,156.4,73.8,156.4,67.5z"/>
<path class="st1" d="M274,71.4h-25.5c1.5,5.2,6,8,11.1,8c2.9,0,5.2-0.5,7.5-1.7c1.9-1,4.2-0.6,5.6,1v0c2,2.2,1.4,5.6-1.1,7.1
	c-3.7,2.1-7.7,3.1-12.3,3.1c-12.5,0-21.8-9.1-21.8-21.4c0-12.2,9.4-21.3,21.8-21.3c12.6,0,19.9,9.2,19.9,20c0,0,0,0,0,0.1
	C279.2,69.1,276.8,71.4,274,71.4z M269,63.7c-0.6-4.6-3.7-8.5-9.7-8.5c-5.2,0-9.4,3.3-10.8,8.5H269z"/>
<path class="st1" d="M299.7,73.2V56.8h5.9c2.7,0,4.8-2.2,4.8-4.8v0c0-2.7-2.2-4.8-4.8-4.8h-5.9h-12.3c-2.7,0-4.8,2.2-4.8,4.8v0
	c0,2.7,2.2,4.8,4.8,4.8h1.8v17.3c0,9.9,6,14.7,14.1,14.7c1.3,0,2.4,0,3.4-0.1c2.6-0.2,4.5-2.4,4.5-5v0c0-2.8-2.3-5-5.1-5
	c-0.3,0-0.6,0-1,0C302,78.7,299.7,77.3,299.7,73.2z"/>
<g>
	<path class="st1" d="M223,88.9L223,88.9c-2.7,0-4.8-2.2-4.8-4.8V65.8c0-4.2-3.2-7.8-7.4-8c-4.5-0.2-8.2,3.4-8.2,7.8v18.5
		c0,2.7-2.2,4.8-4.8,4.8l0,0c-2.7,0-4.8-2.2-4.8-4.8V65.9c0-9.8,8-18,17.8-17.8c9.5,0.2,17.2,7.9,17.2,17.5v18.5
		C227.9,86.7,225.7,88.9,223,88.9z"/>
</g>
<g>
	<path class="st0" d="M20.5,78.7L5.8,54.3c-1.6-2.6-0.7-6,2-7.5l0,0c2.6-1.4,5.8-0.6,7.3,1.9L26.8,68L20.5,78.7z"/>
</g>
<path class="st2" d="M171.8,75.4"/>
<path class="st1" d="M80.6,110.5l-3.4-8.5H79l2.5,6.3h0l2.5-6.3h1.8l-3.4,8.5H80.6z"/>
<path class="st1" d="M88.2,98.1c0.6,0,1.1,0.5,1.1,1.1c0,0.6-0.5,1.1-1.1,1.1c-0.6,0-1.1-0.5-1.1-1.1C87.1,98.6,87.6,98.1,88.2,98.1
	z M87.4,110.5v-8.5h1.7v8.5H87.4z"/>
<path class="st1" d="M92,110.5v-8.5h1.5v1.7c0.4-0.9,1.2-1.9,3.3-1.9v1.8c-2.4,0-3.2,1.4-3.2,3v3.9H92z"/>
<path class="st1" d="M99.1,103.5h-1.5v-1.5h0.8c0.5,0,0.8-0.3,0.8-0.8l0.1-1.7h1.5v2.4h2.5v1.5h-2.5v4.1c0,1,0.5,1.4,1.2,1.4
	c0.6,0,0.9,0,1.4-0.2v1.6c-0.5,0.1-1,0.2-1.5,0.2c-1.7,0-2.8-1-2.8-2.9V103.5z"/>
<path class="st1" d="M105.3,106.8v-4.8h1.7v4.6c0,1.8,0.8,2.5,2,2.5c1.2,0,2-0.7,2-2.5v-4.6h1.7v4.8c0,2.8-1.9,3.9-3.7,3.9
	C107.2,110.7,105.3,109.5,105.3,106.8z"/>
<path class="st1" d="M118.8,103.3c-1.2,0-1.9,0.6-2.3,1.2l-1.4-0.8c0.6-1,1.6-2,3.7-2s3.4,1.3,3.4,3v5.8h-1.6v-1.3
	c-0.5,0.9-1.5,1.5-3,1.5c-1.7,0-2.9-1-2.9-2.5c0-1.6,1.1-2.3,2.5-2.5l2.6-0.4c0.5-0.1,0.7-0.3,0.7-0.6
	C120.5,104.1,120,103.3,118.8,103.3z M120.5,106.5l-2.7,0.4c-0.9,0.1-1.4,0.5-1.4,1.2c0,0.8,0.6,1,1.5,1c1.6,0,2.6-0.8,2.6-2.3
	V106.5z"/>
<path class="st1" d="M125,110.5V98.3h1.7v12.2H125z"/>
<path class="st1" d="M140.4,108.7c-0.8,1.2-2.1,2-3.6,2c-2.6,0-4.5-2-4.5-4.5s1.9-4.5,4.5-4.5c1.6,0,2.9,0.7,3.6,2l-1.4,0.9
	c-0.5-0.8-1.2-1.3-2.2-1.3c-1.6,0-2.8,1.3-2.8,2.8c0,1.6,1.2,2.8,2.8,2.8c1,0,1.7-0.5,2.2-1.2L140.4,108.7z"/>
<path class="st1" d="M146.2,101.7c2.5,0,4.5,2,4.5,4.5s-2,4.5-4.5,4.5c-2.6,0-4.5-2-4.5-4.5S143.7,101.7,146.2,101.7z M149,106.2
	c0-1.5-1.2-2.8-2.8-2.8c-1.6,0-2.8,1.3-2.8,2.8c0,1.6,1.2,2.8,2.8,2.8C147.8,109,149,107.8,149,106.2z"/>
<path class="st1" d="M152.9,110.5V98.3h1.7v12.2H152.9z"/>
<path class="st1" d="M157.5,110.5V98.3h1.7v12.2H157.5z"/>
<path class="st1" d="M165.6,103.3c-1.2,0-1.9,0.6-2.3,1.2l-1.4-0.8c0.6-1,1.6-2,3.7-2c2.1,0,3.4,1.3,3.4,3v5.8h-1.6v-1.3
	c-0.5,0.9-1.5,1.5-3,1.5c-1.7,0-2.9-1-2.9-2.5c0-1.6,1.1-2.3,2.5-2.5l2.6-0.4c0.5-0.1,0.7-0.3,0.7-0.6
	C167.3,104.1,166.8,103.3,165.6,103.3z M167.3,106.5l-2.7,0.4c-0.9,0.1-1.4,0.5-1.4,1.2c0,0.8,0.6,1,1.5,1c1.6,0,2.6-0.8,2.6-2.3
	V106.5z"/>
<path class="st1" d="M171.8,110.5V98.3h1.7v4.9c0.6-0.7,1.5-1.4,3-1.4c2.4,0,4.3,2,4.3,4.5c0,2.5-2,4.5-4.3,4.5
	c-1.7,0-2.6-0.8-3.2-1.5v1.3H171.8z M173.5,106.2c0,1.6,1.2,2.8,2.8,2.8c1.6,0,2.8-1.3,2.8-2.8c0-1.5-1.2-2.8-2.8-2.8
	C174.7,103.4,173.5,104.7,173.5,106.2z"/>
<path class="st1" d="M186.7,101.7c2.5,0,4.5,2,4.5,4.5s-2,4.5-4.5,4.5c-2.6,0-4.5-2-4.5-4.5S184.2,101.7,186.7,101.7z M189.5,106.2
	c0-1.5-1.2-2.8-2.8-2.8c-1.6,0-2.8,1.3-2.8,2.8c0,1.6,1.2,2.8,2.8,2.8C188.3,109,189.5,107.8,189.5,106.2z"/>
<path class="st1" d="M193.4,110.5v-8.5h1.5v1.7c0.4-0.9,1.2-1.9,3.3-1.9v1.8c-2.4,0-3.2,1.4-3.2,3v3.9H193.4z"/>
<path class="st1" d="M203.5,103.3c-1.2,0-1.9,0.6-2.3,1.2l-1.4-0.8c0.6-1,1.6-2,3.7-2c2.1,0,3.4,1.3,3.4,3v5.8h-1.6v-1.3
	c-0.5,0.9-1.5,1.5-3,1.5c-1.7,0-2.9-1-2.9-2.5c0-1.6,1.1-2.3,2.5-2.5l2.6-0.4c0.5-0.1,0.7-0.3,0.7-0.6
	C205.2,104.1,204.7,103.3,203.5,103.3z M205.2,106.5l-2.7,0.4c-0.9,0.1-1.4,0.5-1.4,1.2c0,0.8,0.6,1,1.5,1c1.6,0,2.6-0.8,2.6-2.3
	V106.5z"/>
<path class="st1" d="M209.9,103.5h-1.5v-1.5h0.8c0.5,0,0.8-0.3,0.8-0.8l0.1-1.7h1.5v2.4h2.5v1.5h-2.5v4.1c0,1,0.5,1.4,1.2,1.4
	c0.6,0,0.9,0,1.4-0.2v1.6c-0.5,0.1-1,0.2-1.5,0.2c-1.7,0-2.8-1-2.8-2.9V103.5z"/>
<path class="st1" d="M217.1,98.1c0.6,0,1.1,0.5,1.1,1.1c0,0.6-0.5,1.1-1.1,1.1c-0.6,0-1.1-0.5-1.1-1.1
	C216,98.6,216.5,98.1,217.1,98.1z M216.2,110.5v-8.5h1.7v8.5H216.2z"/>
<path class="st1" d="M224.6,101.7c2.5,0,4.5,2,4.5,4.5s-2,4.5-4.5,4.5c-2.6,0-4.5-2-4.5-4.5S222.1,101.7,224.6,101.7z M227.4,106.2
	c0-1.5-1.2-2.8-2.8-2.8c-1.6,0-2.8,1.3-2.8,2.8c0,1.6,1.2,2.8,2.8,2.8C226.2,109,227.4,107.8,227.4,106.2z"/>
<path class="st1" d="M231.3,110.5v-8.5h1.6v1.5c0.3-0.8,1.2-1.7,2.8-1.7c1.8,0,3.2,1.1,3.2,3.8v4.9h-1.7v-4.6c0-1.8-0.8-2.5-2-2.5
	c-1.3,0-2.2,1.2-2.2,2.7v4.4H231.3z"/>
<path class="st1" d="M246.1,110.4v-8.5h1.6v1.5c0.3-0.8,1.2-1.7,2.8-1.7c1.8,0,3.2,1.1,3.2,3.8v4.9H252v-4.6c0-1.8-0.8-2.5-2-2.5
	c-1.3,0-2.2,1.2-2.2,2.7v4.4H246.1z"/>
<path class="st1" d="M264.2,106.8h-6.7c0.3,1.3,1.4,2.2,2.7,2.2c1,0,1.5-0.2,2.4-0.9l1,1.1c-1,0.9-2.1,1.3-3.4,1.3
	c-2.6,0-4.5-2-4.5-4.5c0-2.5,2-4.5,4.5-4.5c2.6,0,4.1,1.8,4.1,4.2C264.3,106.1,264.2,106.6,264.2,106.8z M262.6,105.3
	c-0.2-1.2-0.9-2.1-2.4-2.1c-1.3,0-2.4,0.9-2.7,2.1H262.6z"/>
<path class="st1" d="M266.7,103.4h-1.5v-1.5h0.8c0.5,0,0.8-0.3,0.8-0.8l0.1-1.7h1.5v2.4h2.5v1.5h-2.5v4.1c0,1,0.5,1.4,1.2,1.4
	c0.6,0,0.9,0,1.4-0.2v1.6c-0.5,0.1-1,0.2-1.5,0.2c-1.7,0-2.8-1-2.8-2.9V103.4z"/>
<path class="st1" d="M274.4,110.4l-2.8-8.5h1.7l1.9,6l2.1-6h1.7l2.1,6l1.9-6h1.8l-2.8,8.5h-1.7l-2.1-6.2l-2.1,6.2H274.4z"/>
<path class="st1" d="M290.2,101.7c2.5,0,4.5,2,4.5,4.5c0,2.5-2,4.5-4.5,4.5c-2.6,0-4.5-2-4.5-4.5
	C285.7,103.6,287.7,101.7,290.2,101.7z M293,106.1c0-1.5-1.2-2.8-2.8-2.8c-1.6,0-2.8,1.3-2.8,2.8c0,1.6,1.2,2.8,2.8,2.8
	C291.8,109,293,107.7,293,106.1z"/>
<path class="st1" d="M296.9,110.4v-8.5h1.5v1.7c0.4-0.9,1.2-1.9,3.3-1.9v1.8c-2.4,0-3.2,1.4-3.2,3v3.9H296.9z"/>
<path class="st1" d="M305.5,106.4v4h-1.7V98.2h1.7v7.4l3.4-3.8h2.1l-3.7,4.2l3.9,4.4h-2.1L305.5,106.4z"/>
<path class="st0" d="M178.6,76.9c3.4,0,6.1,2.8,6.1,6.1c0,3.4-2.7,6.1-6.1,6.1s-6-2.7-6-6.1C172.5,79.7,175.2,76.9,178.6,76.9z"/>
<g>
	<g>
		<path class="st1" d="M316.1,47.7v-5.1h-1.7v-0.8h4.3v0.8H317v5.1H316.1z"/>
		<path class="st1" d="M319.6,47.7v-6h0.9l2.1,3.4h0l2.1-3.4h0.9v6h-0.9v-4.3l-2,3.3h-0.2l-2-3.3v4.3H319.6z"/>
	</g>
</g>
</svg>
