<svg width="42" height="42" viewBox="0 0 42 42" fill="none" xmlns="http://www.w3.org/2000/svg">
<path d="M26.3339 1.24951C26.3339 3.45451 26.3339 5.65951 26.3339 7.86451C26.3339 9.63901 27.3734 10.6785 29.1374 10.6785C31.1114 10.6785 33.0854 10.6785 35.0699 10.6785C35.2064 10.6785 35.3429 10.6785 35.5109 10.6785C35.5109 12.873 35.5109 15.0465 35.5109 17.241C25.9034 17.241 16.2959 17.241 6.63589 17.241C6.63589 17.094 6.63589 16.9575 6.63589 16.8315C6.63589 13.146 6.66739 9.46051 6.62539 5.77501C6.59389 3.22351 8.47339 1.53301 10.2689 1.31251C10.3004 1.31251 10.3319 1.27051 10.3634 1.26001C15.6869 1.24951 21.0104 1.24951 26.3339 1.24951Z" fill="white"/>
<path d="M21.0734 34.8705C16.2854 34.8705 11.4974 34.8705 6.70938 34.8705C5.43888 34.8705 4.46238 34.3875 3.90588 33.2325C3.71688 32.823 3.61188 32.3295 3.60138 31.878C3.58038 28.7595 3.58038 25.6515 3.59088 22.533C3.60138 20.832 4.74588 19.6455 6.44688 19.551C6.56238 19.5405 6.67788 19.5405 6.79338 19.5405C16.3169 19.5405 25.8509 19.5405 35.3744 19.5405C36.4139 19.5405 37.2854 19.8345 37.9469 20.664C38.3774 21.1995 38.5664 21.8295 38.5664 22.5015C38.5769 25.641 38.5874 28.7805 38.5664 31.92C38.5559 33.663 37.3064 34.86 35.5214 34.86C31.9724 34.8705 28.4234 34.86 24.8849 34.86C23.6144 34.8705 22.3439 34.8705 21.0734 34.8705ZM18.2594 27.2475C18.2594 28.392 18.2804 29.526 18.2489 30.6705C18.2279 31.4265 18.5954 31.5525 19.0994 31.5525C19.9709 31.563 20.8529 31.5735 21.7139 31.5C23.0579 31.395 23.9294 30.4815 23.9714 29.1375C24.0029 27.909 24.0134 26.6805 23.9714 25.452C23.9294 24.087 23.2259 23.2575 21.8714 23.079C20.8844 22.953 19.8764 22.995 18.8789 23.0055C18.4484 23.0055 18.2594 23.268 18.2594 23.709C18.2594 24.8955 18.2594 26.0715 18.2594 27.2475ZM13.4084 28.497C14.0489 28.4655 14.6369 28.4655 15.2144 28.4025C15.8234 28.3395 16.3484 28.0875 16.7999 27.6675C17.5874 26.922 17.5874 25.137 17.1884 24.339C16.7474 23.4255 15.9389 23.079 14.9939 23.0265C14.1014 22.9845 13.1984 23.0055 12.2954 23.0055C11.7809 23.0055 11.5709 23.2365 11.5709 23.7615C11.5709 26.0925 11.5709 28.4235 11.5709 30.7545C11.5709 31.311 11.8439 31.5525 12.4739 31.563C13.1249 31.5735 13.3979 31.332 13.3979 30.744C13.4084 29.9985 13.4084 29.253 13.4084 28.497ZM27.0164 24.591C28.0034 24.591 28.9484 24.6015 29.9039 24.591C30.3554 24.591 30.5864 24.2865 30.5759 23.7615C30.5654 23.2575 30.3449 23.0055 29.8934 22.995C29.2949 22.9845 28.7069 22.995 28.1084 22.995C27.3839 22.995 26.6594 22.9845 25.9454 23.0055C25.4309 23.016 25.1789 23.226 25.1789 23.646C25.1684 26.061 25.1789 28.4865 25.1789 30.9015C25.1789 31.1955 25.3259 31.3635 25.5989 31.4685C26.4389 31.7835 27.0164 31.4055 27.0164 30.5025C27.0164 29.673 27.0164 28.833 27.0164 27.9615C27.5729 27.9615 28.0874 27.9615 28.6124 27.9615C29.1059 27.951 29.3159 27.741 29.3264 27.279C29.3264 26.796 29.0954 26.565 28.6019 26.565C28.0874 26.565 27.5729 26.565 27.0374 26.565C27.0164 25.893 27.0164 25.263 27.0164 24.591Z" fill="white"/>
<path d="M6.86719 37.1699C16.3487 37.1699 25.8092 37.1699 35.3012 37.1699C34.9022 38.3459 34.1672 39.1859 33.0962 39.7319C32.4767 40.0469 31.8047 40.1729 31.1117 40.1729C24.4232 40.1729 17.7347 40.1729 11.0462 40.1729C9.14569 40.1729 7.54969 39.0809 6.93019 37.3694C6.90919 37.3169 6.89869 37.2539 6.86719 37.1699Z" fill="white"/>
<path d="M34.9438 8.40011C34.7968 8.40011 34.6918 8.40011 34.5973 8.40011C32.7703 8.40011 30.9538 8.40011 29.1268 8.40011C28.6543 8.40011 28.6123 8.35811 28.6123 7.90661C28.6123 5.95361 28.6123 4.01111 28.6123 2.04761C29.0743 2.20511 34.4818 7.61261 34.9438 8.40011Z" fill="white"/>
<path d="M20.1074 24.5911C20.5274 24.5911 20.9159 24.5701 21.3044 24.6016C21.7769 24.6331 22.1129 24.9271 22.1234 25.3996C22.1549 26.6491 22.1549 27.8986 22.1234 29.1586C22.1129 29.5996 21.8189 29.8621 21.3779 29.9356C21.2519 29.9566 21.1259 29.9671 20.9999 29.9671C20.7164 29.9671 20.4224 29.9671 20.1074 29.9671C20.1074 28.1716 20.1074 26.4076 20.1074 24.5911Z" fill="white"/>
<path d="M13.4189 27.0479C13.4189 26.2079 13.4189 25.4204 13.4189 24.6014C13.9019 24.6014 14.3639 24.5699 14.8154 24.6119C15.2144 24.6539 15.4769 24.9059 15.5504 25.3154C15.5819 25.5149 15.6029 25.7144 15.6029 25.9139C15.5714 26.7434 15.2774 27.0374 14.4374 27.0479C14.1224 27.0584 13.7864 27.0479 13.4189 27.0479Z" fill="white"/>
</svg>
