<svg width="35" height="35" viewBox="0 0 35 35" fill="none" xmlns="http://www.w3.org/2000/svg">
<g clip-path="url(#clip0_1914_5198)">
<path d="M35 33.7001C34.5377 32.9373 34.0881 32.1681 33.6094 31.4163C33.365 31.028 32.9893 30.8965 32.5288 30.8965C22.5224 30.9026 12.5159 30.9026 2.50951 30.8965C2.04901 30.8965 1.6797 31.0353 1.42802 31.4181C1.02952 32.0247 0.600937 32.6185 0.26992 33.2616C-0.165958 34.1075 -0.00364304 34.5278 0.793343 35.0046H34.2486C34.5809 34.8495 34.8472 34.5811 35 34.2473V33.7001Z" fill="#363A3C"/>
<path d="M35 10.3129H0C0.199703 10.8144 0.320072 11.3077 0.57449 11.7188C1.06417 12.5081 1.6186 13.2572 2.16664 14.009C2.38641 14.3114 2.72107 14.4183 3.09768 14.4183C12.7102 14.4183 22.3224 14.4183 31.9342 14.4183C32.1161 14.4243 32.297 14.3894 32.4636 14.3162C32.6302 14.243 32.7784 14.1334 32.8972 13.9953C33.8091 12.9767 34.5669 11.8659 34.9426 10.5294C34.9508 10.4992 34.9799 10.4764 35 10.4499V10.3129Z" fill="#363A3C"/>
<path d="M35 34.2473C34.8463 34.5794 34.5801 34.8461 34.2486 35.0001H35V34.2473Z" fill="white"/>
<path d="M0.747643 8.24637H34.2549C34.1181 8.16416 34.0406 8.10934 33.9567 8.06367C28.6702 5.42844 23.384 2.79078 18.0981 0.150688C17.9245 0.053371 17.7293 0.00136025 17.5305 -0.000555444C17.3316 -0.00247114 17.1354 0.0457698 16.9601 0.139725C11.6346 2.80175 6.30802 5.46133 0.980175 8.11848C0.924549 8.14588 0.870747 8.17786 0.747643 8.24637Z" fill="#363A3C"/>
<path d="M24.7048 16.4855V28.8181H30.8828V16.4855H24.7048Z" fill="#363A3C"/>
<path d="M10.3369 28.8209V16.4883H4.16527V28.8209H10.3369Z" fill="#363A3C"/>
<path d="M14.4632 16.4919V28.8246H20.5664V16.4919H14.4632Z" fill="#363A3C"/>
</g>
<defs>
<clipPath id="clip0_1914_5198">
<rect width="35" height="35" fill="white" transform="matrix(-1 0 0 1 35 0)"/>
</clipPath>
</defs>
</svg>
