<svg width="14" height="14" viewBox="0 0 14 14" fill="none" xmlns="http://www.w3.org/2000/svg">
<path d="M7.00583 0.254395C3.29484 0.254395 0.289062 3.26017 0.289062 6.97116C0.289062 10.6821 3.29484 13.6879 7.00583 13.6879C10.7168 13.6879 13.7226 10.6821 13.7226 6.97116C13.7226 3.26017 10.7168 0.254395 7.00583 0.254395ZM10.5434 7.71104C10.4509 7.7226 10.37 7.71104 10.2775 7.71104C9.50294 7.71104 8.72837 7.71104 7.96536 7.71104C7.91912 7.71104 7.87288 7.71104 7.81507 7.71104C7.81507 7.76885 7.81507 7.81509 7.81507 7.86133C7.81507 8.70526 7.81507 9.56075 7.81507 10.4047C7.81507 10.7746 7.61854 11.0636 7.3064 11.1677C6.79773 11.3411 6.28906 10.9943 6.2775 10.4509C6.26594 10.1041 6.2775 9.75729 6.2775 9.41046C6.2775 8.89023 6.2775 8.38156 6.2775 7.86133C6.2775 7.81509 6.2775 7.76885 6.2775 7.71104C6.2197 7.71104 6.17346 7.71104 6.12721 7.71104C5.28328 7.71104 4.42779 7.71104 3.58386 7.71104C3.22548 7.71104 2.93646 7.51451 2.82085 7.21393C2.63588 6.6937 2.99426 6.18503 3.5723 6.17347C4.2197 6.17347 4.8671 6.17347 5.5145 6.17347C5.75727 6.17347 6.01161 6.17347 6.2775 6.17347C6.2775 6.12723 6.2775 6.08098 6.2775 6.03474C6.2775 5.20237 6.2775 4.35844 6.2775 3.52607C6.2775 3.16769 6.47403 2.87867 6.77461 2.76306C7.28328 2.57809 7.79195 2.93648 7.80351 3.47983C7.81507 3.76885 7.80351 4.06942 7.80351 4.35844C7.80351 4.9596 7.80351 5.54919 7.80351 6.16191C7.86132 6.16191 7.90756 6.16191 7.9538 6.16191C8.78617 6.16191 9.60698 6.16191 10.4394 6.16191C10.8093 6.16191 11.0983 6.35844 11.2024 6.67058C11.3758 7.17925 11.0521 7.67636 10.5434 7.71104Z" fill="white"/>
</svg>
