<svg width="25" height="26" viewBox="0 0 25 26" fill="none" xmlns="http://www.w3.org/2000/svg">
<path d="M0.575195 14.4107C0.575195 13.3607 0.575195 12.3232 0.575195 11.2732C0.712695 10.9857 0.950195 10.8232 1.2377 10.6982C1.5752 10.5607 1.8877 10.3982 2.2127 10.2232C2.3002 10.1732 2.3877 10.0732 2.4252 9.98569C2.6752 9.14819 3.0002 8.34819 3.4502 7.59819C3.5252 7.48569 3.5252 7.38569 3.4627 7.26069C3.3002 6.97319 3.1627 6.67319 3.0127 6.37319C2.8252 5.98569 2.8627 5.73569 3.1627 5.43569C3.7752 4.82319 4.3877 4.19819 5.0127 3.59819C5.3002 3.31069 5.5627 3.27319 5.9377 3.44819C6.2502 3.59819 6.5502 3.76069 6.8627 3.91069C6.9377 3.94819 7.0627 3.94819 7.1252 3.89819C7.9002 3.46069 8.7002 3.11069 9.5627 2.86069C9.6502 2.83569 9.7502 2.73569 9.8002 2.64819C10.0002 2.27319 10.1752 1.89819 10.3502 1.51069C10.5002 1.17319 10.7377 1.02319 11.1127 1.02319C11.9752 1.02319 12.8377 1.02319 13.7002 1.02319C14.0502 1.02319 14.3002 1.17319 14.4502 1.49819C14.6377 1.88569 14.8127 2.27319 15.0127 2.66069C15.0627 2.74819 15.1627 2.83569 15.2502 2.87319C16.1002 3.12319 16.9002 3.46069 17.6627 3.91069C17.7752 3.97319 17.8627 3.97319 17.9752 3.91069C18.2627 3.76069 18.5627 3.61069 18.8627 3.46069C19.2502 3.27319 19.5127 3.31069 19.8002 3.61069C20.4127 4.22319 21.0377 4.83569 21.6377 5.44819C21.9252 5.73569 21.9627 5.99819 21.7877 6.37319C21.6377 6.68569 21.4752 6.98569 21.3252 7.29819C21.2877 7.37319 21.2877 7.49819 21.3377 7.56069C21.8252 8.39819 22.1877 9.29819 22.4502 10.2357C22.4752 10.3232 22.5627 10.4107 22.6502 10.4357C22.9752 10.5607 23.3002 10.6482 23.6377 10.7607C24.0377 10.8982 24.2127 11.1232 24.2127 11.5482C24.2127 12.4107 24.2127 13.2732 24.2127 14.1357C24.2127 14.5482 24.0377 14.7732 23.6502 14.9107C23.3252 15.0232 22.9877 15.1107 22.6627 15.2357C22.5752 15.2732 22.4752 15.3607 22.4502 15.4607C22.2127 16.3107 21.8877 17.1107 21.4627 17.8857C21.4127 17.9607 21.4127 18.0982 21.4377 18.1857C21.5502 18.5857 21.6877 18.9732 21.8252 19.3732C21.9502 19.7232 21.8877 20.0107 21.6127 20.2732C21.0127 20.8732 20.4127 21.4607 19.8127 22.0732C19.5502 22.3482 19.2502 22.4232 18.8877 22.2857C18.5002 22.1482 18.1127 22.0232 17.7252 21.8982C17.6377 21.8732 17.5127 21.8732 17.4252 21.9107C16.6502 22.3357 15.8252 22.6607 14.9752 22.8982C14.8877 22.9232 14.8002 23.0232 14.7752 23.0982C14.6627 23.3857 14.5752 23.6732 14.4877 23.9732C14.4002 24.2982 14.2377 24.5482 13.9002 24.6482C12.8877 24.6482 11.8752 24.6482 10.8502 24.6482C10.5127 24.5357 10.3502 24.2857 10.2627 23.9732C10.1752 23.6732 10.0877 23.3857 9.9752 23.0982C9.9377 23.0107 9.85019 22.9232 9.7752 22.8982C8.92519 22.6607 8.1002 22.3357 7.3252 21.9107C7.2502 21.8607 7.1127 21.8607 7.0252 21.8982C6.6377 22.0107 6.2502 22.1357 5.8627 22.2857C5.5002 22.4232 5.2127 22.3482 4.9377 22.0732C4.3502 21.4732 3.7502 20.8732 3.1377 20.2732C2.8752 20.0107 2.8002 19.7232 2.9252 19.3732C3.0627 18.9857 3.2002 18.5857 3.3127 18.1857C3.3377 18.0982 3.3377 17.9732 3.2877 17.8857C2.9002 17.1857 2.6002 16.4482 2.3752 15.6732C2.3502 15.5857 2.2752 15.5107 2.1877 15.4607C1.8627 15.2857 1.5377 15.1232 1.2002 14.9732C0.950195 14.8482 0.712695 14.6857 0.575195 14.4107ZM12.3877 20.4482C16.5627 20.4607 20.0127 17.0232 20.0127 12.8357C20.0127 8.66069 16.6127 5.24819 12.4127 5.22319C8.2377 5.19819 4.8002 8.62319 4.7752 12.8232C4.7627 16.9982 8.2002 20.4357 12.3877 20.4482Z" fill="#27276C"/>
<path d="M15.8499 11.4607C15.8499 13.3607 14.2749 14.9232 12.3749 14.9107C10.4749 14.8982 8.91238 13.3357 8.92488 11.4357C8.94988 9.53574 10.4999 7.98574 12.3999 7.99824C14.2999 7.99824 15.8624 9.56074 15.8499 11.4607Z" fill="#27276C"/>
<path d="M9.03727 14.9482C10.9123 16.7357 13.8748 16.7482 15.7623 14.9482C16.2248 15.3732 16.5623 15.8982 16.8123 16.4607C17.0373 16.9732 17.0373 16.9857 16.6248 17.3607C15.0998 18.7607 13.3123 19.3107 11.2623 18.9482C9.92477 18.7107 8.79977 18.0607 7.87477 17.0732C7.82477 17.0232 7.79977 16.9232 7.81227 16.8607C8.02477 16.1982 8.52477 15.4107 9.03727 14.9482Z" fill="#2B2A6B"/>
</svg>
