<svg width="113" height="113" viewBox="0 0 113 113" fill="none" xmlns="http://www.w3.org/2000/svg">
<path d="M56.4657 4.10168C27.5492 4.10168 4.10156 27.5494 4.10156 56.4659C4.10156 85.3824 27.5492 108.898 56.5341 108.898C85.519 108.898 108.967 85.4507 108.967 56.4659C108.967 27.481 85.4506 4.10168 56.4657 4.10168ZM87.1596 44.5028C86.8178 44.9129 86.476 45.2547 86.1342 45.6649C75.4016 56.3975 64.7374 67.0618 54.0048 77.7944C51.7489 80.0503 49.1512 80.8706 46.1433 79.8452C44.9812 79.435 43.8874 78.7514 42.9987 77.8627C37.5299 72.4622 32.061 67.0618 26.6605 61.5929C22.764 57.6964 23.721 51.6806 28.7114 49.4247C31.2407 48.2626 34.2486 48.7411 36.4361 50.5869C38.3502 52.2275 40.0592 54.1416 41.9049 55.919C43.7507 57.7647 45.6648 59.6788 47.5789 61.6613C48.0574 62.1398 48.8094 62.1398 49.3562 61.6613C58.1064 52.7744 66.9249 43.9559 75.6751 35.2057C78.4095 32.4713 81.8959 31.9244 85.0405 33.7018C88.8003 35.8893 89.8257 41.1531 87.1596 44.5028Z" fill="#35B736"/>
</svg>
