<?xml version="1.0" encoding="utf-8"?>
<!-- Generator: Adobe Illustrator 25.3.0, SVG Export Plug-In . SVG Version: 6.00 Build 0)  -->
<svg version="1.1" id="Layer_1" xmlns="http://www.w3.org/2000/svg" xmlns:xlink="http://www.w3.org/1999/xlink" x="0px" y="0px"
	 width="39.8px" height="41px" viewBox="0 0 39.8 41" style="enable-background:new 0 0 39.8 41;" xml:space="preserve">
<style type="text/css">
	.st0{fill:#27276C;}
	.st1{fill:#E4186D;}
</style>
<path class="st0" d="M30.4,25.2c4.5,0,7.8,3.2,7.7,7.8c0,4.5-3.2,7.7-7.7,7.7c-4.5,0-7.8-3.2-7.7-7.8C22.7,28.5,25.9,25.2,30.4,25.2
	z M28.5,33c0,0.2,0,0.3,0,0.5c0,1.5,0,3,0,4.6c0,0.5,0.2,0.8,0.8,0.8c0.8,0,1.5,0,2.3,0c0.6,0,0.8-0.2,0.8-0.8c0-1.5,0-3,0-4.5
	c0-0.1,0-0.3,0-0.4c0.4,0,0.8,0,1.2,0c0.2,0,0.6-0.2,0.6-0.4c0.1-0.2,0-0.5-0.1-0.7c-1-1.5-2-2.9-3.1-4.3c-0.4-0.5-0.8-0.5-1.2,0
	c-1,1.4-2.1,2.9-3.1,4.3c-0.1,0.2-0.2,0.5-0.1,0.7c0.1,0.2,0.4,0.3,0.6,0.3C27.7,33,28,33,28.5,33z"/>
<path class="st1" d="M33.6,2.6c0-1.4-0.8-2.2-2.2-2.2c-9.3,0-18.6,0-27.9,0c-1.4,0-2.2,0.8-2.2,2.2c0,2.5,0,18,0,32
	c0,1.4,0.8,2.2,2.2,2.2c6.1,0,12.1,0,18.2,0c0.1,0,0.3,0,0.5,0c-1.3-2.9-1.2-5.7,0.4-8.4c1.6-2.7,4-4.1,7.1-4.5c0-0.9,0-1.7,0-2.6
	c0.9,0,1.7,0,2.5,0c0,0.9,0,1.7,0,2.6c-0.3,0-0.6,0-1,0c0.8,0.2,1.5,0.4,2.3,0.5c0-0.1,0-0.3,0-0.4C33.6,11,33.6,2.6,33.6,2.6z
	 M5.2,9.8v2.5H2.7V9.8H5.2z M2.7,8.3V5.8h2.5v2.5H2.7z M5.2,13.7v2.5H2.7v-2.5H5.2z M5.2,25.3c0,0.8,0,1.7,0,2.5c-0.8,0-1.7,0-2.5,0
	c0-0.9,0-1.7,0-2.5C3.5,25.3,4.3,25.3,5.2,25.3z M2.7,23.9c0-0.9,0-1.7,0-2.5c0.9,0,1.7,0,2.5,0c0,0.8,0,1.7,0,2.5
	C4.4,23.9,3.5,23.9,2.7,23.9z M2.7,29.1c0.8,0,1.7,0,2.5,0c0,0.9,0,1.7,0,2.5c-0.8,0-1.7,0-2.5,0C2.7,30.8,2.7,30,2.7,29.1z M5.2,20
	c-0.9,0-1.7,0-2.5,0c0-0.8,0-1.7,0-2.5c0.8,0,1.7,0,2.5,0C5.2,18.3,5.2,19.2,5.2,20z M2.7,2.3c0-0.4,0.3-0.6,0.6-0.6
	c0.6,0,1.3,0,1.9,0c0,0.9,0,1.7,0,2.6c-0.9,0-1.7,0-2.5,0C2.7,3.6,2.6,2.9,2.7,2.3z M5.2,35.5c-0.7,0-1.3,0-2,0
	c-0.4,0-0.6-0.3-0.6-0.7c0-0.6,0-1.2,0-1.9c0.9,0,1.7,0,2.6,0C5.2,33.9,5.2,34.7,5.2,35.5z M23.2,19.5c-3.3,2.1-6.7,4.3-10,6.4
	c-0.8,0.5-1.5,0.6-2.3,0.2c-0.8-0.4-1.1-1.2-1.1-2c0-2.1,0-4.3,0-6.4c0-2.1,0-4.2,0-6.4c0-0.9,0.3-1.6,1.1-2
	c0.8-0.4,1.5-0.3,2.3,0.2c3.4,2.1,6.7,4.3,10.1,6.4C24.7,16.7,24.7,18.5,23.2,19.5z M32.3,20c-0.8,0-1.7,0-2.5,0c0-0.8,0-1.7,0-2.5
	c0.8,0,1.7,0,2.5,0C32.3,18.4,32.3,19.2,32.3,20z M32.3,16.1h-2.5v-2.5h2.5V16.1z M32.3,12.2h-2.5V9.6h2.5V12.2z M32.3,8.2h-2.5V5.7
	h2.5V8.2z M32.3,4.3c-0.9,0-1.7,0-2.5,0c0-0.8,0-1.7,0-2.6c0.7,0,1.3,0,1.9,0c0.4,0,0.6,0.2,0.6,0.6C32.4,2.9,32.3,3.6,32.3,4.3z"/>
</svg>
