<svg width="59" height="58" viewBox="0 0 59 58" fill="none" xmlns="http://www.w3.org/2000/svg">
<path d="M29.2199 0.446167C29.5233 0.446167 29.8155 0.446167 30.1189 0.446167C30.4898 0.613475 30.8606 0.780782 31.2315 0.959244C39.6039 5.11963 47.9762 9.28001 56.3486 13.4404C57.1016 13.8196 57.8208 14.21 58.2816 14.9462C58.2816 15.5373 58.2816 16.1396 58.2816 16.7308C57.8208 17.5004 57.0791 17.8908 56.3037 18.27C53.7189 19.5416 51.1341 20.8242 48.5494 22.1181C48.3808 22.2073 48.2122 22.2966 47.9762 22.4304C48.2122 22.5531 48.3471 22.6423 48.4932 22.7092C51.0892 24.0031 53.6852 25.2969 56.2924 26.5796C57.0679 26.9589 57.8096 27.3492 58.2703 28.1189C58.2703 28.71 58.2703 29.3123 58.2703 29.9035C57.8096 30.6731 57.0679 31.0635 56.2924 31.4427C53.7077 32.7142 51.1229 34.0081 48.5381 35.2908C48.3696 35.38 48.201 35.4692 47.965 35.6031C48.201 35.7258 48.3359 35.815 48.4819 35.8819C51.0779 37.1758 53.6739 38.4696 56.2812 39.7523C57.0566 40.1315 57.7983 40.5219 58.2591 41.2915C58.2591 41.8827 58.2591 42.485 58.2591 43.0762C57.7983 43.8458 57.0566 44.2362 56.2812 44.6154C52.1905 46.6342 48.1111 48.6754 44.0204 50.6942C39.3791 52.9919 34.749 55.2785 30.1077 57.5762C29.8042 57.5762 29.512 57.5762 29.2086 57.5762C28.9389 57.4535 28.6579 57.3419 28.3995 57.2081C25.2753 55.6577 22.1623 54.1073 19.0381 52.5458C13.509 49.8019 7.99109 47.0469 2.46195 44.3031C1.85509 44.0019 1.34938 43.6227 1.10214 42.9758C0.675093 41.8604 1.13585 40.7115 2.29338 40.1315C5.12538 38.715 7.96862 37.3096 10.8006 35.8931C10.9692 35.8039 11.1378 35.7146 11.3738 35.5808C11.104 35.4358 10.9242 35.3465 10.7444 35.2462C7.96862 33.8631 5.20405 32.4912 2.42824 31.1192C1.82138 30.8181 1.3269 30.4165 1.0909 29.7696C0.686331 28.6431 1.16957 27.5277 2.33833 26.9477C5.15909 25.5423 7.97985 24.1369 10.8006 22.7427C10.9692 22.6535 11.1378 22.5531 11.3738 22.4192C11.1153 22.2854 10.9355 22.185 10.7557 22.0958C8.00233 20.7239 5.249 19.3408 2.49566 17.9912C1.58538 17.545 0.978522 16.9092 0.967284 15.8608C0.967284 14.8123 1.55166 14.1654 2.47319 13.7081C7.44043 11.2542 12.3852 8.77809 17.3524 6.32424C21.297 4.35001 25.264 2.39809 29.2199 0.446167ZM51.0555 15.8385C50.8644 15.7381 50.752 15.66 50.6172 15.5931C43.7732 12.1912 36.9292 8.78924 30.0964 5.36501C29.7705 5.1977 29.5233 5.23117 29.2086 5.38732C22.3983 8.77809 15.588 12.1689 8.77776 15.5485C8.62043 15.6265 8.47433 15.7269 8.28328 15.8385C8.46309 15.9389 8.57547 16.0058 8.68786 16.0616C15.5431 19.4746 22.4096 22.8766 29.2648 26.3008C29.6019 26.4681 29.8492 26.4123 30.1526 26.2562C36.9404 22.8765 43.7395 19.4969 50.5273 16.1173C50.6846 16.0504 50.8419 15.9612 51.0555 15.8385ZM8.24957 28.9889C8.44062 29.1004 8.54176 29.1673 8.65414 29.2231C15.5319 32.6473 22.3983 36.0604 29.2873 39.4623C29.5008 39.5739 29.8717 39.5516 30.0964 39.44C36.9404 36.0492 43.7844 32.6473 50.6284 29.2342C50.752 29.1673 50.8644 29.1004 51.0442 28.9889C50.8195 28.8662 50.6621 28.7769 50.5048 28.6877C48.156 27.5166 45.796 26.3566 43.4473 25.1742C43.0539 24.9735 42.7618 24.9623 42.3684 25.1631C38.5924 27.0592 34.7827 28.9219 31.0067 30.8292C30.0739 31.2977 29.2311 31.2977 28.2983 30.8292C24.5111 28.9108 20.6901 27.0369 16.8917 25.1408C16.5545 24.9735 16.296 24.9735 15.9589 25.1408C14.0597 26.1 12.1604 27.0369 10.2612 27.985C9.62062 28.3085 8.98005 28.6208 8.24957 28.9889ZM8.24957 42.1504C8.45186 42.2731 8.56424 42.34 8.67662 42.3846C15.5543 45.8089 22.4208 49.2219 29.3098 52.6239C29.5233 52.7354 29.8941 52.7019 30.1189 52.5904C36.9517 49.2108 43.7732 45.8089 50.5947 42.4181C50.7296 42.3512 50.8644 42.2619 51.0555 42.1504C50.8307 42.0277 50.6734 41.9385 50.5048 41.8492C48.1336 40.6669 45.7623 39.4958 43.4023 38.3023C43.054 38.1239 42.773 38.1239 42.4134 38.3023C38.6261 40.1985 34.8277 42.0612 31.0517 43.9685C30.0739 44.4592 29.2086 44.4481 28.2421 43.9573C24.4661 42.05 20.6789 40.1762 16.8804 38.3023C16.6781 38.2019 16.3522 38.135 16.1612 38.2242C13.554 39.4958 10.958 40.8008 8.24957 42.1504Z" fill="url(#paint0_linear_2481_3787)"/>
<defs>
<linearGradient id="paint0_linear_2481_3787" x1="29.6134" y1="0.446167" x2="29.6134" y2="57.5762" gradientUnits="userSpaceOnUse">
<stop stop-color="#27276C"/>
<stop offset="1" stop-color="#E4186D"/>
</linearGradient>
</defs>
</svg>
