<?xml version="1.0" encoding="utf-8"?>
<!-- Generator: Adobe Illustrator 25.3.0, SVG Export Plug-In . SVG Version: 6.00 Build 0)  -->
<svg version="1.1" id="Layer_1" xmlns="http://www.w3.org/2000/svg" xmlns:xlink="http://www.w3.org/1999/xlink" x="0px" y="0px"
	 width="158.5px" height="158.5px" viewBox="0 0 158.5 158.5" style="enable-background:new 0 0 158.5 158.5;" xml:space="preserve"
	>
<path d="M158.3,58.5c0,1.1,0,2.3,0,3.4c-0.1,0.5-0.2,1.1-0.3,1.6c-0.6,6-1.1,12-1.7,18c-1,10.7-2,21.3-3,32
	c-0.9,9.3-1.7,18.6-2.6,27.8c-0.6,5.6-3.5,8.1-9.1,8.1c-11.6,0-23.3,0-34.9,0c-29.9,0-59.7-0.1-89.6,0.1c-5.4,0-9.2-2.8-9.6-9
	c-0.4-6.2-1.1-12.3-1.6-18.4c-1-10.7-2-21.3-3-32C2,80.7,1.3,71.3,0.2,61.9c-0.7-5.8,3.2-10,8.8-10C55.9,52,102.7,52,149.5,52
	c1,0,2,0.1,2.9,0.3C155.7,53.1,157.4,55.5,158.3,58.5z M89,104.9c12-7.8,11.2-22.2,4.4-29.5c-7.4-7.9-19.6-8.3-27.4-0.7
	c-3.8,3.7-5.8,8.2-5.8,13.4c0,7.2,3.3,12.8,9.3,16.9c-2.1,0.2-4.1,0.1-6.2,0.2c-10.2,0.4-18.6,9-18.7,19.2c0,4.7,3.3,8.3,8.1,8.3
	c17.7,0,35.4,0,53.1,0c4.7,0,8.1-3.6,8-8.4c-0.2-9.2-7-17.3-16.1-18.8C94.9,105,92,105.1,89,104.9z"/>
<path d="M79.1,43.1c-18.8,0-37.7,0-56.5,0c-0.9,0-1.9,0-2.7-0.3c-2.7-0.7-4.4-3.2-4.3-6c0.1-2.6,2-4.9,4.6-5.4
	c0.7-0.2,1.5-0.2,2.3-0.2c37.8,0,75.7,0,113.5,0c4.3,0,7,2.4,6.9,6.1c0,3.1-2.4,5.6-5.5,5.8c-0.6,0.1-1.2,0-1.9,0
	C116.8,43.1,97.9,43.1,79.1,43.1z"/>
<path d="M79.2,9c13.8,0,27.6,0,41.4,0c4,0,6.6,2.6,6.5,6.2c-0.1,2.8-2.2,5.2-5,5.6c-0.6,0.1-1.2,0.1-1.8,0.1c-27.3,0-54.7,0-82,0
	c-3.6,0-5.8-1.5-6.7-4.3c-1.1-3.6,1.4-7.3,5.2-7.6c1-0.1,2,0,2.9,0C52.9,9,66,9,79.2,9z"/>
</svg>
