<svg width="34" height="34" viewBox="0 0 34 34" fill="none" xmlns="http://www.w3.org/2000/svg">
<path d="M1.0979 26.4652C1.30155 26.0225 1.64686 25.8542 2.12498 25.8896C2.53228 25.9162 2.94842 25.8985 3.39998 25.8985C3.39998 25.7568 3.39998 25.6417 3.39998 25.5266C3.39998 23.8797 3.39998 22.2417 3.39998 20.5948C3.39998 19.9573 3.69217 19.6652 4.33853 19.6652C5.66665 19.6652 7.00363 19.6652 8.33175 19.6652C8.98696 19.6652 9.27915 19.9573 9.27915 20.6214C9.27915 22.2506 9.27915 23.8886 9.27915 25.5178C9.27915 25.6329 9.27915 25.7391 9.27915 25.8896C9.76613 25.8896 10.2177 25.8985 10.6693 25.8896C11.0323 25.8808 11.3245 25.987 11.4927 26.3323C11.6698 26.6865 11.5547 26.9876 11.3156 27.2797C9.88123 29.0329 8.46457 30.8037 7.03019 32.5568C6.89738 32.7162 6.69373 32.8225 6.5255 32.9553C6.40155 32.9553 6.27759 32.9553 6.15363 32.9553C5.96769 32.7959 5.74634 32.6631 5.59582 32.486C4.9229 31.6803 4.26769 30.8657 3.60363 30.0422C2.76248 28.9975 1.93905 27.9527 1.0979 26.9079C1.0979 26.7573 1.0979 26.6068 1.0979 26.4652Z" fill="#1F58A4"/>
<path d="M12.9448 1.0094C13.0865 1.0094 13.1839 1.0094 13.2901 1.0094C17.6907 1.0094 22.0823 1.0094 26.4829 1.0094C27.2532 1.0094 27.6073 1.36357 27.6073 2.13388C27.6073 4.15263 27.6073 6.17138 27.6073 8.18127C27.6073 8.28752 27.6073 8.38492 27.6073 8.52659C27.448 8.52659 27.3151 8.52659 27.1823 8.52659C23.7381 8.52659 20.3026 8.52659 16.8584 8.52659C14.9547 8.52659 13.4052 9.79273 13.0422 11.6433C12.9891 11.9 12.9714 12.1568 12.9714 12.4224C12.9625 15.1495 12.9625 17.8677 12.9714 20.5948C12.9802 22.525 14.2464 24.0657 16.1146 24.4287C16.398 24.4818 16.6901 24.4907 16.9823 24.4907C20.3823 24.4907 23.7823 24.4907 27.1823 24.4907C27.3063 24.4907 27.4302 24.4907 27.6073 24.4907C27.6073 24.6235 27.6073 24.7297 27.6073 24.836C27.6073 26.5448 27.6073 28.2448 27.6073 29.9537C27.6073 30.7063 27.2532 31.0693 26.5094 31.0693C21.3386 31.0693 16.1766 31.0693 11.0058 31.0693C10.9084 31.0693 10.811 31.0693 10.6427 31.0693C11.05 30.5646 11.4131 30.1219 11.7761 29.6703C12.1302 29.2365 12.4844 28.8026 12.8386 28.3599C14.1047 26.7573 13.3344 24.5526 11.3511 24.0657C11.2891 24.0479 11.236 24.0302 11.1474 24.0037C11.1474 22.8969 11.1474 21.7813 11.1474 20.6745C11.1474 20.4443 11.1474 20.2141 11.1032 19.9927C10.8641 18.7 9.81045 17.8058 8.50003 17.788C7.49951 17.7792 6.50785 17.788 5.50732 17.788C5.39222 17.788 5.27712 17.788 5.11774 17.788C5.11774 17.6552 5.11774 17.549 5.11774 17.4427C5.11774 14.6891 5.1266 11.9354 5.10889 9.17294C5.10889 8.88075 5.18857 8.80992 5.47191 8.80992C7.59691 8.81877 9.71305 8.81877 11.8381 8.81877C12.5907 8.81877 12.9448 8.46461 12.9448 7.72086C12.9448 5.62242 12.9448 3.52398 12.9448 1.41669C12.9448 1.30159 12.9448 1.17763 12.9448 1.0094Z" fill="#1F58A4"/>
<path d="M23.9328 10.4036C26.2438 10.4036 28.5459 10.4036 30.8568 10.4036C32.2557 10.4036 33.0349 11.1828 33.0349 12.5817C33.0349 15.2203 33.0349 17.8677 33.0349 20.5062C33.0349 21.8166 32.2292 22.6312 30.9188 22.6312C26.2615 22.6312 21.6042 22.6312 16.9469 22.6312C15.6542 22.6312 14.8396 21.8166 14.8396 20.5239C14.8396 17.8499 14.8396 15.176 14.8396 12.5109C14.8396 11.2093 15.6453 10.4124 16.9469 10.4036C19.2755 10.3947 21.6042 10.4036 23.9328 10.4036ZM22.0203 16.4864C22.0203 17.2744 22.0115 18.0624 22.0203 18.8593C22.0292 19.426 22.2682 19.6473 22.8349 19.6385C23.2511 19.6296 23.6672 19.6296 24.0834 19.6208C25.1104 19.6031 25.8365 19.0984 26.2969 18.2041C26.7839 17.2567 26.8104 16.2651 26.5005 15.2645C26.1375 14.0604 25.261 13.4229 24.0037 13.3963C23.5964 13.3874 23.1891 13.3963 22.7906 13.3963C22.2328 13.4052 22.0203 13.6177 22.0203 14.1755C22.0203 14.9458 22.0203 15.7161 22.0203 16.4864ZM18.275 17.4604C18.5495 17.4604 18.7974 17.4692 19.0453 17.4604C20.2141 17.4161 21.1083 16.5395 21.1083 15.4239C21.1083 14.3171 20.2229 13.4317 19.0453 13.3963C18.6469 13.3874 18.2573 13.3874 17.8589 13.3963C17.2214 13.3963 17.0266 13.5999 17.0177 14.2374C17.0177 15.7515 17.0177 17.2744 17.0177 18.7885C17.0177 18.9213 17.0177 19.063 17.0531 19.1869C17.1682 19.6119 17.7172 19.7802 18.0271 19.4791C18.1599 19.3463 18.2396 19.1249 18.2485 18.9302C18.2927 18.4609 18.275 17.9828 18.275 17.4604ZM28.8557 14.6447C28.9974 14.6447 29.1125 14.6447 29.2365 14.6447C29.5906 14.6447 29.9448 14.6536 30.2901 14.627C30.6354 14.6005 30.8568 14.3171 30.8479 13.9895C30.8391 13.6708 30.6089 13.414 30.2724 13.4052C29.5641 13.3874 28.8646 13.3874 28.1563 13.4052C27.8464 13.414 27.6073 13.6265 27.5985 13.9276C27.5896 15.6541 27.5896 17.3718 27.5985 19.0984C27.5985 19.3906 27.8641 19.6031 28.1651 19.6208C28.475 19.6385 28.7318 19.4437 28.8026 19.1427C28.8292 19.0098 28.8292 18.877 28.8292 18.7442C28.8292 18.2041 28.8292 17.6729 28.8292 17.1505C28.8823 17.1239 28.9 17.1062 28.9177 17.1062C29.2719 17.1062 29.6261 17.1062 29.9802 17.0973C30.4141 17.0885 30.6797 16.8494 30.6797 16.4687C30.6797 16.088 30.4229 15.8578 29.9802 15.8489C29.6084 15.8489 29.2365 15.8489 28.8469 15.8489C28.8557 15.4328 28.8557 15.0609 28.8557 14.6447Z" fill="#1F58A4"/>
<path d="M11.0588 1.69116C11.0588 3.40002 11.0588 5.162 11.0588 6.94168C9.28797 6.94168 7.52599 6.94168 5.81714 6.94168C7.55255 5.19741 9.30568 3.43543 11.0588 1.69116Z" fill="#1F58A4"/>
<path d="M23.2954 18.3724C23.2954 17.124 23.2954 15.9109 23.2954 14.6979C24.473 14.4854 25.1282 14.7688 25.3761 15.849C25.5001 16.3891 25.4824 16.9203 25.2876 17.4427C25.0574 18.0625 24.6501 18.3458 23.986 18.3635C23.7735 18.3724 23.5522 18.3724 23.2954 18.3724Z" fill="#1F58A4"/>
<path d="M18.3015 16.2119C18.3015 15.6895 18.3015 15.1848 18.3015 14.6713C18.6203 14.6713 18.9302 14.6447 19.2312 14.6802C19.5765 14.7244 19.8333 15.0609 19.851 15.4062C19.8687 15.7515 19.6031 16.088 19.2489 16.1765C19.1692 16.1942 19.0895 16.2119 19.001 16.2119C18.7796 16.2208 18.5583 16.2119 18.3015 16.2119Z" fill="#1F58A4"/>
</svg>
