<svg width="25" height="26" viewBox="0 0 25 26" fill="none" xmlns="http://www.w3.org/2000/svg">
<path d="M12.9748 19.3342C12.8623 19.3342 12.7873 19.3342 12.7248 19.3342C9.97479 19.3342 7.23729 19.3342 4.48729 19.3342C2.91229 19.3342 1.62479 18.2717 1.33729 16.7092C1.29979 16.5092 1.28729 16.3092 1.28729 16.1092C1.28729 12.4592 1.27479 8.79668 1.28729 5.14668C1.28729 3.53418 2.33729 2.25918 3.89979 1.95918C4.09979 1.92168 4.32479 1.90918 4.52479 1.90918C9.76229 1.90918 14.9873 1.90918 20.2248 1.90918C22.0748 1.90918 23.4623 3.25918 23.4748 5.10918C23.4873 7.43418 23.4748 9.75918 23.4748 12.0842C23.4748 12.1217 23.4748 12.1592 23.4623 12.2717C22.4123 10.5592 20.9623 9.49668 19.0248 9.17168C17.0998 8.83418 15.3623 9.30918 13.8623 10.5592C11.4623 12.5467 10.6998 16.2592 12.9748 19.3342ZM5.26229 6.64668C10.0248 6.64668 14.7623 6.64668 19.4873 6.64668C19.4873 6.12168 19.4873 5.60918 19.4873 5.08418C14.7373 5.08418 9.99979 5.08418 5.26229 5.08418C5.26229 5.62168 5.26229 6.13418 5.26229 6.64668ZM5.26229 11.3967C6.84979 11.3967 8.41229 11.3967 9.98729 11.3967C9.98729 10.8717 9.98729 10.3592 9.98729 9.85918C8.39979 9.85918 6.83729 9.85918 5.26229 9.85918C5.26229 10.3717 5.26229 10.8717 5.26229 11.3967ZM5.26229 14.6092C5.26229 15.1467 5.26229 15.6467 5.26229 16.1592C6.58729 16.1592 7.88729 16.1592 9.18729 16.1592C9.18729 15.6342 9.18729 15.1342 9.18729 14.6092C7.87479 14.6092 6.57479 14.6092 5.26229 14.6092Z" fill="#27276C"/>
<path d="M17.9123 20.1343C15.2498 20.1093 13.1373 17.9718 13.1623 15.3218C13.1873 12.7218 15.3623 10.5968 17.9623 10.6218C20.5498 10.6468 22.6998 12.8343 22.6748 15.4093C22.6498 18.0468 20.5248 20.1468 17.9123 20.1343Z" fill="#2B2A6B"/>
<path d="M21.8001 20.4092C22.2126 21.1342 22.6001 21.8342 23.0126 22.5592C22.5376 22.6592 22.0876 22.7467 21.6376 22.8467C21.5251 22.8717 21.4001 22.9467 21.3126 23.0217C21.0001 23.3592 20.6876 23.7092 20.3626 24.0842C19.9001 23.2592 19.4501 22.4592 18.9751 21.6342C20.0251 21.4467 20.9626 21.0467 21.8001 20.4092Z" fill="#27276C"/>
<path d="M15.4998 24.0967C15.1748 23.7342 14.8873 23.3842 14.5748 23.0592C14.4873 22.9717 14.3623 22.8842 14.2373 22.8592C13.7873 22.7467 13.3373 22.6592 12.8623 22.5592C13.2873 21.8342 13.6873 21.1217 14.0998 20.4092C14.9373 21.0342 15.8498 21.4342 16.8873 21.6342C16.4248 22.4592 15.9748 23.2592 15.4998 24.0967Z" fill="#27276C"/>
</svg>
