<svg width="123" height="37" viewBox="0 0 123 37" fill="none" xmlns="http://www.w3.org/2000/svg">
<path d="M30.8556 11.7408C30.4301 11.283 29.906 10.9241 29.3213 10.6903C28.7366 10.4565 28.1061 10.3538 27.4758 10.3895H20.8241L20.3265 12.8609H26.9798C27.2912 12.8447 27.6021 12.901 27.887 13.0252C28.172 13.1494 28.423 13.338 28.6195 13.5756C28.8131 13.8217 28.9479 14.1073 29.0143 14.4113C29.0806 14.7153 29.0766 15.03 29.0027 15.3323L28.9065 15.7564L28.8733 16.0494H22.7052C21.2585 16.0453 19.8565 16.5403 18.744 17.4479C17.5955 18.3282 16.8125 19.5886 16.5412 20.9939L16.4765 21.2535C16.2901 21.8539 16.2565 22.49 16.3788 23.106C16.501 23.7221 16.7753 24.2993 17.1776 24.7872C17.58 25.275 18.0981 25.6586 18.6865 25.9042C19.275 26.1499 19.9158 26.2502 20.5529 26.1963H29.2615L31.6161 15.2069C31.7837 14.6118 31.8021 13.9857 31.6696 13.3822C31.5372 12.7786 31.2579 12.2154 30.8556 11.7408ZM27.237 23.7233H21.0804C20.7654 23.736 20.4516 23.6782 20.1626 23.5544C19.8737 23.4306 19.6172 23.2439 19.4125 23.0086C19.2096 22.7675 19.0689 22.4819 19.0025 22.1761C18.9361 21.8703 18.9459 21.5532 19.031 21.2519L19.0849 20.9955C19.2209 20.295 19.6169 19.669 20.1963 19.2388C20.7482 18.7817 21.4456 18.5283 22.1677 18.5225H28.2986L27.237 23.7233ZM45.8202 10.3862L43.0028 23.6875H36.6497C36.3345 23.7005 36.0204 23.6427 35.7313 23.5186C35.4423 23.3944 35.186 23.2072 34.9818 22.9711C34.7788 22.7304 34.638 22.4451 34.5716 22.1396C34.5052 21.834 34.515 21.5171 34.6003 21.2161L36.8885 10.383H34.3282L32.0416 21.2161C31.8672 21.8212 31.8424 22.4585 31.9693 23.075C32.0963 23.6914 32.3713 24.2692 32.7715 24.7604C33.1892 25.2307 33.7107 25.6013 34.2964 25.8439C34.8821 26.0866 35.5165 26.1948 36.1512 26.1605H42.5475L42.3492 27.0698C42.1833 27.7615 41.7797 28.3761 41.2064 28.8102C40.6677 29.2702 39.9804 29.528 39.2664 29.5379H30.5578L30.0171 32.0182H38.7257C40.161 32.011 41.5471 31.5039 42.637 30.5872C43.7814 29.7087 44.5783 28.4664 44.8905 27.0738L48.4113 10.3862H45.8202Z" fill="#ED1C24"/>
<path d="M19.2692 11.8303C18.9808 13.2076 18.1975 14.4372 17.0622 15.2948C15.9808 16.1968 14.6105 16.6965 13.1914 16.7064H4.50607L2.51553 26.1988H0L4.53759 4.77434H15.7493C16.3661 4.74338 16.9817 4.85498 17.5465 5.10014C18.1113 5.3453 18.6096 5.71719 19.0013 6.18587C19.3876 6.66695 19.6555 7.22909 19.7841 7.82847C19.9127 8.42785 19.8986 9.04828 19.7428 9.64142L19.2692 11.8303ZM16.7528 11.8303L17.2106 9.64793C17.2957 9.3527 17.3083 9.0419 17.2474 8.74097C17.1866 8.44004 17.0541 8.15751 16.8606 7.9165C16.6625 7.68277 16.4118 7.49737 16.1283 7.37491C15.8448 7.25244 15.5362 7.19624 15.2268 7.21073H6.53144L5.02859 14.2667H13.7206C14.4278 14.2634 15.1107 14.0132 15.6472 13.561C16.2122 13.1288 16.6054 12.5163 16.7586 11.8295L16.7528 11.8303Z" fill="#ED1C24"/>
<path d="M120.888 13.2426C120.165 13.6753 119.397 14.032 118.598 14.3065C117.728 14.6456 116.818 14.873 115.889 14.983C115.495 15.0486 115.092 15.1029 114.68 15.1458H114.667C110.867 15.4803 107.627 14.6891 105.757 12.9821C105.74 12.9684 105.724 12.9537 105.709 12.9381V13.1408C105.72 13.9051 106.013 14.6396 106.533 15.2085C108.045 16.9 110.947 17.8133 114.316 17.854C116.331 17.8958 118.33 17.4989 120.17 16.6916C120.91 16.3527 121.574 15.8739 122.125 15.2825C122.652 14.7172 122.952 13.9839 122.97 13.2182C122.968 12.7385 122.849 12.2663 122.622 11.8416C122.117 12.3897 121.533 12.8618 120.888 13.2426ZM114.252 10.9218C110.701 11.2018 107.638 10.5579 105.73 9.08126C105.787 9.77564 106.07 10.4336 106.538 10.9576C108.049 12.6508 110.952 13.5625 114.32 13.6032C116.334 13.646 118.334 13.2484 120.173 12.4391C120.915 12.1034 121.58 11.6241 122.129 11.03C122.653 10.4634 122.951 9.73058 122.97 8.96567C122.968 8.37041 122.787 7.78904 122.449 7.29447C121.964 7.93836 119.877 10.4806 114.252 10.9226V10.9218ZM114.349 9.3507C116.363 9.39487 118.361 8.99747 120.198 8.18746C120.941 7.85125 121.608 7.37209 122.159 6.77837C122.696 6.22107 122.997 5.4841 123 4.71713C123.003 3.95015 122.709 3.21066 122.177 2.6488C120.662 0.953997 117.764 0.0439126 114.395 0.00321119C112.381 -0.0401478 110.383 0.356056 108.544 1.1632C107.802 1.50144 107.136 1.98032 106.583 2.57228C106.044 3.12845 105.742 3.86554 105.738 4.63303C105.734 5.40052 106.029 6.14051 106.562 6.70185C108.073 8.39829 110.981 9.30674 114.346 9.35721L114.349 9.3507ZM107.766 2.95895C108.581 1.97479 111.122 1.01098 114.095 1.04924C115.813 1.01617 117.516 1.36311 119.079 2.06433C119.582 2.29086 120.034 2.61513 120.406 3.01756C120.523 3.12329 120.616 3.25167 120.68 3.39458C120.744 3.53749 120.777 3.69183 120.777 3.84787C120.777 4.00391 120.744 4.15825 120.68 4.30116C120.616 4.44407 120.523 4.57244 120.406 4.67818C119.596 5.66234 117.053 6.62778 114.075 6.58952C112.36 6.62078 110.659 6.27331 109.099 5.57279C108.593 5.34736 108.137 5.02652 107.758 4.62852C107.535 4.4035 107.404 4.1071 107.387 3.79414C107.403 3.47928 107.539 3.18168 107.766 2.95895Z" fill="#ED1C24"/>
<path d="M72.5842 26.1872L63.8556 26.2198C63.2227 26.2566 62.5896 26.1505 62.005 25.9096C61.4204 25.6687 60.8998 25.2995 60.4833 24.8302C60.0861 24.3364 59.8132 23.7576 59.6866 23.1407C59.5601 22.5239 59.5836 21.8865 59.7552 21.2803L59.8198 21.0181C60.0865 19.6088 60.8662 18.3427 62.0136 17.4559C63.1237 16.5423 64.5259 16.0409 65.9747 16.0395L72.1462 16.0159L72.1777 15.7229L72.2756 15.2988C72.3491 14.9956 72.3525 14.6802 72.2854 14.3757C72.2184 14.0711 72.0827 13.7852 71.8883 13.5388C71.6905 13.3015 71.4383 13.1134 71.1523 12.9899C70.8664 12.8664 70.5547 12.811 70.2428 12.8282L63.0611 12.8559L63.5505 10.3755L70.7338 10.3478C71.3647 10.3113 71.996 10.4128 72.582 10.6449C73.1681 10.8771 73.6943 11.2341 74.1227 11.6902C74.5252 12.1651 74.8059 12.7279 74.9413 13.3312C75.0767 13.9346 75.0627 14.561 74.9006 15.1579L72.5842 26.1872ZM70.5463 23.7175L71.5872 18.4963L65.4497 18.5183C64.7262 18.5279 64.0289 18.7853 63.4783 19.246C62.8993 19.6804 62.5036 20.309 62.3669 21.0116L62.3022 21.2713C62.2185 21.5738 62.2101 21.8916 62.2778 22.1979C62.3455 22.5042 62.4873 22.79 62.6912 23.0312C62.8972 23.2674 63.1557 23.4541 63.4467 23.577C63.7376 23.7 64.0535 23.7558 64.3699 23.7402L70.5463 23.7175Z" fill="#231F20"/>
<path d="M89.3058 21.8769C89.1796 22.5345 88.9188 23.1601 88.5392 23.7158C88.1595 24.2716 87.669 24.746 87.0971 25.1103C85.9787 25.8426 84.6594 26.2231 83.3151 26.201L74.6895 26.2336L75.2103 23.7565L83.836 23.724C85.5379 23.724 86.5088 23.1124 86.7488 21.8891L86.8806 21.3039C87.14 20.0915 86.4187 19.4853 84.7168 19.4853L80.8261 19.5C79.6207 19.5776 78.4311 19.1966 77.5044 18.436C77.0623 18.0356 76.7426 17.5221 76.5815 16.9533C76.4203 16.3844 76.424 15.7827 76.5921 15.2157L76.7239 14.628C76.8501 13.9705 77.1111 13.345 77.491 12.7894C77.871 12.2339 78.362 11.7599 78.9343 11.3963C80.0521 10.6647 81.3704 10.2843 82.7138 10.3055L91.3859 10.2656L90.8966 12.7443L82.2344 12.7769C80.5309 12.7769 79.5489 13.388 79.2884 14.6101L79.159 15.1978C78.9196 16.4102 79.652 17.0164 81.3561 17.0164L85.2376 17.0017C86.443 16.9231 87.633 17.3019 88.5618 18.0599C88.9941 18.4672 89.3041 18.983 89.4583 19.5513C89.6124 20.1195 89.6047 20.7184 89.436 21.2827L89.3058 21.8769Z" fill="#231F20"/>
<path d="M100.979 26.1977L96.9309 26.2124C96.2946 26.2479 95.6585 26.1402 95.0712 25.8976C94.4838 25.6549 93.9608 25.2837 93.542 24.8122C93.1395 24.3165 92.8624 23.7341 92.7336 23.1129C92.6047 22.4918 92.6276 21.8495 92.8005 21.2387L94.5588 12.6678H92.9656L93.5212 10.1076H95.1145L96.2873 4.39397L98.8816 4.38501L97.7072 10.0971L103.08 10.0767L102.524 12.6393L97.1507 12.6596L95.3924 21.2305C95.308 21.5336 95.2976 21.8519 95.362 22.1597C95.4264 22.4674 95.5638 22.756 95.7631 23.0018C95.9643 23.2412 96.2202 23.4307 96.51 23.5549C96.7998 23.679 97.1153 23.7344 97.431 23.7166L101.479 23.7019L100.979 26.1977Z" fill="#231F20"/>
<path d="M68.0796 6.97628L57.5074 7.01616C56.7819 7.04156 56.0846 7.29864 55.5214 7.74835C54.9583 8.19807 54.5601 8.81586 54.3872 9.50791L53.4177 14.2472L60.0155 14.2219L59.4913 16.7349L52.9267 16.7601L50.9245 26.2549L48.3584 26.2688L51.8211 9.52174C52.1295 8.12419 52.9112 6.87041 54.0387 5.96481C55.1663 5.05921 56.5731 4.55522 58.0299 4.535L68.6021 4.49512L68.0796 6.97628Z" fill="#231F20"/>
<path d="M49.9238 34.0247H47.5543L47.0168 35.4631H46.5557L48.5288 30.342H48.9493L50.9224 35.4631H50.4646L49.9238 34.0247ZM47.6911 33.6608H49.7828L48.7378 30.8712L47.6911 33.6608Z" fill="#000100"/>
<path d="M53.3779 35.4631V30.3437H54.9198C55.3493 30.3356 55.7732 30.4398 56.1481 30.6457C56.5036 30.8466 56.7917 31.1447 56.9775 31.5037C57.1781 31.8987 57.2785 32.3355 57.2702 32.7768V33.0333C57.2785 33.4748 57.1775 33.9117 56.9758 34.3064C56.7871 34.6663 56.4939 34.9632 56.1332 35.1595C55.7487 35.3627 55.3174 35.4653 54.8808 35.4574L53.3779 35.4631ZM54.2861 31.0584V34.7517H54.8775C55.0818 34.7644 55.2864 34.7316 55.476 34.6558C55.6656 34.58 55.8352 34.463 55.9723 34.3137C56.2491 33.953 56.3869 33.5078 56.3613 33.0569V32.7711C56.3908 32.3175 56.2598 31.8678 55.9905 31.498C55.8582 31.3487 55.6927 31.2312 55.5067 31.1549C55.3207 31.0785 55.1193 31.0452 54.9181 31.0576L54.2861 31.0584Z" fill="#000100"/>
<path d="M59.0811 33.5623V35.4622H58.1787V30.3412H60.1742C60.6776 30.3149 61.1729 30.4737 61.5634 30.7865C61.7328 30.9342 61.8668 31.117 61.9556 31.3217C62.0443 31.5264 62.0858 31.7478 62.0768 31.9701C62.0889 32.1903 62.0498 32.4104 61.9624 32.6136C61.875 32.8168 61.7417 32.9979 61.5726 33.1431C61.169 33.4441 60.6685 33.5926 60.1626 33.5615L59.0811 33.5623ZM59.0811 32.846H60.1692C60.4362 32.8651 60.7008 32.7852 60.9107 32.6221C60.999 32.5396 61.0677 32.4389 61.1119 32.3273C61.156 32.2158 61.1746 32.096 61.1662 31.9766C61.1715 31.8546 61.1514 31.7328 61.1071 31.6187C61.0627 31.5046 60.995 31.4006 60.9082 31.3131C60.7142 31.141 60.4596 31.0497 60.1983 31.0584H59.091L59.0811 32.846Z" fill="#000100"/>
<path d="M67.0295 33.0357C67.04 33.49 66.9497 33.9411 66.7649 34.3577C66.6062 34.7156 66.3423 35.0189 66.0069 35.2287C65.6641 35.4277 65.2731 35.5327 64.8748 35.5327C64.4765 35.5327 64.0854 35.4277 63.7426 35.2287C63.4057 35.0207 63.1388 34.7197 62.9755 34.3634C62.7867 33.9546 62.693 33.5097 62.7009 33.0609V32.772C62.6909 32.3171 62.7832 31.8658 62.9713 31.45C63.1322 31.09 63.3976 30.7845 63.7344 30.5716C64.0767 30.3734 64.4669 30.2688 64.8644 30.2688C65.2619 30.2688 65.6521 30.3734 65.9944 30.5716C66.3305 30.7791 66.5956 31.0805 66.7558 31.437C66.9434 31.8504 67.0362 32.2991 67.0278 32.7516L67.0295 33.0357ZM66.1238 32.7687C66.1519 32.3114 66.0361 31.8567 65.7921 31.4663C65.6844 31.3248 65.5446 31.2099 65.3838 31.1307C65.223 31.0516 65.0455 31.0104 64.8656 31.0104C64.6857 31.0104 64.5083 31.0516 64.3475 31.1307C64.1866 31.2099 64.0468 31.3248 63.9392 31.4663C63.6965 31.8468 63.5782 32.291 63.6 32.7394V33.0341C63.5709 33.4914 63.6869 33.9464 63.9318 34.3365C64.0343 34.4835 64.1729 34.6027 64.3348 34.6831C64.4968 34.7635 64.6768 34.8025 64.8582 34.7965C65.0387 34.8048 65.2185 34.7679 65.3806 34.6893C65.5426 34.6107 65.6817 34.493 65.7846 34.3471C66.0266 33.9509 66.1397 33.4917 66.1089 33.0308L66.1238 32.7687Z" fill="#000100"/>
<path d="M73.5734 33.8667C73.5465 34.3384 73.3356 34.7818 72.9845 35.1049C72.6113 35.4038 72.1386 35.5566 71.6575 35.5339C71.2935 35.5399 70.9358 35.4405 70.629 35.2482C70.3247 35.0499 70.0853 34.7695 69.9398 34.4406C69.7701 34.0646 69.6852 33.6569 69.691 33.2456V32.5822C69.6828 32.166 69.7656 31.753 69.934 31.3709C70.0802 31.0362 70.3254 30.7523 70.6378 30.5558C70.9503 30.3593 71.3156 30.2593 71.6865 30.2687C71.9239 30.2491 72.163 30.2775 72.3888 30.3521C72.6146 30.4268 72.8224 30.5462 72.9994 30.7028C73.1763 30.8595 73.3186 31.0501 73.4175 31.2629C73.5164 31.4757 73.5697 31.7061 73.5742 31.9399H73.1313C73.132 31.7587 73.0942 31.5793 73.0203 31.4133C72.9464 31.2472 72.8379 31.0981 72.7019 30.9756C72.566 30.853 72.4054 30.7596 72.2306 30.7014C72.0557 30.6432 71.8704 30.6214 71.6865 30.6375C71.4694 30.6301 71.2536 30.6736 71.057 30.7643C70.8604 30.8551 70.6887 30.9904 70.556 31.1593C70.2522 31.5774 70.1032 32.085 70.1339 32.5977V33.2253C70.1081 33.729 70.254 34.2268 70.5486 34.6401C70.676 34.8103 70.8438 34.9473 71.0376 35.0392C71.2313 35.1312 71.4449 35.1752 71.6599 35.1676C72.0375 35.1948 72.4111 35.0782 72.7033 34.8419C72.9593 34.5758 73.1127 34.2303 73.1371 33.8651L73.5734 33.8667Z" fill="#000100"/>
<path d="M74.3089 33.5053C74.3032 33.1637 74.3772 32.8254 74.5253 32.5163C74.6583 32.2344 74.8718 31.9965 75.1399 31.8315C75.4081 31.6664 75.7192 31.5814 76.0356 31.5866C76.2719 31.5786 76.507 31.6223 76.7239 31.7145C76.9408 31.8068 77.1341 31.9452 77.2897 32.1198C77.6247 32.5152 77.7966 33.0194 77.7716 33.533V33.6201C77.7774 33.9638 77.7025 34.3041 77.5526 34.6148C77.4213 34.8951 77.2094 35.1316 76.943 35.2953C76.6722 35.4579 76.3597 35.5412 76.0423 35.5355C75.8064 35.5427 75.5718 35.4987 75.3553 35.4065C75.1388 35.3143 74.9457 35.1763 74.7899 35.0023C74.455 34.6069 74.2831 34.1027 74.308 33.5891L74.3089 33.5053ZM74.7385 33.6201C74.7216 34.0236 74.8486 34.4203 75.0976 34.7418C75.2123 34.8783 75.3563 34.9881 75.5194 35.0636C75.6824 35.139 75.8604 35.1781 76.0406 35.1781C76.2209 35.1781 76.3989 35.139 76.5619 35.0636C76.7249 34.9881 76.8689 34.8783 76.9836 34.7418C77.2369 34.409 77.364 33.9999 77.3428 33.5851V33.5037C77.3465 33.2284 77.2899 32.9555 77.1769 32.7035C77.0799 32.478 76.92 32.2839 76.7158 32.1434C76.5146 32.0104 76.2766 31.9413 76.034 31.9456C75.8538 31.9421 75.6753 31.9801 75.5128 32.0566C75.3504 32.1331 75.2084 32.2459 75.0985 32.386C74.8448 32.7187 74.717 33.1277 74.7368 33.5427L74.7385 33.6201Z" fill="#000100"/>
<path d="M79.0476 31.6576L79.0625 32.2763C79.1916 32.0603 79.3772 31.8822 79.5999 31.7602C79.8204 31.6441 80.0672 31.5848 80.3174 31.5876C80.569 31.5586 80.823 31.6167 81.0357 31.7518C81.2484 31.8868 81.4064 32.0904 81.4827 32.3275C81.6125 32.0984 81.8049 31.9095 82.0383 31.7821C82.2723 31.6527 82.537 31.5861 82.8055 31.5892C83.6382 31.5892 84.0626 32.0348 84.0787 32.9259V35.4721H83.649V32.9568C83.6688 32.6866 83.5893 32.4183 83.4251 32.2006C83.3302 32.1115 83.2168 32.0435 83.0927 32.0014C82.9686 31.9592 82.8367 31.9439 82.706 31.9563C82.4173 31.9528 82.1381 32.0576 81.9256 32.2494C81.7188 32.4278 81.5911 32.6784 81.5697 32.9478V35.4616H81.1401V32.9153C81.1584 32.6522 81.0742 32.392 80.9046 32.1875C80.8097 32.1009 80.6973 32.0347 80.5747 31.9934C80.4522 31.952 80.3221 31.9363 80.193 31.9474C79.9416 31.9407 79.6957 32.0205 79.4979 32.1729C79.2874 32.3491 79.1374 32.5848 79.0683 32.8477V35.4616H78.6387V31.6592L79.0476 31.6576Z" fill="#000100"/>
<path d="M88.2793 33.5997C88.3072 34.1008 88.1658 34.597 87.877 35.0112C87.755 35.1787 87.5928 35.3141 87.4047 35.4054C87.2167 35.4967 87.0085 35.5411 86.7988 35.5346C86.5658 35.5475 86.333 35.5046 86.1207 35.4096C85.9083 35.3146 85.7226 35.1703 85.5797 34.9893V36.9315H85.1533V31.6582H85.5515L85.5738 32.2036C85.7046 32.0072 85.8853 31.8478 86.0981 31.741C86.3109 31.6342 86.5485 31.5838 86.7872 31.5947C86.9985 31.5874 87.2083 31.6308 87.3985 31.7211C87.5887 31.8115 87.7536 31.9461 87.8787 32.1133C88.1667 32.5364 88.306 33.0404 88.2752 33.5484L88.2793 33.5997ZM87.8497 33.5248C87.8723 33.1197 87.7653 32.7178 87.5436 32.3754C87.4504 32.2401 87.3236 32.1304 87.1751 32.0566C87.0266 31.9828 86.8614 31.9474 86.6952 31.9537C86.4556 31.946 86.2192 32.0092 86.0167 32.1353C85.8204 32.271 85.6694 32.4608 85.5829 32.6807V34.4992C85.6762 34.7051 85.8298 34.8791 86.0242 34.999C86.2313 35.1219 86.4698 35.1843 86.7118 35.1789C86.8775 35.1849 87.0419 35.1491 87.1895 35.0748C87.337 35.0005 87.4627 34.8904 87.5544 34.7548C87.7722 34.3816 87.8748 33.9542 87.8497 33.5248Z" fill="#000100"/>
<path d="M91.6776 35.4632C91.6263 35.2906 91.5984 35.1122 91.5946 34.9324C91.4437 35.1254 91.2462 35.2784 91.0199 35.3777C90.7871 35.4816 90.5341 35.5349 90.2784 35.534C89.9481 35.5483 89.6247 35.4382 89.3744 35.2263C89.2622 35.13 89.1731 35.0106 89.1131 34.8767C89.0532 34.7428 89.024 34.5976 89.0276 34.4514C89.0234 34.2773 89.0646 34.105 89.1473 33.951C89.2301 33.7969 89.3516 33.6663 89.5004 33.5714C89.8944 33.3342 90.3527 33.2206 90.8141 33.2458H91.5905V32.8127C91.5969 32.694 91.5774 32.5753 91.5333 32.4645C91.4893 32.3538 91.4217 32.2535 91.335 32.1704C91.1267 32.0038 90.8618 31.9206 90.5935 31.9376C90.3277 31.9281 90.0665 32.007 89.8521 32.1615C89.7625 32.223 89.6893 32.3045 89.6383 32.3994C89.5874 32.4942 89.5603 32.5997 89.5593 32.7069H89.1297C89.1326 32.5519 89.1731 32.3998 89.2479 32.2632C89.3226 32.1266 89.4293 32.0094 89.5593 31.9214C89.8616 31.6942 90.2346 31.5766 90.6151 31.5884C90.9846 31.5685 91.3488 31.6817 91.6394 31.9067C91.7655 32.0186 91.8653 32.156 91.9319 32.3095C91.9985 32.463 92.0303 32.6289 92.0251 32.7956V34.5963C92.0115 34.8767 92.0511 35.1571 92.142 35.4233V35.4648L91.6776 35.4632ZM90.329 35.1612C90.5999 35.1656 90.8665 35.0944 91.0978 34.9561C91.3163 34.8296 91.4887 34.6387 91.5905 34.4107V33.5722H90.8233C90.4739 33.5584 90.1272 33.6384 89.8205 33.8034C89.7079 33.863 89.614 33.9515 89.5487 34.0595C89.4834 34.1674 89.4492 34.2908 89.4498 34.4164C89.4478 34.5173 89.4686 34.6175 89.5106 34.7096C89.5526 34.8018 89.6148 34.8837 89.6928 34.9495C89.8696 35.0972 90.0971 35.1732 90.329 35.162V35.1612Z" fill="#000100"/>
<path d="M93.5676 31.6576L93.5825 32.3088C93.7141 32.0846 93.9016 31.8969 94.1274 31.7634C94.3468 31.6407 94.5957 31.578 94.8482 31.5819C95.0189 31.5692 95.1904 31.5935 95.3506 31.6532C95.5107 31.7128 95.6555 31.8063 95.7746 31.927C95.9994 32.225 96.1085 32.5918 96.0823 32.9617V35.4583H95.6543V32.9633C95.6729 32.6924 95.5949 32.4236 95.4337 32.203C95.3442 32.1136 95.2356 32.0448 95.1157 32.0017C94.9957 31.9586 94.8675 31.9423 94.7404 31.9539C94.4835 31.9504 94.2338 32.037 94.0362 32.1981C93.824 32.3713 93.6666 32.6003 93.5825 32.8583V35.4632H93.1562V31.6576H93.5676Z" fill="#000100"/>
<path d="M98.4216 34.8583L99.5537 31.6576H100.017L98.3586 36.1111L98.2756 36.3073C98.2053 36.5091 98.0726 36.6843 97.8959 36.8085C97.7193 36.9327 97.5076 36.9996 97.2903 37C97.1779 36.9991 97.0662 36.9826 96.9585 36.9512V36.6036L97.1808 36.6239C97.3642 36.6321 97.5449 36.578 97.6925 36.4709C97.8496 36.3283 97.9643 36.1466 98.0243 35.945L98.2093 35.4322L96.7471 31.6567H97.2156L98.4216 34.8583Z" fill="#000100"/>
</svg>
