<svg width="198" height="141" viewBox="0 0 198 141" fill="none" xmlns="http://www.w3.org/2000/svg">
<g clip-path="url(#clip0_2107_5268)">
<path d="M13.1231 141H184.867C184.954 141 185.037 140.965 185.099 140.904C185.16 140.842 185.195 140.759 185.195 140.672C185.195 140.585 185.16 140.502 185.099 140.44C185.037 140.379 184.954 140.344 184.867 140.344H13.1231C13.0361 140.344 12.9526 140.379 12.891 140.44C12.8295 140.502 12.7949 140.585 12.7949 140.672C12.7949 140.759 12.8295 140.842 12.891 140.904C12.9526 140.965 13.0361 141 13.1231 141Z" fill="#CCCCCC"/>
<path d="M46.1211 61.5617C36.0769 51.6826 31.8347 41.3761 34.1757 32.5412C37.1798 21.2034 50.5258 13.3643 70.7916 11.0339L70.8664 11.6843C50.8828 13.9821 37.7404 21.6453 34.809 32.7087C32.5308 41.3068 36.7114 51.3881 46.5808 61.0955L46.1211 61.5617Z" fill="#F0F0F0"/>
<path d="M143.029 96.6298C130.494 96.6298 116.871 94.7685 103.34 91.1895C86.6076 86.7636 71.2655 80.0831 58.9727 71.8701L59.3367 71.3262C71.5703 79.4994 86.8445 86.1493 103.508 90.5567C118.566 94.54 133.738 96.3856 147.377 95.8986L147.4 96.5525C145.96 96.6042 144.503 96.63 143.029 96.6298Z" fill="#F0F0F0"/>
<path d="M171.789 92.5138L171.579 91.8939C182.791 88.1065 189.803 82.0054 191.859 74.2497C194.471 64.3904 188.796 52.9492 175.878 42.0338C162.894 31.0629 144.172 21.9599 123.158 16.4018L123.326 15.769C144.431 21.3516 163.245 30.5018 176.301 41.5341C189.422 52.6218 195.173 64.2999 192.492 74.4172C190.378 82.3953 183.219 88.6529 171.789 92.5138Z" fill="#F0F0F0"/>
<path d="M68.8404 96.9034C44.2083 85.9883 25.2275 71.8273 15.3945 57.0288L15.9402 56.6667C25.7052 71.3628 44.5864 85.4399 69.1059 96.3051L68.8404 96.9034Z" fill="#F0F0F0"/>
<path d="M155.446 115.813C152.905 115.813 150.321 115.756 147.693 115.643L147.722 114.989C167.329 115.837 184.63 113.493 197.756 108.208L198.001 108.815C186.551 113.425 171.957 115.813 155.446 115.813Z" fill="#F0F0F0"/>
<path d="M141.152 11.6209C137.081 10.2965 132.893 9.06338 128.706 7.95569C104.607 1.58157 80.9182 -0.681577 60.1987 1.41219L60.1328 0.760879C80.9296 -1.33975 104.7 0.928812 128.873 7.32292C133.073 8.4338 137.272 9.67043 141.355 10.9986L141.152 11.6209Z" fill="#F0F0F0"/>
<path d="M30.7266 62.5436C20.6824 52.6644 16.4402 42.3579 18.7811 33.523C21.7853 22.1853 35.1313 14.3462 55.397 12.0157L55.4719 12.6661C35.4882 14.9639 22.3459 22.6271 19.4145 33.6905C17.1362 42.2886 21.3168 52.3699 31.1862 62.0773L30.7266 62.5436Z" fill="#F0F0F0"/>
<path d="M127.635 97.6116C115.099 97.6116 101.477 95.7503 87.9458 92.1713C71.2131 87.7454 55.871 81.0649 43.5781 72.8519L43.9421 72.308C56.1758 80.4812 71.45 87.1311 88.1134 91.5385C103.172 95.5218 118.343 97.3674 131.982 96.8804L132.006 97.5343C130.565 97.586 129.108 97.6118 127.635 97.6116Z" fill="#F0F0F0"/>
<path d="M156.395 93.4957L156.185 92.8757C167.397 89.0882 174.409 82.9872 176.464 75.2315C179.076 65.3722 173.401 53.9311 160.483 43.0156C147.5 32.0447 128.777 22.9417 107.764 17.3836L107.931 16.7509C129.037 22.3334 147.85 31.4836 160.906 42.516C174.028 53.6036 179.778 65.2818 177.097 75.399C174.983 83.3771 167.824 89.6347 156.395 93.4957Z" fill="#F0F0F0"/>
<path d="M53.4459 97.8851C28.8138 86.97 9.83293 72.8091 0 58.0105L0.545695 57.6484C10.3107 72.3446 29.1919 86.4216 53.7114 97.2869L53.4459 97.8851Z" fill="#F0F0F0"/>
<path d="M140.051 116.795C137.51 116.795 134.926 116.738 132.299 116.625L132.327 115.971C151.935 116.819 169.235 114.474 182.361 109.19L182.606 109.797C171.156 114.406 156.562 116.795 140.051 116.795Z" fill="#F0F0F0"/>
<path d="M125.758 12.6026C121.686 11.2782 117.499 10.0451 113.311 8.93745C89.2126 2.56333 65.5237 0.300183 44.8042 2.39394L44.7383 1.74263C65.535 -0.358002 89.3051 1.91056 113.479 8.30467C117.678 9.41555 121.878 10.6522 125.96 11.9804L125.758 12.6026Z" fill="#F0F0F0"/>
<path d="M11.1661 45.0129C15.8736 39.7395 23.3829 36.5255 30.188 38.4494C23.91 42.8883 19.4058 49.4028 17.4724 56.8403C16.7372 59.7113 16.2186 62.9811 13.8289 64.7365C12.3419 65.8288 10.3716 66.0897 8.54297 65.841C6.71423 65.5921 4.9851 64.8816 3.27931 64.1775L2.82031 64.2173C4.13996 57.2752 6.45861 50.2863 11.1661 45.0129Z" fill="#F2F2F2"/>
<path d="M30.1657 38.5962C24.4762 39.9726 19.3654 43.1051 15.5592 47.5488C14.7229 48.4909 14.0403 49.5589 13.5368 50.7133C13.0826 51.8537 12.9424 53.0949 13.1307 54.3077C13.2836 55.4421 13.5714 56.5848 13.4456 57.7366C13.3724 58.3252 13.1755 58.8917 12.8679 59.3989C12.5602 59.9062 12.1487 60.3427 11.6603 60.6799C10.4653 61.5518 9.02801 61.9427 7.60917 62.2761C6.03383 62.6463 4.39167 63.0058 3.10751 64.0519C2.95192 64.1786 2.76418 63.93 2.91954 63.8034C5.15375 61.9835 8.25882 62.2172 10.7308 60.8953C11.8842 60.2785 12.8586 59.3107 13.0955 57.9826C13.3027 56.8212 13.0069 55.6426 12.8422 54.4954C12.6412 53.3149 12.7325 52.1031 13.1082 50.966C13.5513 49.7897 14.1915 48.6973 15.0014 47.7355C16.7902 45.5413 18.9133 43.6417 21.2927 42.1064C23.9985 40.3391 26.9871 39.0474 30.1289 38.2869C30.3234 38.24 30.3589 38.5496 30.1657 38.5962H30.1657Z" fill="white"/>
<path d="M16.7019 46.0459C16.0424 45.3066 15.6673 44.3572 15.6438 43.3672C15.6202 42.3772 15.9496 41.411 16.5732 40.6413C16.6999 40.486 16.9474 40.6754 16.8205 40.8309C16.2385 41.5466 15.9318 42.4466 15.9556 43.3685C15.9794 44.2904 16.3323 45.1733 16.9505 45.8581C17.0847 46.007 16.8353 46.194 16.7019 46.0459Z" fill="white"/>
<path d="M12.9778 53.7427C14.9995 53.8769 16.9976 53.2448 18.5735 51.9724C18.7295 51.8463 18.9173 52.0948 18.7615 52.2209C17.119 53.5418 15.0384 54.1954 12.9349 54.0512C12.7345 54.0373 12.7785 53.7289 12.9778 53.7427Z" fill="white"/>
<path d="M24.0692 40.7461C24.2647 41.0853 24.5415 41.3706 24.8747 41.5765C25.2078 41.7824 25.587 41.9023 25.978 41.9256C26.1786 41.937 26.1344 42.2454 25.9351 42.2341C25.5032 42.2064 25.0847 42.0733 24.716 41.8467C24.3474 41.6201 24.04 41.3067 23.8206 40.9339C23.7969 40.9005 23.7869 40.8594 23.7925 40.8189C23.7982 40.7784 23.8191 40.7415 23.8509 40.7158C23.8839 40.6911 23.9254 40.6804 23.9663 40.6861C24.0072 40.6918 24.0442 40.7134 24.0692 40.7461L24.0692 40.7461Z" fill="white"/>
<path d="M39.8469 60.341C39.7215 60.3375 39.5961 60.3339 39.469 60.3325C37.7824 60.2939 36.0954 60.3922 34.4247 60.6266C34.2952 60.6426 34.1643 60.6609 34.0355 60.6806C30.0165 61.2881 26.1452 62.6358 22.6185 64.6552C21.2159 65.4601 19.8766 66.3704 18.6123 67.3783C16.8662 68.7703 15.0839 70.4184 13.0397 71.1318C12.8272 71.2086 12.6102 71.2723 12.3899 71.3223L2.90343 64.7737C2.88934 64.748 2.87367 64.7243 2.85947 64.6986L2.46875 64.4544C2.53032 64.3979 2.5954 64.3406 2.65698 64.2841C2.69257 64.2511 2.73027 64.2196 2.76584 64.1867C2.79022 64.1652 2.81474 64.1438 2.83551 64.123C2.84361 64.1158 2.85181 64.1087 2.85841 64.1036C2.8792 64.0828 2.9007 64.0657 2.91998 64.0471C3.28287 63.7258 3.64866 63.4064 4.01733 63.089C4.01883 63.0869 4.01883 63.0868 4.02244 63.0861C6.80853 60.641 9.87509 58.5347 13.1579 56.8114C13.2565 56.7613 13.3566 56.7089 13.4596 56.6618C14.9416 55.9189 16.4819 55.2983 18.0651 54.8061C18.9329 54.5394 19.8137 54.3167 20.704 54.139C23.0053 53.6842 25.364 53.5939 27.6934 53.8714C32.337 54.4252 36.7517 56.4568 39.6297 60.0633C39.7033 60.1556 39.7749 60.2465 39.8469 60.341Z" fill="#F2F2F2"/>
<path d="M39.7429 60.4466C34.3707 58.123 28.4024 57.5498 22.6856 58.8082C21.4501 59.0573 20.2616 59.4994 19.1639 60.1183C18.1141 60.7557 17.2543 61.6623 16.6737 62.744C16.1122 63.7417 15.6534 64.8272 14.8589 65.6711C14.4458 66.0971 13.9472 66.431 13.3959 66.6509C12.8446 66.8708 12.2529 66.9719 11.6598 66.9473C10.1803 66.9246 8.79716 66.3721 7.46338 65.7848C5.98247 65.1327 4.45463 64.432 2.79897 64.4947C2.59836 64.5023 2.59829 64.1909 2.79859 64.1833C5.67914 64.0742 8.01756 66.1286 10.7878 66.5601C12.0805 66.7615 13.4417 66.5749 14.4312 65.657C15.2964 64.8543 15.7704 63.7353 16.3303 62.7202C16.8811 61.6567 17.6842 60.7442 18.6694 60.0623C19.732 59.3896 20.9015 58.9024 22.1277 58.6218C24.8782 57.9459 27.718 57.7062 30.543 57.9117C33.7685 58.1283 36.9331 58.8946 39.8999 60.1775C40.0835 60.2569 39.9253 60.5255 39.7429 60.4466H39.7429Z" fill="white"/>
<path d="M24.5023 58.2948C24.4212 57.3078 24.6938 56.3241 25.2716 55.5195C25.8494 54.7148 26.6946 54.1415 27.6563 53.902C27.8511 53.8543 27.9346 54.1544 27.7395 54.2023C26.8436 54.4236 26.0563 54.9577 25.5198 55.7081C24.9833 56.4585 24.733 57.3758 24.814 58.2944C24.8314 58.494 24.5196 58.4933 24.5023 58.2948Z" fill="white"/>
<path d="M16.8922 62.2007C18.4256 63.5239 20.4018 64.2211 22.4268 64.1532C22.6274 64.1463 22.6275 64.4578 22.4271 64.4647C20.3197 64.5314 18.2647 63.8017 16.6721 62.4211C16.5203 62.2895 16.7413 62.0697 16.8922 62.2007Z" fill="white"/>
<path d="M33.579 58.4954C33.5308 58.8838 33.5798 59.2781 33.7218 59.6429C33.8638 60.0077 34.0942 60.3315 34.3924 60.5854C34.5457 60.7151 34.3245 60.9347 34.1722 60.8059C33.8441 60.5239 33.59 60.1659 33.4323 59.7632C33.2746 59.3605 33.2179 58.9254 33.2673 58.4958C33.2686 58.4549 33.2854 58.416 33.3143 58.387C33.3432 58.3581 33.3821 58.3412 33.423 58.3398C33.4643 58.34 33.5038 58.3564 33.533 58.3856C33.5622 58.4147 33.5788 58.4541 33.579 58.4954H33.579Z" fill="white"/>
<path d="M195.621 88.242C192.962 81.6945 186.97 76.1458 179.914 75.6727C184.334 81.9615 186.384 89.6096 185.703 97.2637C185.43 100.215 184.818 103.468 186.479 105.924C187.512 107.452 189.28 108.359 191.086 108.739C192.892 109.119 194.759 109.031 196.603 108.94L197.022 109.132C198.114 102.15 198.281 94.7895 195.621 88.242Z" fill="#F2F2F2"/>
<path d="M179.886 75.8179C184.781 79.0248 188.541 83.6913 190.631 89.1547C191.102 90.3228 191.385 91.5578 191.471 92.8142C191.515 94.0408 191.23 95.2568 190.645 96.3359C190.119 97.353 189.464 98.3325 189.195 99.4596C189.066 100.039 189.06 100.638 189.18 101.219C189.299 101.8 189.539 102.35 189.886 102.831C190.718 104.054 191.94 104.904 193.164 105.695C194.524 106.573 195.949 107.463 196.807 108.879C196.911 109.051 197.171 108.88 197.067 108.708C195.575 106.244 192.572 105.421 190.689 103.346C189.81 102.378 189.218 101.139 189.442 99.8088C189.637 98.6454 190.312 97.6347 190.853 96.6095C191.44 95.5652 191.761 94.3933 191.79 93.1962C191.768 91.9395 191.533 90.6956 191.094 89.5178C190.147 86.8506 188.786 84.3486 187.062 82.1036C185.108 79.5304 182.728 77.3102 180.025 75.539C179.857 75.4294 179.72 75.7091 179.886 75.8179V75.8179Z" fill="white"/>
<path d="M190.061 87.3559C190.931 86.8811 191.604 86.1129 191.959 85.1884C192.314 84.2639 192.329 83.2433 192.001 82.3089C191.934 82.1201 191.637 82.2154 191.704 82.4045C192.011 83.274 191.998 84.2247 191.665 85.0849C191.332 85.9451 190.703 86.6582 189.89 87.0955C189.714 87.1908 189.886 87.4506 190.061 87.3559Z" fill="white"/>
<path d="M190.979 95.8552C189.03 95.3027 187.361 94.0364 186.304 92.3089C186.2 92.1376 185.939 92.3087 186.044 92.4798C187.146 94.2754 188.886 95.5896 190.916 96.1602C191.109 96.2144 191.171 95.9092 190.979 95.8552Z" fill="white"/>
<path d="M184.903 79.8902C184.605 80.1439 184.248 80.3197 183.865 80.4017C183.482 80.4837 183.085 80.4694 182.709 80.36C182.516 80.3034 182.454 80.6087 182.645 80.665C183.062 80.7839 183.501 80.7992 183.924 80.7095C184.347 80.6198 184.742 80.4279 185.074 80.1505C185.108 80.127 185.131 80.0916 185.139 80.0516C185.148 80.0115 185.141 79.9698 185.119 79.9349C185.096 79.9006 185.061 79.8766 185.021 79.8682C184.98 79.8598 184.938 79.8677 184.903 79.8902H184.903Z" fill="white"/>
<path d="M163.453 93.0468C163.572 93.0856 163.692 93.1244 163.812 93.1657C165.413 93.6957 166.969 94.3549 168.464 95.1366C168.58 95.1952 168.698 95.2564 168.812 95.3182C172.393 97.24 175.586 99.8092 178.228 102.895C179.278 104.125 180.233 105.432 181.085 106.805C182.261 108.703 183.386 110.854 185.071 112.212C185.245 112.356 185.428 112.488 185.619 112.61L196.756 109.628C196.778 109.608 196.801 109.591 196.823 109.572L197.273 109.473C197.234 109.399 197.192 109.323 197.153 109.249C197.131 109.206 197.106 109.164 197.083 109.121C197.068 109.092 197.052 109.064 197.039 109.037C197.034 109.028 197.029 109.019 197.024 109.012C197.012 108.985 196.997 108.962 196.985 108.938C196.752 108.513 196.514 108.09 196.274 107.667C196.273 107.664 196.273 107.664 196.27 107.662C194.469 104.424 192.289 101.41 189.777 98.6849C189.701 98.6046 189.624 98.5217 189.543 98.4428C188.397 97.2454 187.155 96.1436 185.83 95.1484C185.102 94.6058 184.347 94.1004 183.569 93.634C181.554 92.4328 179.363 91.5557 177.076 91.0348C172.516 89.9971 167.675 90.428 163.751 92.8582C163.651 92.9205 163.553 92.982 163.453 93.0468Z" fill="#F2F2F2"/>
<path d="M163.515 93.1814C169.356 92.797 175.17 94.2613 180.131 97.3663C181.211 98.0158 182.182 98.8313 183.007 99.7828C183.782 100.736 184.286 101.878 184.469 103.092C184.663 104.22 184.729 105.397 185.194 106.458C185.44 106.998 185.797 107.48 186.242 107.872C186.687 108.265 187.211 108.558 187.778 108.734C189.179 109.21 190.667 109.154 192.121 109.049C193.735 108.932 195.41 108.785 196.948 109.4C197.134 109.475 197.239 109.181 197.053 109.107C194.377 108.037 191.483 109.186 188.729 108.663C187.444 108.418 186.225 107.785 185.602 106.589C185.057 105.542 184.987 104.329 184.801 103.185C184.64 101.998 184.19 100.869 183.492 99.896C182.717 98.9056 181.78 98.0541 180.719 97.378C178.356 95.8178 175.762 94.6385 173.032 93.8833C169.922 93.0042 166.683 92.6633 163.458 92.8752C163.258 92.8884 163.317 93.1945 163.515 93.1814V93.1814Z" fill="white"/>
<path d="M178.593 96.2725C179.001 95.3702 179.075 94.3522 178.802 93.4004C178.528 92.4485 177.925 91.6248 177.1 91.0762C176.933 90.9658 176.753 91.2205 176.921 91.331C177.69 91.8404 178.252 92.6078 178.505 93.4947C178.757 94.3816 178.685 95.3296 178.299 96.1675C178.216 96.3497 178.51 96.4537 178.593 96.2726L178.593 96.2725Z" fill="white"/>
<path d="M184.447 102.507C182.558 103.238 180.462 103.231 178.578 102.487C178.391 102.414 178.286 102.707 178.473 102.781C180.435 103.551 182.616 103.554 184.581 102.789C184.768 102.715 184.634 102.434 184.447 102.507V102.507Z" fill="white"/>
<path d="M169.978 93.4135C169.892 93.7956 169.714 94.1505 169.457 94.4464C169.201 94.7423 168.875 94.9699 168.509 95.1088C168.321 95.1795 168.455 95.4606 168.642 95.3904C169.046 95.235 169.405 94.9832 169.689 94.6569C169.973 94.3306 170.173 93.9398 170.271 93.5185C170.284 93.4796 170.281 93.4374 170.263 93.4004C170.246 93.3634 170.215 93.3345 170.177 93.3195C170.138 93.3057 170.095 93.3079 170.058 93.3256C170.021 93.3432 169.992 93.3748 169.978 93.4135V93.4135Z" fill="white"/>
<path d="M55.591 37.9177C57.0382 37.9177 58.2114 36.7455 58.2114 35.2996C58.2114 33.8537 57.0382 32.6816 55.591 32.6816C54.1439 32.6816 52.9707 33.8537 52.9707 35.2996C52.9707 36.7455 54.1439 37.9177 55.591 37.9177Z" fill="#FD6584"/>
<path d="M155.89 63.7473C156.121 62.3201 155.151 60.9753 153.723 60.7437C152.294 60.5121 150.948 61.4813 150.717 62.9086C150.485 64.3358 151.455 65.6806 152.883 65.9122C154.312 66.1438 155.658 65.1745 155.89 63.7473Z" fill="#E6E6E6"/>
<path d="M55.4856 8.45563C56.9327 8.45563 58.1059 7.28349 58.1059 5.83759C58.1059 4.39168 56.9327 3.21954 55.4856 3.21954C54.0384 3.21954 52.8652 4.39168 52.8652 5.83759C52.8652 7.28349 54.0384 8.45563 55.4856 8.45563Z" fill="#E6E6E6"/>
<path d="M85.9047 18.1135H72.373V18.7186H85.9047V18.1135Z" fill="white"/>
<path d="M106.498 18.1135H92.9668V18.7186H106.498V18.1135Z" fill="white"/>
<path d="M120.947 90.5737H76.8368C76.6882 90.5737 76.541 90.5445 76.4037 90.4876C76.2664 90.4308 76.1417 90.3475 76.0366 90.2425C75.9315 90.1375 75.8481 90.0129 75.7912 89.8757C75.7344 89.7385 75.7051 89.5915 75.7051 89.443C75.7051 89.2945 75.7344 89.1474 75.7912 89.0102C75.8481 88.8731 75.9315 88.7484 76.0366 88.6434C76.1417 88.5384 76.2664 88.4551 76.4037 88.3983C76.541 88.3414 76.6882 88.3122 76.8368 88.3122H120.947C121.095 88.3122 121.242 88.3414 121.38 88.3983C121.517 88.4551 121.642 88.5384 121.747 88.6434C121.852 88.7484 121.935 88.8731 121.992 89.0102C122.049 89.1474 122.078 89.2945 122.078 89.443C122.078 89.5915 122.049 89.7385 121.992 89.8757C121.935 90.0129 121.852 90.1375 121.747 90.2425C121.642 90.3475 121.517 90.4308 121.38 90.4876C121.242 90.5445 121.095 90.5737 120.947 90.5737Z" fill="#CCCCCC"/>
<path d="M120.947 98.4408H76.8368C76.5367 98.4408 76.2488 98.3217 76.0366 98.1097C75.8243 97.8976 75.7051 97.61 75.7051 97.3101C75.7051 97.0102 75.8243 96.7226 76.0366 96.5105C76.2488 96.2985 76.5367 96.1793 76.8368 96.1793H120.947C121.247 96.1793 121.535 96.2985 121.747 96.5105C121.959 96.7226 122.078 97.0102 122.078 97.3101C122.078 97.61 121.959 97.8976 121.747 98.1097C121.535 98.3217 121.247 98.4408 120.947 98.4408Z" fill="#CCCCCC"/>
<path d="M120.947 106.308H76.8368C76.5367 106.308 76.2488 106.189 76.0366 105.977C75.8243 105.765 75.7051 105.477 75.7051 105.177C75.7051 104.877 75.8243 104.59 76.0366 104.378C76.2488 104.166 76.5367 104.046 76.8368 104.046H120.947C121.247 104.046 121.535 104.166 121.747 104.378C121.959 104.59 122.078 104.877 122.078 105.177C122.078 105.477 121.959 105.765 121.747 105.977C121.535 106.189 121.247 106.308 120.947 106.308Z" fill="#CCCCCC"/>
<path d="M127.092 18.1135H113.561V18.7186H127.092V18.1135Z" fill="white"/>
<path d="M85.9047 126.74H72.373V127.345H85.9047V126.74Z" fill="white"/>
<path d="M106.498 126.74H92.9668V127.345H106.498V126.74Z" fill="white"/>
<path d="M127.092 126.74H113.561V127.345H127.092V126.74Z" fill="white"/>
<path d="M99.732 75.0835C111.06 75.0835 120.243 65.9082 120.243 54.59C120.243 43.2718 111.06 34.0966 99.732 34.0966C88.4039 34.0966 79.2207 43.2718 79.2207 54.59C79.2207 65.9082 88.4039 75.0835 99.732 75.0835Z" fill="#D1D3D4"/>
<path d="M99.7321 74.1944C110.067 74.1944 118.445 65.8238 118.445 55.4981C118.445 45.1725 110.067 36.8019 99.7321 36.8019C89.3974 36.8019 81.0195 45.1725 81.0195 55.4981C81.0195 65.8238 89.3974 74.1944 99.7321 74.1944Z" fill="#E3186D"/>
<path d="M98.0993 62.8259C98.0589 62.8259 98.018 62.8249 97.9771 62.823C97.6183 62.8056 97.2674 62.7109 96.9486 62.5453C96.6298 62.3797 96.3506 62.1473 96.1301 61.8638L93.1808 58.0756C92.7753 57.5537 92.5935 56.8923 92.6755 56.2366C92.7575 55.581 93.0964 54.9846 93.618 54.5783L93.7236 54.4961C94.2462 54.0909 94.9082 53.9093 95.5646 53.9911C96.2209 54.0729 96.818 54.4114 97.225 54.9324C97.3573 55.1026 97.525 55.2422 97.7164 55.3416C97.9078 55.441 98.1185 55.4979 98.334 55.5083C98.5497 55.5209 98.7655 55.4858 98.9661 55.4054C99.1666 55.325 99.3469 55.2014 99.4941 55.0433L105.482 48.7277C105.938 48.2486 106.565 47.9695 107.226 47.9517C107.887 47.9338 108.528 48.1786 109.008 48.6323L109.106 48.7243C109.586 49.1792 109.865 49.8057 109.883 50.4663C109.901 51.1268 109.656 51.7676 109.202 52.2479L99.9094 62.0477C99.6766 62.2936 99.3959 62.4895 99.0847 62.6233C98.7735 62.7571 98.4382 62.8261 98.0993 62.8259Z" fill="white"/>
<path d="M87.8559 10.4774C88.5249 10.4774 89.0673 9.93553 89.0673 9.26709C89.0673 8.59864 88.5249 8.05676 87.8559 8.05676C87.1869 8.05676 86.6445 8.59864 86.6445 9.26709C86.6445 9.93553 87.1869 10.4774 87.8559 10.4774Z" fill="white"/>
<path opacity="0.16" d="M99.732 71.6044C94.9979 71.6038 90.4399 69.8101 86.977 66.5848C83.514 63.3596 81.4035 58.9426 81.0708 54.2242C81.0405 54.6595 81.0195 55.0973 81.0195 55.5403C81.0195 60.4989 82.991 65.2543 86.5003 68.7605C90.0096 72.2667 94.7692 74.2365 99.732 74.2365C104.695 74.2365 109.455 72.2667 112.964 68.7605C116.473 65.2543 118.445 60.4989 118.445 55.5403C118.445 55.0973 118.424 54.6595 118.393 54.2242C118.061 58.9426 115.95 63.3596 112.487 66.5848C109.024 69.8101 104.466 71.6038 99.732 71.6044Z" fill="#231F20"/>
<path d="M126.115 70.5847L140.955 71.1897L142.772 61.2044L130.052 57.2711L126.115 70.5847Z" fill="#FFB8B8"/>
<path d="M131.722 48.9578L131.866 44.2404L124.674 42.4389L111.725 38.6646C111.554 38.1452 111.229 37.69 110.793 37.3593C110.357 37.0285 109.831 36.8378 109.284 36.8123C108.737 36.7868 108.196 36.9278 107.731 37.2166C107.266 37.5053 106.9 37.9283 106.681 38.4295C106.462 38.9307 106.4 39.4865 106.504 40.0235C106.608 40.5604 106.873 41.0531 107.264 41.4364C107.654 41.8198 108.152 42.0756 108.691 42.1702C109.23 42.2648 109.785 42.1936 110.283 41.9661L122.871 47.1362L131.722 48.9578Z" fill="#FFB8B8"/>
<path d="M127.088 48.9247L131.134 43.1592L131.235 43.1727C131.298 43.181 137.643 44.0291 141.802 45.2667C142.27 45.3904 142.705 45.6146 143.076 45.9235C143.448 46.2324 143.748 46.6186 143.955 47.0553C144.253 47.6654 144.365 48.3491 144.279 49.0222C144.193 49.6953 143.912 50.3287 143.47 50.8445C143.021 51.402 142.421 51.8186 141.741 52.0443C141.061 52.27 140.33 52.2953 139.637 52.1172L127.088 48.9247Z" fill="#E3186D"/>
<path d="M129.651 136.333L125.536 136.332L123.578 120.473L129.652 120.473L129.651 136.333Z" fill="#FFB8B8"/>
<path d="M161.694 134.553L157.625 135.167L153.316 119.778L158.651 118.871L161.694 134.553Z" fill="#FFB8B8"/>
<path d="M141.56 68.1639L127.327 65.7433L126.82 66.7859C124.096 72.4029 122.488 78.4942 122.084 84.7229C121.74 89.981 121.538 95.5344 121.531 101.356C121.521 110.376 121.982 118.745 122.71 126.36L130.522 126.312C130.296 118.226 130.604 110.135 131.442 102.089C132.04 96.3526 132.871 90.9938 133.832 86.049C135.615 93.3082 138.132 100.368 141.344 107.118C144.074 112.886 149.689 119.554 152.419 125.322C155.217 124.987 158.014 124.651 160.811 124.316C158.607 118.491 154.674 109.985 152.47 104.16C149.318 95.8321 147.894 90.1849 144.742 81.8566C144.922 80.291 144.957 78.7122 144.847 77.1402C144.7 74.52 144.154 71.3757 142.56 69.2795L141.56 68.1639Z" fill="#2F2E41"/>
<path d="M143.759 63.8226C144.47 65.1502 142.782 67.9004 141.56 68.1639L127.484 63.618L134.572 43.0987L138.138 43.7462L143.84 44.7062L145.863 46.5433C146.373 47.0064 146.737 47.6074 146.911 48.2732C147.085 48.9389 147.062 49.6409 146.844 50.2938L143.759 63.8226Z" fill="#E3186D"/>
<path d="M134.069 55.8927L130.087 53.3538L124.856 58.6033L114.98 67.7828C114.446 67.6639 113.888 67.7099 113.381 67.9146C112.873 68.1193 112.44 68.4732 112.138 68.9294C111.836 69.3856 111.68 69.9226 111.69 70.4694C111.7 71.0162 111.876 71.547 112.195 71.9916C112.514 72.4362 112.96 72.7737 113.475 72.9594C113.99 73.145 114.549 73.1702 115.078 73.0314C115.608 72.8927 116.083 72.5966 116.44 72.1824C116.797 71.7681 117.02 71.2552 117.08 70.7116L127.971 62.556L134.069 55.8927Z" fill="#FFB8B8"/>
<path d="M131.668 59.8529L128.783 53.4285L128.846 53.3488C128.886 53.2987 132.864 48.2878 136.058 45.352C136.404 45.0142 136.819 44.7558 137.275 44.5949C137.731 44.434 138.217 44.3744 138.698 44.4202C139.375 44.4778 140.02 44.7314 140.555 45.15C141.089 45.5686 141.49 46.134 141.707 46.7768C141.957 47.4477 142.007 48.1763 141.853 48.8752C141.699 49.5742 141.347 50.2141 140.838 50.7183L131.668 59.8529Z" fill="#E3186D"/>
<path d="M140.639 41.7275C144.096 41.7275 146.899 38.9272 146.899 35.4729C146.899 32.0186 144.096 29.2183 140.639 29.2183C137.182 29.2183 134.379 32.0186 134.379 35.4729C134.379 38.9272 137.182 41.7275 140.639 41.7275Z" fill="#FFB8B8"/>
<path d="M145.695 44.5361L145.671 44.5301L136.574 42.2567C136.259 42.1779 135.967 42.0264 135.721 41.8144C135.475 41.6024 135.282 41.3357 135.157 41.0357C135.033 40.7357 134.981 40.4108 135.005 40.087C135.029 39.7633 135.129 39.4497 135.296 39.1713L135.597 38.6718C135.89 38.184 136.057 37.6306 136.081 37.062C136.105 36.4934 135.987 35.9278 135.736 35.4167C135.305 34.582 134.564 33.9494 133.672 33.6547L133.641 33.6402L133.45 33.5214C133.263 33.4329 133.095 33.3061 132.96 33.1492C132.824 32.9924 132.722 32.8088 132.661 32.6105C132.598 32.4049 132.579 32.1884 132.605 31.9749C132.631 31.7615 132.701 31.5558 132.812 31.3713C133.615 30.0292 134.817 28.9705 136.25 28.3427C138.061 27.5638 140.101 27.5025 141.955 28.1715C142.079 28.0581 142.229 27.9771 142.391 27.9358C142.554 27.8945 142.724 27.8942 142.887 27.9349C147.598 29.0749 147.986 32.2344 147.055 37.3062L148.157 41.7455C148.235 42.0589 148.243 42.3856 148.182 42.7027C148.121 43.0198 147.991 43.3198 147.802 43.5818C147.613 43.8438 147.37 44.0615 147.088 44.2199C146.806 44.3782 146.493 44.4734 146.171 44.4987L145.695 44.5361ZM141.905 28.2214L141.905 28.222L141.905 28.2214ZM142.019 28.1936L142.02 28.1939L142.019 28.1936Z" fill="#2F2E41"/>
<path d="M130.655 140.444H128.306L127.887 138.229L126.813 140.444H120.584C120.285 140.444 119.995 140.349 119.754 140.172C119.514 139.995 119.336 139.746 119.247 139.461C119.158 139.177 119.163 138.871 119.26 138.589C119.358 138.307 119.543 138.063 119.788 137.894L124.763 134.461V132.221L129.995 132.533L130.655 140.444Z" fill="#2F2E41"/>
<path d="M162.35 140.444H160.002L159.583 138.229L158.509 140.444H152.279C151.981 140.444 151.69 140.349 151.449 140.172C151.209 139.995 151.031 139.746 150.942 139.461C150.853 139.177 150.858 138.871 150.955 138.589C151.053 138.307 151.238 138.063 151.484 137.894L156.458 134.461V132.221L161.691 132.533L162.35 140.444Z" fill="#2F2E41"/>
</g>
<defs>
<clipPath id="clip0_2107_5268">
<rect width="198" height="141" fill="white"/>
</clipPath>
</defs>
</svg>
