<svg width="35" height="40" viewBox="0 0 35 40" fill="none" xmlns="http://www.w3.org/2000/svg">
<g clip-path="url(#clip0_76_50)">
<path d="M18.183 0.575851C18.9594 0.747058 19.7513 0.840443 20.4967 1.08947C24.9376 2.52138 27.9189 6.91048 27.5462 11.4708C27.1581 16.3268 23.6798 20.1712 18.9749 20.9338C13.1676 21.8832 7.7639 17.7276 7.17385 11.8599C6.59932 6.28791 10.6676 1.24511 16.211 0.653672C16.3042 0.638108 16.4129 0.60698 16.506 0.591416C17.065 0.575851 17.624 0.575851 18.183 0.575851Z" fill="white"/>
<path d="M17.3443 39.4397C12.127 39.4397 6.89411 39.4397 1.67679 39.4397C0.714073 39.4397 0.294824 39.0039 0.310352 38.0389C0.403518 30.8327 5.71401 24.6692 12.8257 23.5175C13.4779 23.4085 14.13 23.3618 14.7822 23.3463C16.4282 23.3152 18.0586 23.3152 19.7045 23.3463C26.3038 23.4085 32.1112 27.9066 33.8347 34.2879C34.1764 35.533 34.3472 36.7782 34.3782 38.07C34.3937 38.9727 33.959 39.4241 33.0584 39.4241C27.8255 39.4397 22.5771 39.4397 17.3443 39.4397Z" fill="white"/>
</g>
<defs>
<clipPath id="clip0_76_50">
<rect width="34.6269" height="40" fill="white"/>
</clipPath>
</defs>
</svg>
