<svg width="170" height="63" viewBox="0 0 170 63" fill="none" xmlns="http://www.w3.org/2000/svg">
<path d="M12.5618 44.4645C12.1465 43.6835 12.1465 42.6942 12.5618 41.9132L24.7603 19.1083C28.0824 13.9017 34.7267 12.0793 40.229 14.7868L43.9145 16.6091C45.316 17.286 45.887 19.0041 45.2122 20.4099C44.5374 21.8157 42.8244 22.3884 41.4229 21.7116L37.7374 19.8893C34.7786 18.4314 31.2488 19.4207 29.484 22.1802L17.3893 44.5686C16.3511 46.443 13.6 46.443 12.5618 44.4645Z" fill="#E3186D"/>
<path d="M33.5328 3.43637C35.2977 3.43637 36.6992 4.89422 36.6992 6.6124C36.6992 8.38265 35.2977 9.78844 33.5328 9.78844C31.768 9.78844 30.4183 8.38265 30.4183 6.6124C30.4183 4.89422 31.768 3.43637 33.5328 3.43637ZM30.8855 43.1108V27.2306C30.8855 25.7207 32.0794 24.5231 33.5847 24.5231C35.0901 24.5231 36.284 25.7207 36.284 27.2306V43.1108C36.284 44.6207 35.0901 45.8182 33.5847 45.8182C32.0794 45.8182 30.8855 44.6207 30.8855 43.1108Z" fill="#27276C"/>
<path d="M58.6565 39.6223C60.2656 40.6116 60.3695 42.9025 58.8641 44.0479C57.0473 45.5058 54.7114 46.2868 52.0122 46.2868C45.4717 46.2868 40.6962 41.5488 40.6962 35.1446C40.6962 28.7926 45.4198 24.0546 52.0122 24.0546C54.7114 24.0546 56.9954 24.8876 58.8641 26.2934C60.3695 27.4388 60.2137 29.7298 58.6565 30.719C57.6702 31.3438 56.4244 31.2397 55.542 30.5107C54.6595 29.7298 53.4656 29.3132 52.0641 29.3132C48.6382 29.3132 46.1985 31.9165 46.1985 35.1446C46.1985 38.4248 48.6382 41.0281 52.0641 41.0281C53.5175 41.0281 54.6595 40.6116 55.542 39.8306C56.4244 39.0496 57.6702 38.9975 58.6565 39.6223Z" fill="#27276C"/>
<path d="M75.2672 24.0546C81.6519 24.0546 86.5832 28.7926 86.5832 35.1446C86.5832 41.4967 81.6519 46.2868 75.2672 46.2868C68.8824 46.2868 64.0031 41.5488 64.0031 35.1446C64.0031 28.8446 68.8824 24.0546 75.2672 24.0546ZM81.1847 35.1446C81.1847 31.9165 78.6931 29.3132 75.2672 29.3132C71.8931 29.3132 69.4534 31.9165 69.4534 35.1446C69.4534 38.4248 71.8931 41.0281 75.2672 41.0281C78.6412 41.0281 81.1847 38.4248 81.1847 35.1446Z" fill="#27276C"/>
<path d="M142.229 37.1752H128.992C129.771 39.8826 132.107 41.3405 134.754 41.3405C136.26 41.3405 137.453 41.0802 138.647 40.4554C139.634 39.9347 140.828 40.143 141.554 40.976C142.592 42.1215 142.281 43.8917 140.983 44.6727C139.063 45.7661 136.986 46.2868 134.598 46.2868C128.11 46.2868 123.282 41.5488 123.282 35.1446C123.282 28.7926 128.162 24.0546 134.598 24.0546C141.139 24.0546 144.928 28.8446 144.928 34.4678C144.928 34.4678 144.928 34.4678 144.928 34.5198C144.928 35.9777 143.682 37.1752 142.229 37.1752ZM139.634 33.1661C139.322 30.7711 137.713 28.7405 134.598 28.7405C131.899 28.7405 129.719 30.4587 128.992 33.1661H139.634Z" fill="#27276C"/>
<path d="M155.569 38.1124V29.5736H158.632C160.034 29.5736 161.124 28.4281 161.124 27.0744C161.124 25.6686 159.982 24.5752 158.632 24.5752H155.569H149.185C147.783 24.5752 146.693 25.7207 146.693 27.0744C146.693 28.4802 147.835 29.5736 149.185 29.5736H150.119V38.581C150.119 43.7355 153.234 46.2347 157.438 46.2347C158.113 46.2347 158.684 46.2347 159.203 46.1826C160.553 46.0785 161.539 44.9331 161.539 43.5793C161.539 42.1215 160.345 40.976 158.892 40.976C158.736 40.976 158.58 40.976 158.373 40.976C156.763 40.976 155.569 40.2471 155.569 38.1124Z" fill="#27276C"/>
<path d="M115.756 46.2868C114.354 46.2868 113.264 45.1413 113.264 43.7876V34.2595C113.264 32.0727 111.603 30.1983 109.423 30.0942C107.087 29.9901 105.166 31.8645 105.166 34.1554V43.7876C105.166 45.1934 104.024 46.2868 102.675 46.2868C101.273 46.2868 100.183 45.1413 100.183 43.7876V34.3116C100.183 29.2091 104.336 24.9397 109.423 25.0438C114.354 25.1479 118.351 29.157 118.351 34.1554V43.7876C118.299 45.1413 117.157 46.2868 115.756 46.2868Z" fill="#27276C"/>
<path d="M10.6412 40.976L3.01069 28.2719C2.18015 26.9182 2.64733 25.1479 4.04885 24.3669C5.39847 23.638 7.05954 24.0545 7.83817 25.3562L13.9114 35.405L10.6412 40.976Z" fill="#E3186D"/>
<path d="M41.8381 57.5331L40.0732 53.1074H41.0076L42.3053 56.3876L43.603 53.1074H44.5374L42.7725 57.5331H41.8381Z" fill="#27276C"/>
<path d="M45.7831 51.0769C46.0946 51.0769 46.3541 51.3372 46.3541 51.6496C46.3541 51.962 46.0946 52.2223 45.7831 52.2223C45.4717 52.2223 45.2122 51.962 45.2122 51.6496C45.2122 51.3372 45.4717 51.0769 45.7831 51.0769ZM45.3679 57.5331V53.1074H46.2503V57.5331H45.3679Z" fill="#27276C"/>
<path d="M47.7557 57.5331V53.1074H48.5344V53.9926C48.742 53.524 49.1573 53.0033 50.2473 53.0033V53.9405C49.0015 53.9405 48.5863 54.6694 48.5863 55.5025V57.5331H47.7557Z" fill="#27276C"/>
<path d="M51.4412 53.8884H50.6626V53.1074H51.0779C51.3374 53.1074 51.4931 52.9512 51.4931 52.6909L51.545 51.8058H52.3237V53.0554H53.6214V53.8364H52.3237V55.9711C52.3237 56.4917 52.5832 56.7 52.9466 56.7C53.258 56.7 53.4137 56.7 53.6733 56.5959V57.4289C53.4137 57.481 53.1542 57.5331 52.8947 57.5331C52.0122 57.5331 51.4412 57.0124 51.4412 56.0231V53.8884Z" fill="#27276C"/>
<path d="M54.6595 55.6066V53.1074H55.542V55.5025C55.542 56.4397 55.9573 56.8041 56.5802 56.8041C57.2031 56.8041 57.6183 56.4397 57.6183 55.5025V53.1074H58.5008V55.6066C58.5008 57.0645 57.5145 57.6372 56.5802 57.6372C55.6458 57.6372 54.6595 57.0124 54.6595 55.6066Z" fill="#27276C"/>
<path d="M61.6672 53.7843C61.0443 53.7843 60.6809 54.0967 60.4733 54.4091L59.7466 53.9926C60.058 53.4719 60.5771 52.9512 61.6672 52.9512C62.7573 52.9512 63.4321 53.6281 63.4321 54.5132V57.5331H62.6015V56.8562C62.342 57.3248 61.8229 57.6372 61.0443 57.6372C60.1618 57.6372 59.5389 57.1165 59.5389 56.3355C59.5389 55.5025 60.1099 55.138 60.8367 55.0339L62.1863 54.8256C62.4458 54.7736 62.5496 54.6694 62.5496 54.5132C62.5496 54.2008 62.2901 53.7843 61.6672 53.7843ZM62.5496 55.4504L61.1481 55.6587C60.6809 55.7107 60.4214 55.919 60.4214 56.2835C60.4214 56.7 60.7328 56.8041 61.2 56.8041C62.0305 56.8041 62.5496 56.3876 62.5496 55.6066V55.4504V55.4504Z" fill="#27276C"/>
<path d="M64.8855 57.5331V51.181H65.7679V57.5331H64.8855Z" fill="#27276C"/>
<path d="M72.8794 56.5959C72.4641 57.2207 71.7893 57.6372 71.0107 57.6372C69.6611 57.6372 68.6748 56.5959 68.6748 55.2942C68.6748 53.9926 69.6611 52.9512 71.0107 52.9512C71.8412 52.9512 72.516 53.3157 72.8794 53.9926L72.1527 54.4612C71.8931 54.0446 71.5298 53.7843 71.0107 53.7843C70.1801 53.7843 69.5572 54.4612 69.5572 55.2421C69.5572 56.0752 70.1801 56.7 71.0107 56.7C71.5298 56.7 71.8931 56.4397 72.1527 56.0752L72.8794 56.5959Z" fill="#27276C"/>
<path d="M75.8901 52.9512C77.1878 52.9512 78.226 53.9926 78.226 55.2942C78.226 56.5959 77.1878 57.6372 75.8901 57.6372C74.5405 57.6372 73.5542 56.5959 73.5542 55.2942C73.5542 53.9926 74.5924 52.9512 75.8901 52.9512ZM77.3435 55.2942C77.3435 54.5132 76.7206 53.8364 75.8901 53.8364C75.0595 53.8364 74.4366 54.5132 74.4366 55.2942C74.4366 56.1273 75.0595 56.7521 75.8901 56.7521C76.7206 56.7521 77.3435 56.1273 77.3435 55.2942Z" fill="#27276C"/>
<path d="M79.3679 57.5331V51.181H80.2504V57.5331H79.3679Z" fill="#27276C"/>
<path d="M81.7557 57.5331V51.181H82.6382V57.5331H81.7557Z" fill="#27276C"/>
<path d="M85.9603 53.7843C85.3374 53.7843 84.974 54.0967 84.7664 54.4091L84.0397 53.9926C84.3511 53.4719 84.8702 52.9512 85.9603 52.9512C87.0504 52.9512 87.7252 53.6281 87.7252 54.5132V57.5331H86.8946V56.8562C86.6351 57.3248 86.116 57.6372 85.3374 57.6372C84.4549 57.6372 83.832 57.1165 83.832 56.3355C83.832 55.5025 84.403 55.138 85.1297 55.0339L86.4794 54.8256C86.7389 54.7736 86.8427 54.6694 86.8427 54.5132C86.8427 54.2008 86.5832 53.7843 85.9603 53.7843ZM86.8427 55.4504L85.4412 55.6587C84.974 55.7107 84.7145 55.919 84.7145 56.2835C84.7145 56.7 85.0259 56.8041 85.4931 56.8041C86.3236 56.8041 86.8427 56.3876 86.8427 55.6066V55.4504Z" fill="#27276C"/>
<path d="M89.1786 57.5331V51.181H90.061V53.7322C90.3725 53.3678 90.8397 53.0033 91.6183 53.0033C92.8641 53.0033 93.8503 54.0446 93.8503 55.3463C93.8503 56.6479 92.8122 57.6893 91.6183 57.6893C90.7358 57.6893 90.2687 57.2727 89.9572 56.9083V57.5851H89.1786V57.5331ZM90.061 55.2942C90.061 56.1273 90.6839 56.7521 91.5145 56.7521C92.345 56.7521 92.9679 56.0752 92.9679 55.2942C92.9679 54.5132 92.345 53.8364 91.5145 53.8364C90.6839 53.8364 90.061 54.5132 90.061 55.2942Z" fill="#27276C"/>
<path d="M96.913 52.9512C98.2107 52.9512 99.2489 53.9926 99.2489 55.2942C99.2489 56.5959 98.2107 57.6372 96.913 57.6372C95.5634 57.6372 94.5771 56.5959 94.5771 55.2942C94.5771 53.9926 95.6153 52.9512 96.913 52.9512ZM98.3665 55.2942C98.3665 54.5132 97.7436 53.8364 96.913 53.8364C96.0825 53.8364 95.4596 54.5132 95.4596 55.2942C95.4596 56.1273 96.0825 56.7521 96.913 56.7521C97.7436 56.7521 98.3665 56.1273 98.3665 55.2942Z" fill="#27276C"/>
<path d="M100.391 57.5331V53.1074H101.169V53.9926C101.377 53.524 101.792 53.0033 102.882 53.0033V53.9405C101.637 53.9405 101.221 54.6694 101.221 55.5025V57.5331H100.391Z" fill="#27276C"/>
<path d="M105.634 53.7843C105.011 53.7843 104.647 54.0967 104.44 54.4091L103.713 53.9926C104.024 53.4719 104.544 52.9512 105.634 52.9512C106.724 52.9512 107.398 53.6281 107.398 54.5132V57.5331H106.568V56.8562C106.308 57.3248 105.789 57.6372 105.011 57.6372C104.128 57.6372 103.505 57.1165 103.505 56.3355C103.505 55.5025 104.076 55.138 104.803 55.0339L106.153 54.8256C106.412 54.7736 106.516 54.6694 106.516 54.5132C106.516 54.2008 106.257 53.7843 105.634 53.7843ZM106.516 55.4504L105.115 55.6587C104.647 55.7107 104.388 55.919 104.388 56.2835C104.388 56.7 104.699 56.8041 105.166 56.8041C105.997 56.8041 106.516 56.3876 106.516 55.6066V55.4504Z" fill="#27276C"/>
<path d="M108.956 53.8884H108.177V53.1074H108.592C108.852 53.1074 109.008 52.9512 109.008 52.6909L109.06 51.8058H109.838V53.0554H111.136V53.8364H109.838V55.9711C109.838 56.4917 110.098 56.7 110.461 56.7C110.773 56.7 110.928 56.7 111.188 56.5959V57.4289C110.928 57.481 110.669 57.5331 110.409 57.5331C109.527 57.5331 108.956 57.0124 108.956 56.0231V53.8884Z" fill="#27276C"/>
<path d="M112.693 51.0769C113.005 51.0769 113.264 51.3372 113.264 51.6496C113.264 51.962 113.005 52.2223 112.693 52.2223C112.382 52.2223 112.122 51.962 112.122 51.6496C112.122 51.3372 112.382 51.0769 112.693 51.0769ZM112.226 57.5331V53.1074H113.108V57.5331H112.226Z" fill="#27276C"/>
<path d="M116.586 52.9512C117.884 52.9512 118.922 53.9926 118.922 55.2942C118.922 56.5959 117.884 57.6372 116.586 57.6372C115.237 57.6372 114.25 56.5959 114.25 55.2942C114.25 53.9926 115.289 52.9512 116.586 52.9512ZM118.04 55.2942C118.04 54.5132 117.417 53.8364 116.586 53.8364C115.756 53.8364 115.133 54.5132 115.133 55.2942C115.133 56.1273 115.756 56.7521 116.586 56.7521C117.417 56.7521 118.04 56.1273 118.04 55.2942Z" fill="#27276C"/>
<path d="M120.064 57.5331V53.1074H120.895V53.8884C121.05 53.4719 121.518 53.0033 122.348 53.0033C123.282 53.0033 124.009 53.576 124.009 54.9818V57.5331H123.127V55.138C123.127 54.2008 122.711 53.8364 122.089 53.8364C121.414 53.8364 120.947 54.4612 120.947 55.2422V57.5331H120.064V57.5331Z" fill="#27276C"/>
<path d="M127.747 57.481V53.0554H128.577V53.8364C128.733 53.4198 129.2 52.9512 130.031 52.9512C130.965 52.9512 131.692 53.524 131.692 54.9297V57.481H130.809V55.0859C130.809 54.1488 130.394 53.7843 129.771 53.7843C129.096 53.7843 128.629 54.4091 128.629 55.1901V57.481H127.747V57.481Z" fill="#27276C"/>
<path d="M137.142 55.6066H133.664C133.82 56.2835 134.391 56.7521 135.066 56.7521C135.585 56.7521 135.844 56.6479 136.311 56.2835L136.831 56.8562C136.311 57.3248 135.74 57.5331 135.066 57.5331C133.716 57.5331 132.73 56.4917 132.73 55.1901C132.73 53.8884 133.768 52.8471 135.066 52.8471C136.415 52.8471 137.194 53.7843 137.194 55.0339C137.194 55.2421 137.142 55.5025 137.142 55.6066ZM136.311 54.8256C136.208 54.2008 135.844 53.7322 135.066 53.7322C134.391 53.7322 133.82 54.2008 133.664 54.8256H136.311Z" fill="#27276C"/>
<path d="M138.44 53.8364H137.661V53.0554H138.076C138.336 53.0554 138.492 52.8992 138.492 52.6388L138.544 51.7537H139.322V53.0033H140.62V53.7843H139.322V55.919C139.322 56.4397 139.582 56.6479 139.945 56.6479C140.257 56.6479 140.412 56.6479 140.672 56.5438V57.3769C140.412 57.4289 140.153 57.481 139.893 57.481C139.011 57.481 138.44 56.9603 138.44 55.9711V53.8364Z" fill="#27276C"/>
<path d="M142.437 57.481L140.983 53.0554H141.866L142.852 56.1793L143.942 53.0554H144.824L145.914 56.1793L146.901 53.0554H147.835L146.382 57.481H145.499L144.409 54.2529L143.319 57.481H142.437Z" fill="#27276C"/>
<path d="M150.638 52.9512C151.936 52.9512 152.974 53.9926 152.974 55.2942C152.974 56.5959 151.936 57.6372 150.638 57.6372C149.289 57.6372 148.302 56.5959 148.302 55.2942C148.302 53.9405 149.34 52.9512 150.638 52.9512ZM152.092 55.2421C152.092 54.4612 151.469 53.7843 150.638 53.7843C149.808 53.7843 149.185 54.4612 149.185 55.2421C149.185 56.0752 149.808 56.7 150.638 56.7C151.469 56.7521 152.092 56.0752 152.092 55.2421Z" fill="#27276C"/>
<path d="M154.116 57.481V53.0554H154.895V53.9405C155.102 53.4719 155.518 52.9512 156.608 52.9512V53.8884C155.362 53.8884 154.947 54.6174 154.947 55.4504V57.481H154.116Z" fill="#27276C"/>
<path d="M158.58 55.3983V57.481H157.698V51.1289H158.58V54.9818L160.345 53.0033H161.435L159.515 55.1901L161.539 57.481H160.449L158.58 55.3983Z" fill="#27276C"/>
<path d="M92.7084 40.0388C94.4733 40.0388 95.8748 41.4967 95.8748 43.2149C95.8748 44.9851 94.4733 46.3909 92.7084 46.3909C90.9435 46.3909 89.5939 44.9851 89.5939 43.2149C89.542 41.4967 90.9435 40.0388 92.7084 40.0388Z" fill="#E3186D"/>
<path d="M164.082 24.8355V22.1802H163.2V21.7636H165.432V22.1802H164.55V24.8355H164.082Z" fill="#27276C"/>
<path d="M165.899 24.8355V21.7116H166.366L167.456 23.4818L168.546 21.7116H169.014V24.8355H168.546V22.5967L167.508 24.3149H167.405L166.366 22.5967V24.8355H165.899Z" fill="#27276C"/>
</svg>
