<svg width="35" height="28" viewBox="0 0 35 28" fill="none" xmlns="http://www.w3.org/2000/svg">
<rect x="0.5" y="0.5" width="34" height="27" rx="9.5" fill="#EEEEFA" stroke="#27276C"/>
<path d="M16.9168 7.16668C15.1679 7.16668 13.7502 8.58444 13.7502 10.3333C13.7502 12.0822 15.1679 13.5 16.9168 13.5C18.6657 13.5 20.0835 12.0822 20.0835 10.3333C20.0835 8.58444 18.6657 7.16668 16.9168 7.16668ZM12.1668 10.3333C12.1668 7.70999 14.2935 5.58334 16.9168 5.58334C19.5402 5.58334 21.6668 7.70999 21.6668 10.3333C21.6668 12.9567 19.5402 15.0833 16.9168 15.0833C14.2935 15.0833 12.1668 12.9567 12.1668 10.3333ZM24.0418 12.7083C24.4791 12.7083 24.8335 13.0628 24.8335 13.5V14.2917H25.6252C26.0624 14.2917 26.4168 14.6461 26.4168 15.0833C26.4168 15.5206 26.0624 15.875 25.6252 15.875H24.8335V16.6667C24.8335 17.1039 24.4791 17.4583 24.0418 17.4583C23.6046 17.4583 23.2502 17.1039 23.2502 16.6667V15.875H22.4585C22.0213 15.875 21.6668 15.5206 21.6668 15.0833C21.6668 14.6461 22.0213 14.2917 22.4585 14.2917H23.2502V13.5C23.2502 13.0628 23.6046 12.7083 24.0418 12.7083ZM14.146 18.25C13.1489 18.25 12.1668 19.2107 12.1668 20.625C12.1668 21.0622 11.8124 21.4167 11.3752 21.4167C10.9379 21.4167 10.5835 21.0622 10.5835 20.625C10.5835 18.5415 12.0825 16.6667 14.146 16.6667H19.6877C21.7512 16.6667 23.2502 18.5415 23.2502 20.625C23.2502 21.0622 22.8957 21.4167 22.4585 21.4167C22.0213 21.4167 21.6668 21.0622 21.6668 20.625C21.6668 19.2107 20.6847 18.25 19.6877 18.25H14.146Z" fill="#27276C"/>
</svg>
