<svg width="26" height="26" viewBox="0 0 26 26" fill="none" xmlns="http://www.w3.org/2000/svg">
<circle cx="13" cy="13" r="13" fill="black" fill-opacity="0.08"/>
<path d="M18.7504 6.73472H15.479V6.70252C15.479 6.09076 14.9882 5.60779 14.3667 5.60779H12.1421C11.5205 5.60779 11.0298 6.09076 11.0298 6.70252V6.73472H7.7583C7.41479 6.73472 7.13672 7.00841 7.13672 7.34649V7.95825C7.13672 8.29633 7.41479 8.57002 7.7583 8.57002H18.7504C19.0939 8.57002 19.372 8.29633 19.372 7.95825V7.34649C19.372 7.00841 19.0939 6.73472 18.7504 6.73472Z" fill="#27276C"/>
<path d="M17.9335 9.4071H8.57706C8.39713 9.4071 8.26627 9.552 8.28263 9.72909L8.74064 19.0504C8.78971 20.0808 9.65665 20.9018 10.7035 20.9018H15.7907C16.8375 20.9018 17.7045 20.0969 17.7535 19.0504L18.2115 9.72909C18.2443 9.5681 18.097 9.4071 17.9335 9.4071ZM12.2411 18.4065C12.2411 18.6963 12.0121 18.9217 11.7177 18.9217C11.4232 18.9217 11.1942 18.6963 11.1942 18.4065V11.9186C11.1942 11.6288 11.4232 11.4034 11.7177 11.4034C12.0121 11.4034 12.2411 11.6288 12.2411 11.9186V18.4065ZM15.3163 18.4065C15.3163 18.6963 15.0873 18.9217 14.7929 18.9217C14.4984 18.9217 14.2694 18.6963 14.2694 18.4065V11.9186C14.2694 11.6288 14.4984 11.4034 14.7929 11.4034C15.0873 11.4034 15.3163 11.6288 15.3163 11.9186V18.4065Z" fill="#27276C"/>
</svg>
