<svg width="20" height="20" viewBox="0 0 20 20" fill="none" xmlns="http://www.w3.org/2000/svg">
<path d="M16.8321 1.47368H12.8766V1.43158C12.8766 0.631579 12.2833 0 11.5317 0H8.84199C8.09044 0 7.49711 0.631579 7.49711 1.43158V1.47368H3.54159C3.12626 1.47368 2.79004 1.83158 2.79004 2.27368V3.07368C2.79004 3.51579 3.12626 3.87368 3.54159 3.87368H16.8321C17.2475 3.87368 17.5837 3.51579 17.5837 3.07368V2.27368C17.5837 1.83158 17.2475 1.47368 16.8321 1.47368Z" fill="#F8622B"/>
<path d="M15.8433 4.96851H4.53052C4.31296 4.96851 4.15474 5.15798 4.17452 5.38956L4.72829 17.579C4.78763 18.9264 5.83584 20.0001 7.10161 20.0001H13.2524C14.5182 20.0001 15.5664 18.9475 15.6258 17.579L16.1795 5.38956C16.2191 5.17903 16.0411 4.96851 15.8433 4.96851ZM8.9607 16.7369C8.9607 17.1159 8.68381 17.4106 8.32782 17.4106C7.97182 17.4106 7.69493 17.1159 7.69493 16.7369V8.25272C7.69493 7.87377 7.97182 7.57903 8.32782 7.57903C8.68381 7.57903 8.9607 7.87377 8.9607 8.25272V16.7369ZM12.6789 16.7369C12.6789 17.1159 12.402 17.4106 12.046 17.4106C11.69 17.4106 11.4131 17.1159 11.4131 16.7369V8.25272C11.4131 7.87377 11.69 7.57903 12.046 7.57903C12.402 7.57903 12.6789 7.87377 12.6789 8.25272V16.7369Z" fill="#F8622B"/>
</svg>
