<?xml version="1.0" encoding="utf-8"?>
<!-- Generator: Adobe Illustrator 25.3.0, SVG Export Plug-In . SVG Version: 6.00 Build 0)  -->
<svg version="1.1" id="Layer_1" xmlns="http://www.w3.org/2000/svg" xmlns:xlink="http://www.w3.org/1999/xlink" x="0px" y="0px"
	 width="39.8px" height="41px" viewBox="0 0 39.8 41" style="enable-background:new 0 0 39.8 41;" xml:space="preserve">
<style type="text/css">
	.st0{fill:#E4186D;}
	.st1{fill:#27276C;}
</style>
<path class="st0" d="M30.9,15.1c-7.9-2.2-14.6,2.4-17.1,7.8c-2.5,5.5-1.3,13.8,5.5,18c-0.2,0-0.4,0-0.6,0c-4.7,0-9.4,0-14.1,0
	c-1.6,0-2.3-0.8-2.3-2.3c0-9.9,0-19.9,0-29.8C2.4,8.1,2.6,7.6,3,7c1.3-1.9,2.5-3.7,3.7-5.6c0.5-0.8,1.2-1.1,2.1-1.1
	c6.6,0,13.2,0,19.8,0c1.5,0,2.3,0.8,2.3,2.3c0,4,0,8,0,12.1C30.9,14.8,30.9,14.9,30.9,15.1z M14.8,11.5c0,0.7,0,1.4,0,2.1
	c0,0.6,0.2,0.7,0.7,0.7c1.6,0,2.9-1.2,2.9-2.9c0-1.6-1.3-2.9-2.9-2.9c-0.6,0-0.7,0.1-0.7,0.7C14.8,10,14.8,10.8,14.8,11.5z
	 M11.1,12.8c0.3,0,0.5,0,0.7,0c1.1-0.1,2-1.1,1.9-2.2c-0.1-1.1-0.9-2-2.1-2c-0.3,0-0.6,0-1,0c-0.4,0-0.6,0.2-0.6,0.6
	c0,1.5,0,3,0,4.6c0,0.3,0.1,0.6,0.5,0.6c0.4,0,0.5-0.3,0.5-0.6C11.1,13.5,11.1,13.2,11.1,12.8z M20.6,9.6c0.7,0,1.4,0,2.1,0
	c0.3,0,0.5-0.2,0.5-0.5c0-0.3-0.2-0.5-0.5-0.5c-0.9,0-1.7,0-2.6,0c-0.3,0-0.5,0.2-0.5,0.5c0,1.6,0,3.2,0,4.8c0,0.3,0.2,0.5,0.5,0.5
	c0.2,0,0.4-0.3,0.5-0.4c0.1-0.1,0-0.3,0-0.5c0-0.6,0-1.1,0-1.7c0.7,0,1.3,0,1.9,0c0.4,0,0.7-0.1,0.7-0.5c0-0.4-0.3-0.5-0.7-0.5
	c-0.6,0-1.3,0-1.9,0C20.6,10.3,20.6,10,20.6,9.6z"/>
<path class="st1" d="M26.8,16.6C33.7,16.6,39.1,22.1,39,29c-0.1,6.6-5.6,12.1-12.3,12c-6.8-0.1-12.2-5.6-12.1-12.4
	C14.7,22,20.3,16.5,26.8,16.6z M28.8,29.8c0.1,0,0.1-0.1,0.2-0.1c0.2,0.2,0.3,0.4,0.5,0.6c0.8,0.8,2.1,0.7,2.8,0
	c0.8-0.8,0.8-2,0-2.8c-1.4-1.4-2.7-2.8-4.1-4.1c-0.8-0.8-2-0.8-2.9,0c-1.4,1.3-2.7,2.7-4,4c-0.8,0.8-0.8,2.1,0,2.9
	c0.8,0.8,2,0.8,2.9,0c0.2-0.2,0.3-0.3,0.6-0.6c0,0.3,0,0.4,0,0.5c0,0.9,0,1.9,0,2.8c0,1,0.7,1.7,1.6,1.9c1.3,0.2,2.4-0.7,2.4-1.9
	C28.9,31.9,28.8,30.8,28.8,29.8z"/>
<path class="st0" d="M15.9,9.7c0.9,0.1,1.6,0.9,1.6,1.8c0,0.9-0.7,1.8-1.6,1.8C15.9,12.1,15.9,10.9,15.9,9.7z"/>
<path class="st0" d="M11.1,9.6c0.6-0.1,1.1,0,1.4,0.5c0.2,0.4,0.3,0.7,0,1.1c-0.3,0.6-0.8,0.6-1.4,0.5C11.1,11.1,11.1,10.4,11.1,9.6
	z"/>
</svg>
