<?xml version="1.0" encoding="utf-8"?>
<!-- Generator: Adobe Illustrator 26.3.1, SVG Export Plug-In . SVG Version: 6.00 Build 0)  -->
<svg version="1.1" id="Layer_1" xmlns="http://www.w3.org/2000/svg" xmlns:xlink="http://www.w3.org/1999/xlink" x="0px" y="0px"
	 viewBox="0 0 384 384" style="enable-background:new 0 0 384 384;" xml:space="preserve">
<style type="text/css">
	.st0{fill:#FFFFFF;}
</style>
<path class="st0" d="M21.7,365.7c1.3,1.3,3.7,1.8,8.1,1.8l233.1,0l24.3,0c22.7,0,45.4,0,68.1,0c6.5,0,8.6-2.1,8.6-8.7
	c0-3.3,0-6.6,0-9.9c0-8.2,0.1-16.6-0.1-24.9c-0.4-21.1-9.2-38-26.1-50.2c-8.3-6-15.2-10.6-21.6-14.7c-14-8.8-30.8-18.3-50-22.7
	c-0.8-0.2-1.7-0.6-2.3-1.1c-2.3-2-4.7-4-7-6c-3.6-3.1-7.4-6.4-11.1-9.5c-5-4.2-7.1-4.1-12,0.3c-9.5,8.7-19,17.4-28.7,26.2L192,258.5
	l-4.4-4c-2.2-2-4.4-4-6.5-6c-3.2-2.9-6.4-5.9-9.6-8.8c-7.3-6.7-14.9-13.7-22.4-20.5c-3.6-3.3-6.1-3.3-10-0.2l-0.8,0.6
	c-1.5,1.2-3.1,2.5-4.6,3.9c-8.9,8-17.8,15.4-30.2,17.3c-0.3,0-0.7,0.2-1.1,0.4c-0.2,0.1-0.5,0.2-0.7,0.3
	c-18.5,7.4-37,18.4-58.3,34.6c-14,10.6-21.6,24.6-22.8,41.5c-0.7,9.5-0.6,19.3-0.6,28.7c0,3.8,0,7.5,0,11.2
	C19.9,362,20.4,364.4,21.7,365.7z M171.3,354.9l0.5-1.9c0.1-0.3,0.1-0.6,0.2-0.9c0.1-0.7,0.3-1.3,0.5-2c1-2.8,2-5.6,3.1-8.4
	c2-5.4,4-11,6-16.5c1-2.8,2.7-4,5.5-3.8c1.3,0.1,2.8,0,4.3-0.2c3.2-0.2,6.5-0.5,8.9,1.1c2.5,1.7,3.5,5.2,4.4,8.5
	c0.3,1.3,0.7,2.5,1.1,3.5c1.6,4.2,3.1,8.4,4.7,12.8c0.7,1.9,1.4,3.7,2.1,5.7l0.7,2H171.3z M257.9,255.8l3.3-8.4l1.4,0.5
	c1.8,0.6,3.6,1.2,5.4,1.8c3.8,1.2,7.8,2.5,11.6,4.1c17.8,7.4,35.6,18.2,54.6,33c11.2,8.7,17.2,21.2,17.5,36c0.1,7,0.1,13.8,0.1,21
	c0,3.2,0,6.5,0,9.8v1.5l-29.5,0c-29.7,0-60.4,0-90.6,0.1c0,0,0,0-0.1,0c-3.7,0-5.6-1.4-6.8-5c-1.7-4.9-3.5-10-5.3-14.8
	c-1.8-5.1-3.7-10.3-5.5-15.5c-0.6-1.8-0.2-4.6,1-6.3c1.9-2.8,4-5.3,6.1-8c0.8-1,1.7-2.1,2.5-3.1l0.9-1.2l2.3,1.9
	c0.8,0.6,1.5,1.2,2.3,1.8c2.3,1.8,4.5,2.5,6.4,2c1.9-0.5,3.5-2.2,4.6-4.9c2.9-7.3,5.7-14.7,8.5-21.9c1.4-3.7,2.9-7.4,4.3-11.2
	C254.4,264.7,256.1,260.4,257.9,255.8z M240.2,231.1l1,0.8c0.7,0.5,1.4,1.1,2.1,1.6c1.8,1.4,3.7,2.9,5.5,4.5c1.1,1,1.6,3.1,1,4.4
	c-4.8,12.6-9.7,25-14.8,38.2l-4,10.3l-29.8-24.3L240.2,231.1z M192,274.8l22.8,18.7l-3.4,4.2c-2.8,3.5-5.4,6.7-8.1,10
	c-0.7,0.9-2,1.2-2.9,1.3c-0.8,0.1-1.6,0.1-2.3,0.1l-0.5,0c-1.5,0-3.1,0.1-4.7,0.2c-1.5,0.1-3,0.2-4.4,0.2c-2.4,0-4.7-0.3-6.6-1.4
	c-3.5-2-5.9-5.4-8.5-9.1c-1-1.5-2.1-3.1-3.3-4.5l-0.9-1.2L192,274.8z M137,236.5c1.3-0.8,2.5-1.8,3.7-2.9c0.6-0.5,1.3-1.1,2-1.7
	l1-0.8l39,35.5l-29.5,24.2l-0.8-1.8c-0.2-0.5-0.4-0.9-0.6-1.3c-0.4-0.8-0.7-1.6-1-2.3c-1.5-3.9-3-7.7-4.5-11.6
	c-3.7-9.6-7.6-19.6-11.6-29.3C133.3,240.8,133.9,238.5,137,236.5z M31.7,353c0.2-4.1,0.4-8.2,0.5-12.3c0.3-9.4,0.7-19.2,1.8-28.7
	c1.5-12,9.2-20.2,15.4-25c15.2-11.6,35.7-26,59.7-35.2c1.7-0.6,3.4-1.2,5.1-1.7c1.2-0.4,2.5-0.8,3.8-1.2c4.1-1.4,5.7,1,6.5,3.3
	c7,18.3,13.3,34.4,19.3,49.4c0.9,2.2,2.6,4.2,4,4.7c1.7,0.6,4.4-0.3,6.6-1c0.8-0.2,1.5-0.9,2.4-1.7c0.5-0.4,1-0.9,1.5-1.3l1.2-0.9
	l0.9,1.2c0.9,1.1,1.7,2.1,2.5,3.2c2.4,3,4.6,5.8,6.8,8.7c1,1.4,1,3.6,0.5,5.1c-3.9,11.2-7.9,22.1-11.7,32.3
	c-0.5,1.4-2.5,3.1-4.2,3.1c-15.9,0-31.9,0-47.9,0c-21.2,0-42.3,0-63,0l-8.8,0c-0.4,0-0.7-0.1-0.8-0.2l-2.3-0.6L31.7,353z"/>
<path class="st0" d="M270.9,88.5c-0.1-0.6-0.1-1.4-0.2-2.2c-0.2-2.4-0.4-5.6-1-8.8c-4.8-26.6-18.4-46-40.5-57.5
	c-12.7-6.6-27.1-9.8-43.8-9.8c-2.1,0-4.3,0.1-6.6,0.2c-12.9,0.6-23.7,4.1-32.8,10.7c-7.7,5.6-13,13.1-18.5,21l-0.5,0.7
	c-2.9,4.2-6.7,8.5-11.4,13.1c-3.9,3.8-8.1,7.6-12.1,11.2c-3,2.7-6.1,5.5-9.1,8.4c-1.8,1.7-2.7,3.5-2.6,5.3c0.1,1.8,1.2,3.4,3.1,4.8
	c4.4,3.2,9.4,6.4,15.6,10c2.3,1.3,3.8,2.9,3.7,6.2c-0.3,10.4,1.3,21.2,5,33c0.9,3,1.5,6.4,1.6,9.9c0.4,14.6,2.1,31.5,12.2,45.7
	c10.9,15.3,25.6,27.1,43.8,35.2c10.7,4.7,21.7,4.5,32.7-0.8c16.9-8.1,30.6-19.2,40.6-32.8c3.4-4.7,6.4-10.4,8.8-17.1
	c3.7-10.1,5.2-21.4,4.6-34.4l0-0.2c-0.2-3.4-0.3-7.3,0.8-10.6C268.4,116.3,270.5,103.3,270.9,88.5z M251.7,142.3
	c-0.2,2.1-0.5,4.2-0.7,6.3c-0.5,4.6-1,9.4-1.7,14.1c-1.8,11.3-7.1,21.2-16.4,30.2c-10.1,9.8-19.6,16.5-29.9,21
	c-3.7,1.6-7.4,2.5-11,2.5c-3.4,0-6.8-0.7-10.1-2.2c-17.1-7.6-30.6-18.7-40-32.9c-8.1-12.3-9-26.3-8.8-39.7c0.1-8.1,1.9-15.5,5.1-22
	c1.5-2.9,3.5-5.6,5.4-8.1l0.3-0.4c2.6-3.5,6.2-3.8,9.4-3.7c26.1,1.2,49.3-4.9,69-18.2c2.5-1.7,4.6-1.6,6.9,0.3
	c7.8,6.3,12.2,14.6,16.3,25.1l0.1,0.2c3.2,8.1,6.5,16.4,5.3,25.7l0.9,0L251.7,142.3z M257.1,102.4l-0.5,4.6l-2.3-4
	c-0.2-0.3-0.4-0.7-0.6-1c-0.4-0.7-0.9-1.5-1.3-2.3c-6.3-12.1-13.6-19.9-23-24.5c-4.5-2.2-7.7-1.7-11.5,1.7
	c-10.4,9.4-23.3,13.3-34.7,15.8c-12.3,2.8-22.4,3.6-31.7,2.4c-4.4-0.5-8.1,0.6-11.7,3.5c-2.6,2.2-5.2,4.3-7.8,6.4l-5.6,4.7v-3.2
	c0-0.6,0-1.3,0-2.1c0-2.1-0.1-4.7,0.1-7.3c0.3-6.3-0.4-7.5-6-10.2c-2.5-1.2-5-2.5-7.7-3.8c-1.2-0.6-2.5-1.3-3.9-2l-2-1l1.6-1.5
	c1.7-1.5,3.4-3,5-4.4c3.7-3.2,7.1-6.2,10.3-9.4c3.8-3.8,7.3-8,10.7-12l2-2.4c1-1.2,1.8-2.5,2.7-4c0.3-0.5,0.6-1,0.9-1.5
	c8.6-13.3,20.5-20.7,35.4-22c21.4-1.8,38.9,1.9,53.4,11.2c16.8,10.8,26.4,26.7,28.5,47.1C258.4,88.3,257.8,95.6,257.1,102.4z"/>
</svg>
