<svg width="63" height="42" viewBox="0 0 63 42" fill="none" xmlns="http://www.w3.org/2000/svg">
<path d="M38.0752 8.56709L24.5156 8.61401L24.9237 33.4328L38.4833 33.3859L38.0752 8.56709Z" fill="#FF5F00"/>
<path d="M25.4093 21.0732C25.326 16.0253 27.5881 11.54 31.1309 8.63053C28.4572 6.53266 25.1052 5.27119 21.4713 5.28371C12.8624 5.31339 6.01413 12.4045 6.15833 21.1396C6.30253 29.8747 13.3842 36.9178 21.993 36.8881C25.6269 36.8756 28.937 35.5912 31.5411 33.4751C27.9033 30.6343 25.4926 26.1212 25.4093 21.0732Z" fill="#EB001B"/>
<path d="M56.8409 20.8604C56.9851 29.5955 50.1368 36.6866 41.5279 36.7163C37.894 36.7288 34.542 35.4674 31.8683 33.3695C35.4543 30.4599 37.6733 25.9747 37.5899 20.9268C37.5066 15.8789 35.0966 11.4096 31.4581 8.52494C34.0623 6.40888 37.3723 5.12444 41.0062 5.11191C49.6151 5.08223 56.6974 12.1692 56.8409 20.8604Z" fill="#F79E1B"/>
</svg>
