<svg width="30" height="24" viewBox="0 0 30 24" fill="none" xmlns="http://www.w3.org/2000/svg">
<rect x="0.5" y="0.5" width="29" height="23" rx="9.5" fill="#EEEEFA" stroke="#27276C"/>
<path d="M20.2368 5.35945H17.1199V5.32877C17.1199 4.74592 16.6524 4.28577 16.0602 4.28577H13.9407C13.3485 4.28577 12.881 4.74592 12.881 5.32877V5.35945H9.76408C9.43681 5.35945 9.17188 5.6202 9.17188 5.94231V6.52517C9.17188 6.84727 9.43681 7.10802 9.76408 7.10802H20.2368C20.5641 7.10802 20.829 6.84727 20.829 6.52517V5.94231C20.829 5.6202 20.5641 5.35945 20.2368 5.35945Z" fill="#27276C"/>
<path d="M19.4578 7.90564H10.5436C10.3721 7.90564 10.2474 8.04368 10.263 8.21241L10.6994 17.0933C10.7462 18.075 11.5721 18.8572 12.5695 18.8572H17.4163C18.4137 18.8572 19.2397 18.0903 19.2864 17.0933L19.7228 8.21241C19.7539 8.05902 19.6137 7.90564 19.4578 7.90564ZM14.0345 16.4798C14.0345 16.7559 13.8163 16.9706 13.5358 16.9706C13.2552 16.9706 13.0371 16.7559 13.0371 16.4798V10.2984C13.0371 10.0223 13.2552 9.80759 13.5358 9.80759C13.8163 9.80759 14.0345 10.0223 14.0345 10.2984V16.4798ZM16.9643 16.4798C16.9643 16.7559 16.7462 16.9706 16.4656 16.9706C16.1851 16.9706 15.9669 16.7559 15.9669 16.4798V10.2984C15.9669 10.0223 16.1851 9.80759 16.4656 9.80759C16.7462 9.80759 16.9643 10.0223 16.9643 10.2984V16.4798Z" fill="#27276C"/>
</svg>
