<svg width="105" height="105" viewBox="0 0 105 105" fill="none" xmlns="http://www.w3.org/2000/svg">
<path d="M52.4657 0.101633C23.5492 0.101633 0.101562 23.5493 0.101562 52.4658C0.101562 81.3823 23.5492 104.898 52.5341 104.898C81.519 104.898 104.967 81.4507 104.967 52.4658C104.967 23.4809 81.4506 0.101633 52.4657 0.101633ZM83.1596 40.5027C82.8178 40.9129 82.476 41.2547 82.1342 41.6649C71.4016 52.3975 60.7374 63.0617 50.0048 73.7943C47.7489 76.0502 45.1512 76.8705 42.1433 75.8451C40.9812 75.435 39.8874 74.7514 38.9987 73.8627C33.5299 68.4622 28.061 63.0617 22.6605 57.5929C18.764 53.6963 19.721 47.6806 24.7114 45.4247C27.2407 44.2626 30.2486 44.7411 32.4361 46.5868C34.3502 48.2275 36.0592 50.1416 37.9049 51.9189C39.7507 53.7647 41.6648 55.6788 43.5789 57.6612C44.0574 58.1397 44.8094 58.1397 45.3562 57.6612C54.1064 48.7743 62.9249 39.9558 71.6751 31.2057C74.4095 28.4713 77.8959 27.9244 81.0405 29.7018C84.8003 31.8893 85.8257 37.1531 83.1596 40.5027Z" fill="#35B736"/>
</svg>
