<svg width="42" height="43" viewBox="0 0 42 43" fill="none" xmlns="http://www.w3.org/2000/svg">
<g clip-path="url(#clip0_290_769)">
<path d="M0.786133 22.3823C0.986703 21.7395 1.28756 21.1901 1.88927 20.8629C3.04812 20.2434 4.45211 20.8863 4.77525 22.207C4.8421 22.4758 4.85325 22.7563 4.85325 23.0368C4.85325 25.842 4.85325 28.6471 4.85325 31.4639C4.85325 34.4326 6.83666 36.5247 9.67807 36.5247C17.3889 36.5247 25.0997 36.5247 32.8105 36.5247C35.6519 36.5247 37.6242 34.4326 37.6242 31.4522C37.6242 28.612 37.6242 25.7835 37.6242 22.9433C37.6242 21.8914 38.081 21.12 38.9056 20.7811C40.2316 20.22 41.6467 21.2018 41.6913 22.7446C41.7136 23.5628 41.7024 24.3926 41.7024 25.2108C41.7024 27.2913 41.7024 29.3717 41.7024 31.4522C41.7024 35.578 39.485 38.8974 35.7967 40.3C34.8273 40.674 33.8022 40.7909 32.7771 40.7909C25.0997 40.7909 17.4112 40.8142 9.73379 40.7792C5.97867 40.7675 3.21526 38.9675 1.58841 35.391C1.23184 34.6079 1.10927 33.7196 0.886418 32.8781C0.85299 32.7612 0.830704 32.6327 0.797276 32.5158C0.786133 29.138 0.786133 25.7601 0.786133 22.3823Z" fill="white"/>
<path d="M26.5811 15.7788C26.5811 16.0009 26.5811 16.1645 26.5811 16.3281C26.5811 20.3605 26.5811 24.4045 26.5811 28.4369C26.5811 29.7576 25.9459 30.6693 24.8316 30.9615C24.5865 31.0199 24.3302 31.0316 24.0739 31.0316C22.1797 31.0316 20.2965 31.0316 18.4023 31.0316C16.8088 31.0316 15.8951 30.0732 15.8951 28.4018C15.8951 24.3811 15.8951 20.3605 15.8951 16.3398C15.8951 16.1762 15.8951 16.0126 15.8951 15.7788C15.728 15.7788 15.5831 15.7788 15.4383 15.7788C14.2349 15.7788 13.0426 15.7905 11.8392 15.7671C10.5243 15.7437 9.73317 14.5399 10.2123 13.3243C10.3237 13.0555 10.5132 12.7984 10.7137 12.588C13.7669 9.37379 16.8311 6.1596 19.8842 2.9571C20.72 2.08051 21.7005 2.06882 22.5251 2.92204C25.6116 6.14792 28.687 9.37379 31.7624 12.6114C32.743 13.6516 32.509 15.171 31.2833 15.6502C31.0159 15.7554 30.715 15.7671 30.4253 15.7671C29.1662 15.7905 27.907 15.7788 26.5811 15.7788Z" fill="white"/>
</g>
<defs>
<clipPath id="clip0_290_769">
<rect width="41.6071" height="43" fill="white" transform="translate(0.384766)"/>
</clipPath>
</defs>
</svg>
